<?xml version="1.0" encoding="UTF-8"?><svg id="Layer_3" xmlns="http://www.w3.org/2000/svg" viewBox="0 0 882.29 1575.47"><defs><style>.cls-1{fill:#382411;}</style></defs><g id="Layer_1"><path class="cls-1" d="M496.71,801.36c-7.27,2.81-14.41,4.97-21.22,6.42-8.02,1.71-16.01,2.37-22.05,2.74-9.49.57-16.38.64-22.33.19-7.98-.6-15.3-2.02-22.12-3.43-3.6-.75-6.15-1.22-8.11-1.59-5.32-.99-5.76-1.06-13.12-4.07-3.63-1.48-7.77.25-9.25,3.89-1.48,3.63.26,7.77,3.89,9.25,8.47,3.45,9.72,3.74,15.89,4.89,1.89.35,4.35.8,7.85,1.52,7.26,1.5,15.1,3.02,23.93,3.69,2.96.22,6.09.33,9.56.33,4.28,0,9.08-.18,14.7-.51,6.55-.42,15.21-1.13,24.14-3.03,7.55-1.61,15.41-3.98,23.38-7.07,3.66-1.41,5.47-5.52,4.06-9.18-1.4-3.65-5.52-5.5-9.18-4.06Z"/><path class="cls-1" d="M530.7,776.2q-8.44,1.6-15.06-.16l-6.19-1.59c-6.79-1.67-13.82-4.53-20.88-8.47-8.25-4.62-16.64-6.96-25.64-7.17l-3.47-.09c-9.67-.29-12.83.18-18.68,4.48-5.97-4.43-9.06-4.87-19.16-4.58l-2.98.07c-8.74.2-17.37,2.65-25.63,7.26-7.08,3.96-14.1,6.81-20.89,8.49-2.58.64-4.64,1.18-6.35,1.63q-6.53,1.74-14.89.15c-3.95-.75-7.57,1.81-8.3,5.66-.72,3.85,1.81,7.57,5.66,8.3,5.2.98,8.18,1.49,10.88,1.49,2.94,0,5.54-.61,10.28-1.86,1.65-.44,3.64-.97,6.15-1.59,8-1.98,16.21-5.3,24.39-9.87,6.22-3.47,12.62-5.31,19.04-5.46l3.04-.08c7.98-.21,8.03-.23,14.28,4.93.17.14.37.17.55.3.43.29.85.53,1.33.71.45.18.89.31,1.35.4.37.07.73.1,1.11.11.58.01,1.12-.04,1.69-.17.29-.07.57-.15.85-.25.61-.22,1.16-.52,1.7-.91.12-.09.27-.11.39-.21,6.09-5.04,6.05-5.03,13.78-4.81l3.55.1c6.63.15,12.85,1.9,19.04,5.36,8.17,4.57,16.38,7.89,24.4,9.87l5.99,1.54c4.8,1.26,7.41,1.87,10.38,1.87,2.71,0,5.7-.51,10.92-1.49,3.85-.73,6.39-4.44,5.66-8.29-.73-3.85-4.45-6.41-8.29-5.66Z"/><path class="cls-1" d="M848.19,552.07c4.81-8.99,8.45-16.52,11.43-23.72l.79-1.93c3.22-7.75,6.26-15.07,8.6-22.62,2.98-9.56,5.1-18.61,6.62-25.41,2.04-9.2,3.31-17.81,4.43-25.84,1.37-9.81,1.8-18.3,2.12-24.49l.08-1.62c.26-4.82-2.37-9.04-6.69-10.73-4.33-1.73-9.09-.39-12.15,3.3-4.56,5.47-9.59,9.99-15.28,15.09l-1.08.97c-5.1,4.61-9.93,8.96-15.52,12.85-5.11,3.56-11.02,7.33-18.61,11.86-3.53,2.11-7.29,4.13-11.23,6.25-1.22.66-2.51,1.37-3.76,2.05.04-.82.08-1.59.12-2.36.17-3.17.34-6.35.34-12.7,0-.47-.18-.87-.27-1.31.02-2.46.04-4.37.07-6.19.06-3.16.1-6.31.1-12.62s-.05-9.45-.08-12.61c-.05-3.11-.08-6.21-.08-12.42l.06-25.07c0-6.22.04-9.33.07-12.44.04-2.7.07-5.52.08-10.19.29-.77.49-1.58.49-2.44l.05-6.62c.07-5.86.14-11.91-.27-17.92-.35-5.27-1.32-10.33-2.25-15.23-.57-3.01-1.15-6.02-1.55-9.02-.77-5.56-2.02-10.92-3.24-16.11-.61-2.62-1.22-5.21-1.77-7.82-.55-2.71-1.04-5.42-1.52-8.14-.91-5.18-1.87-10.53-3.35-15.83-.79-2.83-1.48-5.7-2.15-8.57-1.18-4.96-2.4-10.1-4.19-15.13-2.48-6.96-5.45-14.42-9.11-22.82-3.2-7.36-6.51-14.97-10.29-22.26-2.4-4.61-5.3-8.76-8.11-12.78-1.8-2.59-3.6-5.16-5.23-7.84-1.65-2.71-3.11-5.55-4.58-8.39-2.23-4.32-4.53-8.78-7.5-12.98-2.96-4.18-6.47-7.63-9.87-10.97-2.35-2.31-4.71-4.61-6.77-7.13-4.61-5.66-9.73-11.48-16.12-18.33l-1.07-1.15c-5.08-5.43-10.33-11.05-15.97-16.32l-3.25-3.06c-4.74-4.45-9.63-9.07-14.87-13.34-4.5-3.66-9.24-6.89-13.83-10.03-2.02-1.39-4.04-2.76-6.05-4.19-2.44-1.73-4.81-3.57-7.17-5.41-3.96-3.08-8.06-6.27-12.6-9.03l-4.95-3.06c-5.18-3.2-10.53-6.52-16.14-9.42-4.6-2.39-9.37-4.14-13.98-5.82-2.94-1.07-5.88-2.14-8.73-3.38-6.76-2.95-14.63-6.33-22.66-9.19-2.92-1.04-5.79-2.26-8.65-3.48-4.53-1.93-9.21-3.93-14.25-5.34-5.06-1.41-10.17-2.21-15.11-2.98-3-.47-6.02-.93-9-1.55l-4.99-1.05c-6.16-1.3-12.53-2.66-19.05-3.55-6.64-.91-13.34-1.33-19.84-1.75l-4.55-.3c-7-.48-14.04-.43-20.92-.45h-3.52c-7.2,0-14.29.49-21.14.96l-3.25.22c-3.29.21-6.61.08-9.92-.04-4.74-.18-9.65-.35-14.67.32-5.11.7-9.91,2.11-14.54,3.47-3.09.91-6.17,1.81-9.3,2.46l-3.22.67c-6.76,1.39-13.76,2.82-20.63,4.73-5.25,1.47-10.2,3.44-15,5.33-2.64,1.05-5.29,2.1-7.96,3.05-2.45.88-4.92,1.69-7.37,2.5-5.13,1.7-10.44,3.47-15.63,5.72-2.86,1.24-5.79,2.31-8.72,3.38-4.62,1.69-9.41,3.44-14.02,5.83-6.92,3.59-13.6,7.66-20.07,11.6l-1.16.7c-5.75,3.51-11.23,7.41-16.52,11.19l-3.71,2.63c-4.54,3.21-8.69,6.77-12.71,10.22-2.06,1.77-4.12,3.56-6.24,5.27-2.35,1.91-4.8,3.71-7.25,5.51-4.02,2.96-8.19,6.01-12.03,9.6-6.25,5.83-12.3,12.3-17.16,17.49-3.89,4.17-7.37,8.62-10.74,12.93-1.57,2.01-3.15,4.04-4.77,6.03l-4.26,5.13c-3.72,4.45-7.56,9.05-11.04,13.97-3.02,4.28-5.46,8.79-7.82,13.15-1.45,2.7-2.91,5.4-4.49,8-1.62,2.64-3.4,5.18-5.18,7.74-2.81,4.04-5.72,8.21-8.12,12.85-2.93,5.63-5.42,11.46-7.81,17.1l-2.25,5.24c-1.2,2.75-2.54,5.47-3.89,8.19-2.23,4.5-4.52,9.15-6.3,14.14-1.83,5.16-3.13,10.42-4.39,15.53-.67,2.73-1.34,5.45-2.1,8.15-.7,2.53-1.48,5.06-2.25,7.59-1.58,5.17-3.22,10.51-4.36,16.05-1.15,5.53-1.79,11.13-2.41,16.54-.3,2.59-.6,5.17-.95,7.74-.73,5.34-.9,10.66-1.06,15.81-.09,2.87-.18,5.75-.37,8.62-.25,3.7-.37,7.41-.42,11.09-.78,4.13-1.23,8.52-1.23,13.31,0,.52.19.98.3,1.47-.02,4.93-.14,7.75-.26,10.45-.15,3.14-.29,6.27-.29,12.55s.04,9.22.06,12.3c.04,3.04.06,6.08.06,12.15s.19,9.48.39,12.65c.18,2.94.37,5.88.37,11.76s-.23,8.73-.45,11.64c-.25,3.19-.5,6.39-.5,12.76,0,4.85-.05,7.74-.11,10.25-5.52-3.23-10.8-6.39-15.66-9.38l-3.51-2.15c-7.09-4.33-13.78-8.42-19.53-12.95-6.91-5.43-13.34-11.54-19.64-18.67-3.71-4.19-9.36-5.51-14.44-3.41-4.97,2.09-7.93,6.97-7.54,12.46l.07,1.06c.49,6.65,1.09,14.93,2.54,24.39,1.18,7.7,3.06,15.89,5.2,25.03,1.58,6.69,3.76,15.54,6.72,24.69,2.49,7.66,5.27,15.88,8.77,24.09,3.11,7.32,7.04,14.51,10.84,21.47l.8,1.46c4.09,7.49,8.65,14.86,13.54,21.9,1.53,2.19,3.32,4.69,5.24,7.3-1.12-.76-2.29-1.51-3.38-2.28-7.37-5.17-12.69-9.34-17.28-13.55-6.24-5.72-10.9-10.58-15.14-15.78-2.86-3.51-7.66-4.75-11.94-3.11-4.22,1.62-6.92,5.68-6.71,10.1.29,6.42,1.05,14.69,2.22,23.93.85,6.62,1.89,14.85,3.69,23.69,1.32,6.56,3.16,13.96,5.79,23.3,2.03,7.25,4.68,14.39,7.76,22.73,2.94,7.94,5.97,15.18,9.27,22.17,3.39,7.18,7.2,14.34,11.32,21.26,4.66,7.84,8.88,14.25,13.31,20.19l.91,1.23c2.97,4,6.12,8.06,9.43,12.07-4.36-2.6-8.56-5.15-12.33-7.77-6.72-4.7-12.41-9.69-17.1-13.96l-3.08-2.77c-4.56-4.08-8.85-7.92-12.65-12.58h0c-2.88-3.53-7.58-4.81-11.71-3.24-4.13,1.59-6.67,5.54-6.46,10.09.25,5.44,1.16,12.57,2.23,20.81l.38,2.99c.87,6.76,1.99,14.86,3.76,23.6l1.1,5.68c1.07,5.7,2.18,11.6,3.92,17.75,2.48,8.81,4.8,16.07,7.32,22.87,2.88,7.78,6.02,15.25,9.31,22.19,2.84,6,6.32,11.78,9.69,17.37l2.16,3.59c3.7,6.24,8.11,12.78,13.5,20.01,4.66,6.25,9.73,12.31,15.51,18.5,4.17,4.48,8.25,8.44,12.35,12.2,0,.11-.06.2-.06.31,0,6.45.15,9.68.29,12.9.14,3.07.28,6.14.28,12.26s-.14,9.2-.29,12.26c-.15,3.23-.3,6.45-.3,12.9s.11,9.63.23,12.85c.11,3.08.22,6.16.22,12.34s-.18,9.1-.38,12.13c-.2,3.25-.41,6.52-.41,13.03s.21,9.78.42,13.04c.19,3.03.39,6.06.39,12.13s-.22,9.06-.44,12.08c-.24,3.28-.48,6.55-.48,13.11s.05,9.5.09,12.67c.05,3.11.09,6.24.09,12.47s.06,9.55.13,12.73c.06,3.11.13,6.22.13,12.44s.09,9.61.19,12.81c.09,3.1.18,6.19.18,12.38s-.2,9.1-.41,12.13c-.21,3.27-.43,6.53-.43,13.07s.09,9.61.18,12.82c.09,3.1.18,6.19.18,12.39s.13,9.68.27,12.91c.12,3.09.25,6.17.25,12.34s-.23,9.07-.45,12.09c-.25,3.29-.5,6.58-.5,13.16,0,1.18.36,2.24.86,3.22l-.03,5.48c-.06,5.97-.11,12.14.3,18.29.17,2.52.3,5.05.42,7.58.27,5.52.55,11.22,1.32,16.88.71,5.17,2.05,10.05,3.35,14.77.83,3.03,1.67,6.05,2.3,9.11.62,2.98,1.08,6.01,1.55,9.02.77,4.93,1.56,10.02,2.97,15.07l.35,1.23c2.05,7.34,4.17,14.92,6.77,22.24,1.76,4.93,4.07,9.47,6.29,13.87,1.41,2.77,2.82,5.54,4.06,8.37,1.1,2.55,2.13,5.13,3.17,7.71,1.95,4.88,3.97,9.93,6.51,14.8,2.43,4.69,5.32,8.96,8.12,13.1,1.69,2.51,3.39,5.02,4.96,7.61,4.06,6.65,8.47,13.74,13.43,20.74,4.55,6.44,9.24,13.1,14.39,19.42,3.5,4.3,7.34,8.19,11.04,11.94,1.91,1.93,3.84,3.87,5.69,5.87l3.17,3.4c4.37,4.71,8.89,9.59,13.78,14.16,4.75,4.44,9.78,8.48,14.64,12.4l7.7,6.27c4.95,4.07,10.07,8.27,15.53,12.12,2.47,1.75,4.85,3.61,7.24,5.49,3.93,3.09,7.99,6.27,12.5,9.03,6.82,4.15,13.96,7.86,21.5,11.77l1.93,1.01c6.46,3.35,13.13,6.81,20.04,9.81,4.74,2.06,9.59,3.46,14.3,4.81,3.02.86,6.04,1.73,9,2.78,3.06,1.08,6.01,2.52,8.96,3.96,4.3,2.08,8.74,4.23,13.7,5.63,5.09,1.42,10.25,2.25,15.23,3.04,2.98.48,5.95.95,8.9,1.56,5.37,1.11,10.76,1.69,15.98,2.25,2.75.3,5.52.59,8.27.97,7.86,1.07,15.65,1.64,24.3,2.23,3.04.2,6.08.58,9.13.96,7.31.9,15.16,1.19,22.99,1.33,2.62.06,5.27.1,7.95.1,2.94,0,5.9-.06,8.85-.26,5.15-.35,10.01-1.44,14.7-2.5,3.15-.71,6.29-1.42,9.45-1.86,3.17-.43,6.37-.63,9.56-.83,4.83-.3,9.83-.63,14.86-1.66,7.19-1.49,14.98-3.41,23.81-5.88,5.97-1.67,11.76-3.79,17.36-5.84l5.83-2.11c7.83-2.79,15.38-6.06,22.68-9.24,8.08-3.51,15.3-6.94,22.11-10.47l4.45-2.29c5.66-2.89,11.51-5.9,17.12-9.32,4.6-2.81,8.81-6.03,12.88-9.14,2.3-1.76,4.61-3.52,6.97-5.19,5.85-4.13,11.83-8.71,19.38-14.86,5.75-4.69,11.75-9.95,18.33-16.11,2.32-2.17,4.82-4.16,7.33-6.15,3.79-3.02,7.7-6.15,11.22-9.93,4.62-4.94,8.88-10.21,13.01-15.31l2.78-3.44c4.24-5.2,9.78-12.12,14.94-19.43l3.47-4.85c3.54-4.92,7.2-10,10.45-15.35,4.2-6.86,7.85-13.8,11.85-21.5,2.42-4.66,4.25-9.47,6.02-14.14,1.08-2.86,2.16-5.72,3.38-8.52,2.16-4.96,3.78-10.05,5.34-14.96.87-2.71,1.73-5.42,2.69-8.12.97-2.74,2.06-5.44,3.14-8.15,1.89-4.72,3.86-9.6,5.31-14.8.77-2.74,1.63-5.47,2.5-8.2,1.57-4.93,3.2-10.03,4.3-15.37,1.25-6.03,2.01-12.15,2.76-18.08l.79-6.18c.32-2.41.7-4.82,1.07-7.25.85-5.53,1.73-11.24,2.13-17.08.56-8.39.64-16.75.64-24.52,0-.88-.21-1.71-.5-2.49,0,0,0-.01,0-.02,0-6.47-.14-9.7-.29-12.94-.13-3.08-.27-6.15-.27-12.31l.11-50.46c0-6.14.14-9.21.27-12.28.15-3.23.29-6.46.29-12.92s.03-9.4.06-12.53c.04-3.16.06-6.33.06-12.66s-.12-9.63-.23-12.85c-.11-3.08-.22-6.16-.22-12.33s.05-9.35.08-12.47c.05-3.17.09-6.34.09-12.67s-.19-9.77-.4-13.03c-.18-3.04-.37-6.08-.37-12.16l-.05-25.17c0-6.24.05-9.36.09-12.48.06-3.17.1-6.35.1-12.69s.19-9.11.38-12.15c.21-3.25.42-6.52.42-13.03s-.1-9.6-.2-12.8c-.09-3.1-.19-6.18-.19-12.36s-.07-9.56-.15-12.74c-.07-3.07-.15-6.17-.15-12.25,6.86-6.22,12.82-12.26,18.19-18.47l2.92-3.35c4.69-5.39,9.56-10.96,13.64-16.99,4.23-6.22,7.61-12.67,10.89-18.91l2.04-3.89c4.98-9.38,8.47-16.63,11.28-23.5,3.42-8.31,6.15-16.71,8.58-24.55,2.72-8.77,4.7-17.26,6.45-25.13,2.08-9.37,3.36-18.09,4.42-25.52.53-3.8,1.12-7.37,1.67-10.66.95-5.77,1.78-10.74,2.01-15.11.25-4.74-2.49-8.94-6.98-10.7-4.69-1.82-9.89-.51-13.03,3.25-5.28,6.31-10.95,11.58-15.3,15.46l-1.47,1.31c-4.86,4.34-9.89,8.83-15.43,12.67-1.94,1.33-4.14,2.57-6.42,3.81,3.84-4.73,7.25-9.61,10.45-14.38l4.89-7.18c4.14-6.01,8.43-12.22,11.94-18.76,4.26-7.96,7.69-16,10.84-23.55,3.69-8.87,6.61-16.79,8.95-24.23,2.93-9.32,5.18-17.46,6.86-24.89,2.2-9.71,3.6-18.66,4.58-25.37,1.26-8.62,1.67-16.21,2.01-22.3l.18-3.38c.32-5.05-2.59-9.7-7.23-11.59-4.7-1.91-9.86-.64-13.21,3.25-4.13,4.83-8.83,9.53-14.77,14.78-5,4.41-10.39,9.06-16.41,13.22-.79.54-1.65,1.05-2.46,1.58,2.16-2.88,4.33-5.79,6.53-9,4.41-6.41,8.71-13.6,13.58-22.64ZM808.45,478.52c4.12-2.22,8.06-4.34,11.76-6.55,7.88-4.7,14.07-8.65,19.45-12.4,6.33-4.4,11.71-9.26,16.92-13.96l1.39-1.26c3.17-2.84,6.4-5.74,9.57-8.89-.3,4.51-.76,9.56-1.54,15.12-1.07,7.75-2.29,16.04-4.22,24.73-1.45,6.53-3.47,15.2-6.3,24.27-2.16,6.93-5.08,13.96-8.17,21.41l-.8,1.93c-2.79,6.76-6.23,13.89-10.81,22.44-4.68,8.69-8.61,15.26-12.77,21.32-5.15,7.49-10.1,13.93-15.14,19.67-3.4,3.89-6.56,7.33-9.71,10.58.05-3.61.17-5.92.28-8.2.17-3.16.33-6.32.33-12.65s-.09-9.38-.19-12.51c-.09-3.01-.18-6.03-.18-12.08s-.06-9.32-.13-12.44c-.06-3.04-.13-6.07-.13-12.15s.14-8.97.28-11.97c.14-3.15.29-6.31.29-12.62s-.22-9.61-.44-12.81c-.12-1.7-.24-3.46-.31-5.72.83-.12,1.66-.36,2.43-.8,2.79-1.56,5.51-3.02,8.16-4.45ZM719.53,933.49c.05,1.17.11,2.27.17,3.33.17,2.92.33,5.83.33,11.66s-.1,8.86-.21,11.81c-.11,3.09-.22,6.16-.22,12.33s.17,9.32.33,12.43c.15,2.92.3,5.84.3,11.68s-.06,8.95-.11,11.93c-.06,3.05-.12,6.11-.12,12.21s-.03,8.99-.06,12c-.03,3.03-.06,6.07-.06,12.14l-.04,24.09c0,5.91-.1,8.85-.21,11.8-.11,3.09-.22,6.16-.22,12.32s.06,9.18.13,12.24c.06,2.98.13,5.95.13,11.91l-.04,24.16c0,5.95-.07,8.93-.15,11.9-.07,3.07-.15,6.13-.15,12.25s.1,9.25.19,12.34c.1,2.97.19,5.93.19,11.87s-.05,8.98-.1,11.98c-.05,3.06-.1,6.11-.1,12.22,0,1.12.32,2.15.78,3.09-.15,3.83-.55,7.7-1.06,11.76-.37,2.98-.74,5.96-.98,8.93l-.43,5.54c-.45,6.09-.88,11.84-1.82,17.48-1.1,6.66-2.61,13.64-4.87,22.61-1.3,5.15-3.11,10.14-5.02,15.41-.79,2.16-1.56,4.32-2.31,6.5-1.08,3.15-1.97,6.37-2.84,9.58-1.22,4.48-2.37,8.71-4.06,12.55-2.91,6.64-6.21,14.15-9.92,20.98-1.93,3.57-4.55,6.93-7.32,10.49-2.14,2.75-4.28,5.52-6.18,8.42-1.77,2.71-3.39,5.53-5.02,8.35-2.34,4.08-4.56,7.94-7.2,11.33-2.72,3.49-5.96,6.67-9.39,10.04-2.25,2.21-4.49,4.42-6.62,6.73-2.28,2.48-4.41,5.12-6.52,7.77-2.86,3.59-5.57,6.99-8.63,9.81-2.87,2.64-6.38,4.87-10.08,7.23-3.06,1.94-6.12,3.89-8.95,6.1-6.76,5.27-12.42,9.61-18.58,13.64l-1.99,1.31c-5.97,3.92-11.62,7.61-17.62,10.88-5.91,3.21-12.33,6.3-20.8,10.02-7.15,3.14-14.58,5.76-21.58,8.16-2.45.84-4.89,1.75-7.34,2.65-4.98,1.85-9.68,3.6-14.54,4.82-7.05,1.78-14.15,3.01-22.7,4.43-5.03.84-10.18,1.16-15.64,1.5-2.45.15-4.92.3-7.38.51-2.95.24-5.9.6-8.86.96-11.95,1.49-23.04.99-34.24.06l-3.04-.25c-2.41-.2-4.82-.35-7.24-.51-5.54-.35-10.76-.67-15.83-1.52-6.88-1.14-14.29-2.73-22.68-4.85-4.89-1.23-9.64-2.98-14.67-4.85-2.4-.9-4.81-1.78-7.24-2.62-7.48-2.57-14.68-5.66-21.41-8.61-6.34-2.79-12.33-6.04-18.66-9.49l-1.88-1.02c-2.84-1.54-5.76-2.92-8.68-4.3-4.27-2.01-8.3-3.91-11.92-6.28-3.79-2.48-7.31-5.48-11.03-8.66-2.32-1.97-4.64-3.95-7.03-5.81-6.52-5.08-12.49-10.45-17.47-15.04-2.53-2.33-5.24-4.46-7.96-6.59-3.57-2.8-6.93-5.44-9.7-8.45-4.92-5.34-9.81-11.15-14.95-17.73-2.64-3.39-4.85-7.25-7.2-11.33-1.62-2.83-3.24-5.66-5.02-8.37l-2.86-4.33c-3.43-5.15-6.66-10.02-9.47-15.19-1.14-2.1-2.32-4.18-3.49-6.27-2.74-4.83-5.32-9.39-7.42-14.16-2.13-4.86-3.8-9.96-5.56-15.36-.7-2.16-1.41-4.32-2.15-6.49l-.8-2.33c-2.22-6.44-4.52-13.1-6.19-19.71-1.28-5.06-2.05-10.28-2.86-15.81-.34-2.33-.69-4.66-1.07-6.99-.95-5.7-1.38-11.49-1.83-17.6l-.42-5.35c-.66-8.12-.98-15.65-.98-23.05,0-1.58-.61-2.96-1.48-4.13.05-3.67.17-6,.28-8.29.17-3.11.33-6.23.33-12.47s-.19-9.4-.39-12.53c-.18-2.92-.36-5.84-.36-11.67s.05-8.97.1-11.96c.05-3.05.1-6.1.1-12.2s.03-9.01.06-12c.04-3.04.06-6.08.06-12.15s.11-8.84.22-11.8c.12-3.09.24-6.17.24-12.35l.06-24.12c0-6.15-.1-9.21-.21-12.28-.1-2.96-.2-5.91-.2-11.81s.06-8.95.11-11.94c.06-3.05.11-6.1.11-12.2s-.16-9.32-.31-12.43c-.15-2.93-.3-5.85-.3-11.71s.1-8.86.2-11.82c.11-3.07.21-6.15.21-12.29s.04-8.98.07-11.98c.05-3.04.08-6.08.08-12.16s-.12-9.25-.24-12.34c-.04-.95-.07-1.93-.11-2.97,3.65,1.63,7.21,3.28,10.61,5.07,4.36,2.3,8.39,5.11,12.66,8.09,2.52,1.77,5.04,3.52,7.59,5.15l3.84,2.42c5.59,3.53,10.86,6.87,15.67,10.58l.09,23.53c0,6.29.06,9.44.1,12.58.06,3.1.1,6.18.1,12.36l.04,24.94c0,6.05-.15,9.08-.29,12.12-.16,3.19-.3,6.39-.3,12.78s.18,9.63.35,12.84c.16,3.02.32,6.04.32,12.09s-.06,9.24-.13,12.32c-.07,3.16-.14,6.32-.14,12.64s-.12,9.15-.24,12.2c-.12,3.19-.25,6.38-.25,12.75l.08,24.97c0,6.35.08,9.52.17,12.69.07,3.08.16,6.15.16,12.31s.11,9.56.22,12.75c.1,3.06.21,6.13.21,12.25,0,.31.14.58.18.88,0,7.99.11,16.44,1.04,24.81l.46,4.32c.75,6.96,1.51,14.17,3.11,21.22,2,8.79,4.95,17.23,7.56,24.67,2.37,6.76,5.46,13.07,8.46,19.16l2.11,4.32c1.14,2.34,2.19,4.71,3.24,7.09,2.38,5.34,4.82,10.86,8.1,16.06,3.95,6.27,8.55,11.98,13,17.49l2.5,3.11c5.28,6.62,11.2,12.53,17.51,18.84,1.71,1.71,3.37,3.47,5.05,5.21,4.15,4.35,8.43,8.85,13.38,12.8,6.55,5.24,13.63,9.68,20.48,13.99l.84.54c7.63,4.81,15.71,8.8,22.69,12.17,8.38,4.04,16.75,7.13,23.86,9.62,2.38.83,4.75,1.75,7.13,2.65,5.5,2.11,11.18,4.29,17.29,5.67,6.2,1.4,12.48,1.98,18.55,2.52,2.35.21,4.7.43,7.06.68,2.25.25,4.51.55,6.78.86,6.07.8,12.36,1.64,18.89,1.64,7.71,0,15.19-.85,22.43-1.67l8.32-.91c6.75-.7,13.72-1.42,20.56-2.98,7.02-1.6,13.68-3.98,20.12-6.28l4.47-1.59c8.17-2.86,15.87-6.57,23.6-10.3,9.32-4.5,16.29-8.29,22.6-12.26,6.59-4.15,13.22-8.93,20.87-15.04,6.66-5.31,13.11-11.08,19.17-17.14l2.5-2.49c5.13-5.1,10.42-10.37,15.15-16.27,4.13-5.17,7.51-10.73,10.79-16.11,1.11-1.8,2.21-3.61,3.35-5.42,4.06-6.44,8.72-14.14,12.69-22.34,3.36-6.99,7.21-15.15,10.18-23.64,3.11-8.88,5.47-16.98,7.24-24.75l.88-3.82c1.61-6.92,3.26-14.08,4.08-21.52.78-6.93.72-13.94.67-20.7l-.03-5.1c0-.58-.2-1.09-.33-1.62.03-3.75.09-6.14.15-8.51.09-3.21.18-6.4.18-12.81s.13-9.24.25-12.32c.14-3.23.27-6.46.27-12.92s-.21-9.8-.43-13.06c-.2-3.03-.4-6.07-.4-12.13l-.06-25.18c0-6.15.12-9.23.25-12.31.13-3.22.26-6.44.26-12.87s.08-9.3.16-12.39c.08-3.19.17-6.39.17-12.76s-.18-9.71-.34-12.95c-.17-3.04-.32-6.09-.32-12.18s-.03-9.49-.06-12.65c-.03-3.13-.06-6.27-.06-12.52s.1-9.26.2-12.35c.1-3.21.2-6.4.2-12.82s.04-9.37.06-12.5c.04-3.05.07-6.16.07-12.05,5.07-3.89,10.88-7.94,18.15-12.62,6.87-4.43,14.31-8.47,21.35-12.2l1.2-.64c2.98-1.58,6.02-3.18,9.07-4.74ZM655.09,1026.05c.03,3.13.06,6.27.06,12.52s.18,9.7.34,12.94c.17,3.04.32,6.09.32,12.19s-.08,9.3-.16,12.39c-.08,3.19-.17,6.39-.17,12.76s-.12,9.22-.25,12.3c-.13,3.22-.26,6.44-.26,12.88l.06,25.18c0,6.53.21,9.8.43,13.06.2,3.03.4,6.07.4,12.13s-.13,9.25-.25,12.34c-.14,3.23-.27,6.45-.27,12.9s-.08,9.32-.17,12.42c-.09,3.21-.18,6.4-.18,12.81,0,.64.21,1.21.36,1.8v1.13c.05,6.64.1,12.92-.58,19.03-.73,6.62-2.3,13.36-3.81,19.88l-.9,3.88c-1.64,7.25-3.86,14.83-6.79,23.2-2.73,7.8-6.22,15.23-9.57,22.16-3.65,7.57-8.08,14.85-11.91,20.95-1.16,1.86-2.31,3.72-3.45,5.6-3.19,5.23-6.2,10.17-9.77,14.63-4.2,5.27-9,10.03-14.07,15.06l-2.53,2.52c-5.68,5.68-11.74,11.1-17.99,16.09-7.23,5.78-13.45,10.27-19.56,14.12-5.85,3.69-12.39,7.23-21.51,11.63-7.41,3.58-14.41,6.95-21.83,9.55l-4.57,1.63c-6.32,2.26-12.29,4.4-18.47,5.8-6.02,1.37-12.26,2.01-18.88,2.71l-8.46.91c-12.39,1.4-24.71,1.8-37.85.06-2.37-.31-4.72-.63-7.08-.89-2.45-.28-4.91-.5-7.36-.72-5.86-.53-11.4-1.03-16.68-2.23-5.12-1.16-10.09-3.07-15.35-5.08-2.51-.96-5.01-1.92-7.52-2.8-6.72-2.36-14.63-5.27-22.37-9.01-6.63-3.2-14.29-6.98-21.3-11.39l-.84-.54c-6.81-4.28-13.25-8.33-19.19-13.07-4.2-3.35-7.97-7.31-11.96-11.5-1.75-1.84-3.49-3.67-5.87-6.04-5.7-5.7-11.09-11.09-15.88-17.09l-2.55-3.16c-4.38-5.44-8.53-10.58-12.03-16.14-2.74-4.34-4.88-9.17-7.14-14.26-1.12-2.51-2.24-5.03-3.43-7.5l-2.15-4.4c-2.94-5.98-5.72-11.63-7.8-17.6-2.49-7.09-5.3-15.13-7.12-23.12-1.42-6.25-2.11-12.73-2.84-19.58l-.48-4.39c-.89-7.95-.96-16.27-.96-24.12,0-.3-.13-.55-.17-.84-.01-5.77-.11-8.88-.22-11.91-.1-3.06-.21-6.13-.21-12.25s-.08-9.51-.17-12.68c-.07-3.08-.16-6.15-.16-12.32l-.08-24.97c0-6.1.12-9.15.24-12.2.12-3.19.25-6.38.25-12.75s.06-9.25.13-12.34c.07-3.15.14-6.31.14-12.62s-.18-9.64-.35-12.85c-.16-3.01-.32-6.03-.32-12.07s.15-9.08.29-12.12c.16-3.19.3-6.39.3-12.78l-.04-24.94c0-6.29-.06-9.44-.1-12.6-.06-3.09-.1-6.17-.1-12.35l-.04-11.34c1.41,1.31,2.84,2.56,4.23,3.91,5.2,5.08,10.34,10.9,15.74,17.79,4.45,5.68,8.65,12.12,12.82,19.67,3.92,7.09,7.61,14.04,9.92,21.09,1.99,6.11,4.36,14.13,5.23,22.29,0,4.95-.04,7.83-.08,10.58-.04,3.13-.08,6.27-.08,12.54s.06,9.44.11,12.6c.06,3.08.11,6.16.11,12.33l-.07,24.92c0,6.34.09,9.51.19,12.68.09,3.07.18,6.13.18,12.25s-.11,9.17-.22,12.23c-.12,3.18-.24,6.37-.24,12.74l.07,22.74c-.1,1.79-.32,3.6-.34,5.38,0,.68.19,1.3.36,1.93.1,6.43.46,13.88,1.62,21.2,1.29,8.28,3.83,16.02,6.27,23.51l.63,1.9c2.59,7.98,5.55,16.47,9.64,24.46,3.53,6.92,7.98,13.99,14,22.26,5.56,7.63,11.12,14.2,16.98,20.07,5.49,5.49,12.13,11.86,19.75,17.4,6.1,4.44,12.73,7.76,19.14,10.98l5.49,2.78c7.03,3.59,14.3,7.3,22.27,9.89,6.89,2.25,16.03,5.01,25.55,6.5,8.97,1.4,18.28,1.52,26.29,1.52,8.84,0,17.41-1.24,26.13-2.62,8.47-1.32,16.8-3.34,25.48-6.15,8.13-2.64,16.04-5.94,24.89-10.45,7.38-3.76,15.02-7.66,22.02-12.76,8.61-6.27,14.86-11.45,20.23-16.83,5.49-5.48,9.96-11.67,14.28-17.66l2.11-2.91c4.97-6.82,9.43-14.15,13.63-22.37,3.54-6.92,7.54-15.19,10.42-24.08,2.38-7.29,4.16-15.19,5.8-25.6,1.18-7.54,2.19-15.7,2.35-24.17,0-.11.06-.2.06-.31,0-.31,0-.54,0-.84,0-.28.05-.53.05-.81,0-.08-.04-.14-.04-.22,0-5.09.03-8.05.06-10.89.03-3.23.06-6.45.06-12.89s-.04-9.68-.08-12.91c-.04-3.19-.07-6.37-.07-12.73v-25.61c0-6.34.06-9.51.1-12.68.06-3.23.11-6.46.11-12.91l.09-25.6c0-6.46-.06-9.68-.12-12.91-.01-.62-.03-1.25-.04-1.9.43-.87.7-1.83.78-2.85.53-7.35,1.97-14.87,4.4-22.99,2.11-7.03,4.49-15.01,8.3-22.21,3.1-5.88,7.34-11.41,11.83-17.26l1.82-2.38c1.28-1.69,2.55-3.42,3.83-5.16,3.47-4.74,7.06-9.64,11.22-13.78,1.93-1.92,3.94-3.73,5.93-5.57-.04,3.09-.07,6.24-.07,12.43s-.1,9.27-.2,12.36c-.1,3.21-.2,6.4-.2,12.81s.03,9.49.06,12.65ZM459.83,1040.88c-.73-4.38-1.76-9.72-3.59-15.53,3.6,1.73,7.76,3.94,12.05,6.73,5.38,3.48,11.41,8.3,17.93,14.32,5.46,5.05,10.64,10.76,15.38,16.97,4.2,5.51,8.3,12.04,12.17,19.41,3.29,6.27,6.19,13.19,8.89,21.16,2.45,7.25,4.77,14.41,6.25,22.28,1.43,7.67,2.11,16.02,2.58,23.16.5,7.65.6,15.53.3,23.42-.3,8.35-.89,16.03-1.79,23.48-.78,6.37-1.93,13.42-3.58,21.98-3.44,4.43-7.05,8.89-11.19,13.04-5.53,5.53-11.5,10.73-17.75,15.45-5.7,4.32-12.19,8.53-19.82,12.9-6.27,3.59-13.1,6.64-21.38,10.25-4.84,2.1-11.03,4.69-17.8,7.1-2.22-2.37-4.43-4.77-6.62-7.35-4.52-5.32-8.8-11.16-13.86-18.94-4.61-7.08-8.41-13.74-11.62-20.39-3.73-7.71-7.01-14.66-9.38-21.58-2.47-7.27-5.02-15.01-6.66-22.69-1.6-7.39-2.4-14.96-3.19-22.28l-.12-1.2c-.18-1.65-.22-3.28-.33-4.92,5.84-3.81,11.66-7.76,17.24-11.95,5.57-4.17,10.41-8.69,15.07-13.06l3.21-2.98c6.79-6.29,12.29-11.71,17.05-17.69,4.67-5.87,9.97-12.95,13.84-20.97,3.78-7.85,6.35-16.09,7.62-24.5,1.41-9.31.26-18.59-.91-25.64ZM530.04,1333.36c-.81.59-1.74,1.06-2.57,1.62-7.46-2.89-14.22-5.76-20.48-8.73-7.49-3.55-14.58-7.3-21.09-11.13-5.48-3.23-10.59-7.03-15.53-10.71l-3.91-2.89c-6.73-4.94-12.1-9.27-16.82-13.51,4.6-1.79,8.81-3.56,12.3-5.08,8.69-3.79,15.89-7,22.76-10.94,8.16-4.67,15.14-9.21,21.33-13.89,6.77-5.13,13.24-10.76,19.23-16.75,6.37-6.38,11.78-13.43,16.38-19.55,4.51-6.03,9.72-13.27,14.11-21.15,3.62-6.51,7.07-13.79,10.82-22.9,2.82-6.81,5.38-13.88,7.63-21.04,2.77,4.16,6.09,9.23,8.84,15.04,3.13,6.61,5.46,12.7,7.12,18.61,1.84,6.56,2.46,13.82,2.8,19.4,0,.15.09.27.11.42-.08,7.9-1.09,15.72-2.24,23-1.52,9.63-3.14,16.86-5.27,23.42-2.59,7.94-6.28,15.57-9.57,22-3.86,7.56-7.94,14.26-12.47,20.48l-2.14,2.96c-4.17,5.79-8.11,11.25-12.8,15.93-4.82,4.82-10.54,9.57-18.55,15.39ZM375.78,1089.33c-1.2,7.26-2.56,15.51-3.29,24.68-.54,6.88-.73,14.6-.62,25.01v1.46c.08,7.58.15,15.41,1.04,23.62l.13,1.18c.82,7.69,1.66,15.65,3.42,23.77,1.81,8.42,4.62,16.94,7.11,24.28,2.62,7.69,6.1,15.05,10.04,23.19,3.47,7.18,7.56,14.36,12.5,21.96,5.41,8.29,10.02,14.57,14.94,20.38,3.07,3.61,6.16,6.98,9.3,10.23.59.92,1.35,1.66,2.25,2.21,1.95,1.96,3.89,3.94,5.9,5.8,5.47,5.04,11.69,10.07,19.57,15.86l3.82,2.84c5.25,3.9,10.67,7.95,16.82,11.56,6.87,4.04,14.33,7.98,22.2,11.72,3.49,1.66,7.11,3.28,10.9,4.89-.9.46-1.67.89-2.6,1.37-7.45,3.8-14.68,6.81-22.1,9.22-7.96,2.58-15.58,4.43-23.31,5.63-8.46,1.34-16.09,2.45-23.92,2.45s-16.13-.1-24.09-1.36c-8.54-1.33-16.98-3.89-23.37-5.96-6.89-2.25-13.35-5.54-20.19-9.04l-5.58-2.83c-6.17-3.1-12-6.02-17.15-9.77-6.83-4.97-12.97-10.86-18.07-15.96-5.33-5.34-10.42-11.36-15.53-18.39-5.57-7.65-9.65-14.12-12.84-20.37-3.64-7.12-6.38-14.96-8.79-22.38l-.62-1.92c-2.27-6.96-4.62-14.15-5.74-21.32-1.31-8.26-1.49-16.71-1.49-23.91,0-.06.03-.11.03-.17v-2.03c.34-5.56.97-11.18,2.14-16.85,1.64-7.98,4.48-15.63,6.76-21.39,2.49-6.27,5.78-12.89,10.05-20.23,3.5-6.01,7.86-11.7,12.07-17.2l1.04-1.35c1.37-1.79,2.71-3.6,4.04-5.41,3.38-4.57,6.58-8.9,10.11-12.62,4.24-4.48,8.87-8.51,13.35-12.41l3.61-3.16c5.77-5.09,11.79-9.99,17.91-14.56,4.13-3.09,7.88-5.82,11.18-8.12-.91,4.17-1.94,9.35-2.94,15.41ZM596.16,945.24c-1.92,7.69-3.9,15.86-5.18,23.82-1.01,6.26-1.39,12.28-1.75,18.1l-.42,6.14c-.55,7.05-.51,13.63-.48,19.99l.02,4.24v3.77c-.02,7.3-.03,14.2.45,20.47l.28,3.54c.67,8.68,1.19,15.53,2.06,20.66.26,1.56,1.06,2.86,2.08,3.95,0,.08,0,.16,0,.24.06,3.17.12,6.33.12,12.65l-.09,25.6c0,6.34-.06,9.5-.1,12.67-.06,3.23-.11,6.46-.11,12.92v25.61c0,.33,0,.56,0,.87-2.62-4.75-5.31-9.06-7.61-12.51l-.88-1.31c-2.86-4.29-7.73-6.53-12.77-5.76-4.92.72-8.89,4.18-10.35,9-2.32,7.63-5.01,15.17-8,22.42-3.04,7.37-5.83,13.39-8.68,18.75.55-5.7.98-11.52,1.21-17.75.31-8.36.2-16.73-.33-24.86-.49-7.57-1.21-16.44-2.78-24.85-1.64-8.77-4.24-16.77-6.76-24.21-2.94-8.69-6.13-16.28-9.77-23.21-4.3-8.19-8.71-15.19-13.46-21.42-5.23-6.86-10.96-13.18-17.02-18.78-7.11-6.57-13.78-11.89-19.83-15.81-9.41-6.12-18.01-9.68-22.63-11.58-3.96-1.64-8.44-.75-11.39,2.29-2.97,3.03-3.76,7.52-2.02,11.43,3.39,7.68,4.91,15.19,5.85,20.89,1.48,8.93,1.76,15.46.89,21.19-1.06,7-3.22,13.89-6.39,20.46-3.26,6.76-7.98,13.04-12.16,18.3-4.2,5.28-9.27,10.25-15.58,16.1l-3.27,3.04c-4.39,4.11-8.93,8.36-13.87,12.06-3.03,2.27-6.23,4.31-9.35,6.48,0-.16,0-.32,0-.48v-1.47c-.12-9.98.06-17.31.57-23.76.67-8.57,1.98-16.5,3.15-23.57,1.87-11.33,3.84-19.41,4.84-23.21,1.07-4.08-.49-8.4-3.98-10.98-3.53-2.62-8.21-2.85-11.86-.57-4.82,3.01-11.66,7.81-19.77,13.88-6.42,4.81-12.74,9.94-18.8,15.29l-3.54,3.1c-4.74,4.12-9.64,8.38-14.35,13.36-4.11,4.34-7.73,9.23-11.21,13.95-1.28,1.74-2.58,3.48-3.9,5.22l-1.04,1.34c-4.48,5.85-9.11,11.9-13.07,18.7-2.38,4.09-4.47,7.99-6.33,11.76-.04-2.72-.09-4.78-.16-6.75-.09-3.07-.18-6.13-.18-12.25l.07-24.92c0-6.29-.06-9.44-.11-12.59-.06-3.08-.11-6.16-.11-12.34s.04-9.27.08-12.36c.02-1.45.04-2.94.05-4.7,1.47-1.26,2.5-3.04,2.82-5.12.9-5.84,1.51-13.49,2.21-23.94l.22-3.2c.43-6.21.93-13.25.87-20.8-.06-6.56-.47-13.97-1.34-24.01-.77-8.89-1.74-16.71-2.96-23.89-1.14-6.81-2.79-14.3-5.18-23.57-1.93-7.49-4.5-14.82-7.4-22.96-2.95-8.22-5.93-15.53-9.16-22.43-1.43-3.05-2.92-6.17-4.46-9.29,3.51,2.91,7.31,5.3,11.02,7.56,3.13,1.9,6.09,3.71,8.76,5.77l1.97,1.53c5.71,4.45,11.63,9.05,17.97,13.41,2.73,1.86,5.26,4.08,7.82,6.29,3.66,3.17,7.44,6.45,11.95,9.17,4.31,2.58,8.88,4.45,13.31,6.25,3.2,1.3,6.42,2.6,9.5,4.2,2.72,1.41,5.39,2.98,8.09,4.56,4.38,2.57,8.92,5.22,13.86,7.43,4.78,2.14,9.76,3.8,14.56,5.41,2.98.99,5.97,1.99,8.94,3.11,2.98,1.13,5.9,2.45,8.85,3.77,4.54,2.03,9.22,4.14,14.3,5.73,4.99,1.56,10.12,2.67,15.08,3.73,3.07.66,6.15,1.32,9.53,2.17.62.13,1.22.19,1.81.19,1.24,0,2.42-.28,3.55-.84,3.2-.78,6.44-1.3,9.67-1.84,4.69-.78,9.55-1.58,14.32-3.07,5.28-1.66,10.25-3.75,15.04-5.77,2.77-1.16,5.53-2.32,8.29-3.37l2.66-1c6.82-2.58,13.88-5.23,20.58-8.23,5.32-2.38,10.31-5.13,15.14-7.78,2.36-1.29,4.69-2.58,7.03-3.8,2.98-1.55,6.03-2.91,9.08-4.27,4.46-1.99,9.08-4.05,13.46-6.67,4.5-2.71,8.31-5.97,11.99-9.12,2.58-2.2,5.12-4.4,7.84-6.27,2.86-1.96,5.89-3.64,8.89-5.32,4.16-2.34,8.47-4.75,12.42-7.83,4.17-3.23,7.65-6.88,11.02-10.39,2.31-2.41,4.58-4.8,7.03-6.94,1.45-1.27,2.93-2.46,4.4-3.68l-.13.22c-3.21,5.37-6.53,10.92-9.2,16.74-3.63,7.89-6.86,15.04-9.46,22.5-2.38,6.82-4.48,14.05-6.83,23.43ZM98.64,310.81c.37-2.67.67-5.36.99-8.04.61-5.34,1.19-10.39,2.21-15.3.68-3.27,1.59-6.54,2.56-9.84,1.39-.9,2.49-2.24,2.98-3.95,1.92-6.79,3.92-13.81,7.74-19.98,4.09-6.61,8.52-12.24,13.52-17.23l3.35-3.42c4.08-4.19,8.29-8.51,13.12-11.88,3.26-2.28,7.33-4.08,11.64-6,2.92-1.29,5.9-2.62,8.81-4.13,1.92-1.01,3.84-2.06,5.79-3.13,4.69-2.57,9.55-5.22,14.66-7.3,5.58-2.27,11.58-4.2,17.94-6.23l3.93-1.27c6.31-2.04,12.93-3.75,19.77-5.52l2.61-.68c5.42-1.4,11.03-2.54,16.78-3.72l5.96-1.23c7.4-1.55,15-3.12,22.9-4.45,2.63-.44,5.3-.93,7.98-1.43,4.93-.91,9.93-1.83,15.07-2.52,4.36-.59,8.83-.94,13.34-1.3,3.29-.26,6.6-.53,9.93-.88,5.62-.59,11.34-1.02,17.14-1.45l6.22-.47c3.47-.28,6.98-.69,10.51-1.11,4.24-.51,8.53-1.03,12.87-1.27,4.04-.22,8.08-.18,12.19-.11,3.75.04,7.52.1,11.31-.04,3.5-.13,7.02-.38,10.56-.63,4.28-.3,8.6-.6,12.97-.67,3.95-.09,8.04.13,12.12.31,3.8.18,7.61.36,11.47.36l7.33-.02c5.98-.02,11.86-.05,17.7.07,4.53.1,8.8-.28,12.97-.64,4.26-.36,8.24-.71,12.11-.55,4.74.2,9.42.67,14.06,1.14,3.66.36,7.28.72,10.89.96,4.25.29,8.46,1,12.91,1.76,3.97.67,7.92,1.34,11.86,1.71,8.45.78,16.69,1.53,24.75,2.51,8.45,1.03,16.65,2.02,24.67,3.27,3.88.6,7.76.98,11.59,1.36,4.61.45,8.97.88,13.12,1.68,3.7.71,7.38,1.26,11.02,1.78,4.76.7,9.25,1.36,13.5,2.38,5.23,1.26,10.42,2.93,15.43,4.54,2.81.91,5.58,1.8,8.33,2.62,4.52,1.34,8.97,3.33,13.27,5.25,3.23,1.44,6.4,2.86,9.59,4.04,3.72,1.38,7.51,2.42,11.23,3.44,4.46,1.21,8.68,2.36,12.24,4.04,6.14,2.9,11.79,6.49,17.26,9.95l3.76,2.38c6.33,3.96,12.55,8.68,19.03,14.45,5.79,5.16,11.74,10.78,15.9,17.02,4.48,6.68,6.71,14.3,8.31,20.88.2.82.59,1.53,1.03,2.2.3,1.6.6,3.19.89,4.84.51,2.85,1.01,5.69,1.6,8.54.56,2.74,1.21,5.46,1.85,8.19,1.19,5.08,2.33,9.89,2.99,14.79.23,1.66.56,3.32.85,4.99-1.74-2.41-3.63-4.8-5.91-7.07-6.27-6.28-13.03-11.93-20.07-16.8-6.6-4.56-13.97-8.55-22.23-12.92-4.66-2.47-9.69-4.31-14.56-6.08-2.98-1.09-6.02-2.2-9.03-3.47-2.92-1.26-5.78-2.86-8.69-4.5-4.35-2.44-8.85-4.97-14.02-6.79-4.65-1.63-9.44-2.38-14.07-3.11-3.77-.59-7.33-1.16-10.7-2.14-3.16-.92-6.3-2.08-9.47-3.24-4.57-1.67-9.3-3.4-14.38-4.65-3.15-.78-6.3-1.69-9.48-2.62-4.75-1.39-9.66-2.83-14.8-3.87-4.72-.97-9.45-1.23-14.04-1.47-3.85-.21-7.49-.41-11.01-1-8.09-1.38-16.31-2.55-24.7-3.7-3.51-.48-7-1.32-10.51-2.16-4.51-1.07-9.18-2.18-14.11-2.71-4.71-.5-9.42-.54-13.96-.57-3.68-.03-7.38-.06-11.08-.35-3.26-.25-6.53-.59-9.82-.92-4.99-.52-10.02-1.03-15.1-1.29-4.8-.25-9.64-.21-14.5-.18-3.49.02-6.99.06-10.52-.05-11.84-.3-23.94-.08-35.89-.66-4.74-.21-9.44-.41-14.14-.32-3.11.08-6.2.11-9.29.15-5.29.06-10.54.12-15.76.39-4.81.25-9.57.87-14.3,1.5-3.54.47-7.07.95-10.58,1.22-4.91.39-9.73,1.11-14.54,1.82-3.44.52-6.87,1.04-10.28,1.4-3.7.4-7.41.44-11.09.51-4.54.06-9.23.15-13.95.79l-4.28.58c-6.93.93-13.78,1.87-20.48,3-5.01.84-9.9,2.04-14.72,3.24-3.26.8-6.51,1.61-9.73,2.27-5.11,1.04-10.05,2.44-14.92,3.82-3.12.88-6.22,1.76-9.32,2.51-3.56.88-7.16,1.43-10.72,1.99-4.59.72-9.34,1.46-13.98,2.82-5.2,1.52-9.99,3.53-14.62,5.46-2.99,1.25-5.95,2.49-8.92,3.53-3.37,1.18-6.81,2.04-10.19,2.9-4.68,1.18-9.51,2.41-14.1,4.36-5.45,2.33-10.26,5.18-14.91,7.95-2.5,1.49-4.96,2.96-7.43,4.26-6.47,3.42-11.95,7.3-17.26,11.06l-8.32,5.76c-6.03,4.07-11.71,7.92-16.54,12.75-2.11,2.11-4.29,4.35-6.45,6.66.12-1.7.24-3.41.47-5.07ZM718.66,678.22c.3,2.81.58,5.62.58,11.23,0,8.62-1.49,17.37-2.92,25.83-1.28,7.49-3.38,15.18-6.84,24.95-3.47,9.8-6.67,17.1-10.39,23.66-1.5,2.66-2.91,5.51-4.36,8.46-2.11,4.26-4.28,8.67-6.98,12.86-2.02,3.14-4.7,6.26-7.54,9.56-2.56,2.97-5.18,6.02-7.58,9.33-2.03,2.81-3.9,5.82-5.79,8.9-2.35,3.82-4.78,7.76-7.61,11.24-3.28,4.05-6.93,7.95-10.66,11.93-1.84,1.97-3.71,3.96-5.54,5.99-5.99,6.59-11.1,12.08-16.63,17.51-3.27,3.21-6.92,6.19-10.79,9.35-2.52,2.06-5.07,4.14-7.57,6.32-2.75,2.41-5.33,5.09-7.93,7.8-3.16,3.29-6.15,6.4-9.48,9.01-3.12,2.42-6.78,4.47-10.66,6.64-3.36,1.89-6.76,3.8-9.96,6-3.13,2.15-6.08,4.66-9.05,7.19-3.38,2.9-6.59,5.65-10.06,7.74-3.63,2.17-7.66,3.97-11.92,5.87-3.31,1.48-6.63,2.96-9.86,4.65-2.44,1.28-4.86,2.61-7.3,3.95-4.58,2.51-9.32,5.12-14.11,7.26-6.31,2.83-12.85,5.3-19.78,7.9l-2.69,1.02c-2.92,1.11-5.83,2.33-8.76,3.56-4.5,1.89-9.16,3.84-13.79,5.3-3.83,1.19-7.99,1.89-12.4,2.62-3.78.63-7.6,1.27-11.07,2.14-.09.02-.18.04-.27.06-2.64-.64-5.29-1.21-7.92-1.77-4.85-1.04-9.44-2.02-13.81-3.4-4.28-1.34-8.39-3.18-12.73-5.14-3.22-1.44-6.4-2.86-9.64-4.08-3.14-1.19-6.32-2.25-9.47-3.3-4.69-1.56-9.11-3.04-13.26-4.9-4.24-1.9-8.25-4.24-12.49-6.73-2.89-1.69-5.77-3.36-8.69-4.89-3.47-1.81-7.11-3.3-10.71-4.77-4.1-1.67-7.98-3.25-11.35-5.27-3.45-2.08-6.62-4.81-9.96-7.72-2.86-2.49-5.82-5.05-9.09-7.28-5.99-4.11-11.73-8.59-17.28-12.9l-1.98-1.54c-3.31-2.57-6.76-4.66-10.09-6.69-3.7-2.25-7.18-4.36-10.02-6.85-3.64-3.18-7.07-6.83-10.38-10.35-2.21-2.34-4.39-4.66-6.64-6.87-2.25-2.21-4.55-4.35-6.82-6.47-3.8-3.53-7.37-6.86-10.56-10.35-3.05-3.36-5.79-7.2-8.44-10.9-2.05-2.86-4.08-5.7-6.24-8.34-2.25-2.76-4.57-5.41-6.86-7.99-3.19-3.61-6.2-7.02-8.73-10.53l-1.14-1.56c-4.62-6.38-8.99-12.4-12.73-18.23-2.49-3.84-4.36-8.07-6.18-12.15-1.49-3.34-2.93-6.54-4.57-9.45-3.95-6.97-7.38-14.67-10.52-23.51-2.95-8.37-5.08-16.53-6.57-25.28-1.49-8.73-2.88-16.98-2.88-25.39,0-6.77-.5-10.22-.99-13.55-.43-2.96-.84-5.76-.84-11.51s.42-8.54.86-11.49c.5-3.35,1.02-6.79,1.02-13.58,0-6.41-.14-9.62-.27-12.83-.13-3.06-.26-6.12-.26-12.23s.11-9.21.22-12.28c.12-3.2.24-6.4.24-12.8s-.43-10.12-.83-13.42c-.38-2.99-.73-5.83-.73-11.65s.41-8.58.83-11.54c.47-3.33.97-6.77.97-13.55,0-6.17.08-9.26.17-12.35,0-.32.02-.66.03-.99,2.63,2.19,5.27,4.35,8.08,6.3l1.9,1.32c6.03,4.2,12.25,8.54,18.93,11.87,8.08,4.01,15.51,7.13,22.72,9.53,7.49,2.5,15.5,4.59,23.78,6.21,6.4,1.25,12.61,1.63,18.63,1.99l5.7.38c6.29.48,13.44.98,20.5.98,1.28,0,2.55,0,3.81-.05l6.73-.13c6.13-.08,11.91-.16,17.55-.86,6.78-.83,12.9-2.29,18.3-3.59,1.91-.45,3.74-.89,5.5-1.28,3.92-.85,6.55-1.37,8.55-1.77,5.66-1.12,7-1.42,15.18-4.43,3.68-1.35,5.57-5.42,4.22-9.1-1.35-3.68-5.43-5.56-9.1-4.22-7.41,2.71-8.16,2.86-13.05,3.83-2.06.41-4.78.94-8.83,1.83-1.84.4-3.77.85-5.78,1.33-5.28,1.27-10.74,2.57-16.74,3.31-4.87.6-10.28.67-16.01.75-2.27.04-4.58.06-6.93.13-7.51.28-15.75-.34-22.82-.9l-5.93-.39c-5.55-.33-11.29-.68-16.76-1.76-7.69-1.5-15.1-3.43-22.01-5.74-6.59-2.19-13.42-5.06-20.89-8.77-5.74-2.86-11.27-6.72-17.13-10.8l-1.92-1.34c-5.52-3.83-10.77-8.55-16.07-13.46-.03-2.19-.08-3.94-.12-5.64-.07-3.09-.16-6.17-.16-12.36s-.08-9.56-.18-12.74c-.08-3.09-.17-6.17-.17-12.36s-.06-9.49-.12-12.65c-.02-1.32-.05-2.69-.06-4.24.85-.18,1.59-.3,2.47-.49,4.74-1.04,9.64-2.11,14.9-2.55,7.58-.61,16.01-.88,23.99-1.1,8.08-.22,16.17-.22,24.05-.02l4.11.1c6.52.16,13.22.31,19.92.89,7.75.67,15.86,1.92,23.78,3.15l6.31.93c5.78.82,11.76,1.68,17.29,3.03,4.84,1.16,9.58,3.04,14.61,5.03,2.6,1.03,5.18,2.05,7.78,2.98,2.35.83,4.71,1.6,7.08,2.37,5.42,1.76,10.54,3.42,15.06,5.75,5.02,2.59,9.33,6.77,13.91,11.22,1.79,1.74,3.59,3.47,5.42,5.11,7.64,6.85,12.83,12.54,16.8,18.47,4.89,7.29,8.74,14.81,11.48,22.35,2.87,7.98,4.79,16.22,5.66,24.51.43,3.9.47,7.87.53,11.88.06,3.7.12,7.41.41,11.11.28,3.57.72,7.13,1.16,10.67.51,4.1,1.03,8.18,1.23,12.24.18,3.59.5,7.13.81,10.64.38,4.2.76,8.32.83,12.33.08,4.46-.3,8.94-.67,13.26-.29,3.31-.55,6.52-.64,9.62l-.12,5.47c-.14,6.57-.25,12.25-.85,16.85-1.41,11,1.37,20.62,7.85,27.08,5.49,5.47,13.75,9.01,24.56,10.54,4.2.6,9.76,1.17,15.6,1.17,2.86,0,5.8-.14,8.69-.48,9.84-1.16,19.98-3.97,24.65-6.85,3.35-2.05,4.38-6.42,2.33-9.76-2.05-3.35-6.43-4.39-9.76-2.33-1.84,1.13-9.26,3.71-18.88,4.83-5.74.69-12.85.46-20.64-.64-7.6-1.08-13.32-3.34-16.52-6.54-3.34-3.32-4.65-8.59-3.79-15.2.69-5.35.81-11.39.96-18.38l.12-5.39c.07-2.83.32-5.76.58-8.78.41-4.69.82-9.53.73-14.74-.08-4.35-.48-8.81-.89-13.34-.3-3.32-.61-6.67-.78-10.07-.22-4.41-.77-8.83-1.32-13.28-.42-3.33-.83-6.66-1.09-10.02-.27-3.41-.31-6.82-.37-10.22-.06-4.45-.14-8.85-.6-13.17-1.01-9.42-3.17-18.78-6.44-27.84-3.12-8.61-7.5-17.16-13.03-25.41-4.67-6.96-10.56-13.48-19.12-21.14-1.69-1.52-3.34-3.12-5-4.74-5.12-4.96-10.41-10.09-17.29-13.65-5.55-2.86-11.47-4.77-17.19-6.63-2.25-.73-4.49-1.46-6.71-2.25-2.43-.86-4.87-1.83-7.32-2.79-5.25-2.08-10.68-4.23-16.49-5.63-6.18-1.51-12.5-2.41-18.61-3.29l-6.24-.91c-8.07-1.26-16.42-2.55-24.66-3.25-7.06-.61-14.04-.78-20.78-.94l-4.08-.1c-8.13-.2-16.49-.2-24.81.02-8.18.23-16.83.51-24.77,1.16-5.96.5-11.33,1.65-16.14,2.7.08-2.24.2-4,.33-5.7.23-3.26.46-6.52.46-13.05,0-2.82-.01-4.96-.03-6.8,3.99.39,5.8.41,12.54.43l5.3.03h.42c4.19,0,8.65-.42,13.36-.85,3.46-.32,7.12-.67,10.98-.87,2.94-.15,6.04-.02,9.27.1,4.7.2,10.06.41,15.61-.18l3.6-.38c6.72-.7,13.81-1.44,21.09-2.6,4.82-.77,9.27-2.52,13.58-4.22,3.53-1.4,6.88-2.71,10.24-3.43,2.95-.63,6.31-.77,9.87-.91,4.84-.19,9.84-.4,15-1.8,4.75-1.28,9.22-3.23,13.54-5.12,3.17-1.4,6.38-2.8,9.71-3.91,6.84-2.26,14.96-5.04,23.36-8.39,2.94-1.16,5.97-2.16,9.03-3.17,4.71-1.54,9.58-3.14,14.39-5.4,4.56-2.14,8.65-4.9,12.6-7.57,2.83-1.91,5.66-3.84,8.69-5.49,2.86-1.57,5.94-2.84,9.03-4.12,4.48-1.86,9.11-3.78,13.56-6.59,4.34-2.74,8.26-5.99,12.05-9.13,2.52-2.09,5.06-4.2,7.73-6.13,4.89-3.55,9.51-7.49,13.98-11.28l5.29-4.46c1.94-1.61,4.26-3.06,6.69-4.54,2.75,2.77,4.39,4,6.84,5.74,1.82,1.28,4.26,3.02,8.68,6.67,5.27,4.33,11.78,9.24,19.36,14.58,1.84,1.29,3.7,2.67,5.62,4.09,4.19,3.11,8.93,6.63,14.19,9.83,4.3,2.61,8.81,4.8,13.58,7.13,2.6,1.27,5.26,2.56,7.92,3.96,2.32,1.21,4.64,2.52,7,3.85,4.51,2.54,9.18,5.18,14.33,7.48,6.19,2.75,13.1,5.54,22.42,9.04,2.5.94,5.02,1.97,7.56,3.01,4.81,1.96,9.76,3.98,15.08,5.63,4.61,1.42,9.37,2.27,13.98,3.11,3.21.57,6.45,1.15,9.68,1.94,7.73,1.89,15.81,3.4,23.63,4.86,6.91,1.28,14.49,2.45,23.83,3.67,3.07.4,6.15,1.01,9.26,1.62,4.68.91,9.51,1.86,14.61,2.25,1.88.14,3.74.19,5.59.19,2.9,0,5.78-.13,8.59-.26,1.38-.07,2.79-.04,4.17-.1l.08,21.72c0,2.21.09,3.99.2,5.61-1.97-.12-3.95-.24-6.02-.34-3.28-.17-6.73-.33-10.31-.62-2.39-.2-4.84-.45-7.36-.7-5.65-.57-11.48-1.17-17.74-1.33-9-.22-17.24-.22-25.18,0-2.71.08-5.44.1-8.21.12-5.54.03-11.25.06-17.07.59-2.34.21-4.69.39-7.06.57-5.95.45-12.11.91-18.23,1.91-6.78,1.1-13.44,2.83-19.86,4.5l-5.02,1.28c-8,2.02-16.25,4.6-24.49,7.67-8.25,3.08-15.76,7.02-23.35,11.15-7.55,4.11-13.95,9.31-20.13,14.33l-1.04.84c-5.93,4.81-12.8,10.77-18.73,18.37l-2.34,2.97c-4.57,5.76-9.31,11.71-12.56,19.12-1.58,3.59.06,7.78,3.64,9.35.93.41,1.9.6,2.86.6,2.73,0,5.33-1.58,6.5-4.24,2.51-5.73,6.48-10.72,10.67-16l2.43-3.08c5.05-6.48,11.16-11.76,16.48-16.07l1.05-.85c5.94-4.83,11.55-9.4,17.94-12.87,7.13-3.86,14.14-7.57,21.53-10.31,7.76-2.89,15.51-5.31,23.01-7.21l5.11-1.32c6.12-1.59,12.43-3.23,18.57-4.22,5.54-.9,11.38-1.34,17.03-1.77,2.44-.18,4.86-.37,7.26-.58,5.23-.47,10.65-.51,15.88-.54,2.87-.02,5.73-.04,8.54-.12,7.67-.22,15.65-.22,24.41,0,5.73.14,11.29.71,16.67,1.26,2.61.26,5.15.52,7.63.73,3.75.3,7.35.48,10.77.65,3.02.15,5.85.33,8.55.55.06,1.12.1,2.36.1,3.87,0,5.66-.23,8.5-.47,11.34-.26,3.12-.52,6.25-.52,12.5,0,5.54-.31,8.24-.66,11.1-.37,3.14-.75,6.38-.75,12.76,0,3.24.18,5.71.44,7.79l-2.9,2.72c-4.63,4.37-9,8.49-13.67,11.74-5.82,4.03-12.24,7.22-18.46,10.29l-1.28.63c-1.88.93-3.73,1.89-5.57,2.86-5.14,2.66-9.99,5.18-14.9,6.82-5.82,1.94-12.05,3.11-18.07,4.24l-4.09.78c-8.36,1.64-15.74,2.69-22.53,3.21l-5.28.43c-6.21.53-11.99,1.03-17.59.88-8.36-.24-16.26-1.11-22.89-1.92-9.13-1.13-17.29-2.81-22.64-3.96-10.97-2.38-11.18-2.47-16.63-4.53l-5.03-1.88c-3.71-1.36-7.76.54-9.11,4.21-1.35,3.69.54,7.76,4.21,9.11l4.91,1.83c6.17,2.33,6.91,2.57,18.63,5.11,5.62,1.23,14.2,2.99,23.92,4.19,6.96.86,15.27,1.77,24.23,2.03.79.02,1.59.03,2.38.03,5.56,0,11.27-.48,16.8-.95l5.16-.43c7.36-.56,15.26-1.68,24.18-3.43l3.98-.76c6.5-1.22,13.21-2.49,19.94-4.73,5.96-1.99,11.54-4.89,16.94-7.69,1.77-.91,3.56-1.84,5.36-2.74l1.26-.63c6.67-3.31,13.57-6.72,20.24-11.35,3.75-2.61,7.19-5.61,10.54-8.68-.08,4.29-.49,6.65-.97,9.21-.59,3.1-1.27,6.61-1.27,13.23s.39,9.63.77,12.77c.34,2.85.67,5.54.67,11.08,0,6.08.1,9.12.2,12.16.09,2.93.19,5.86.19,11.71s-.06,8.85-.11,11.81c-.06,3.01-.11,6.03-.11,12.07,0,5.54-.33,8.22-.68,11.07-.39,3.15-.79,6.4-.79,12.81,0,5.88-.08,8.82-.17,11.76-.08,3.04-.17,6.08-.17,12.16s.33,9.57.66,12.69ZM100.06,336.71c3.11-5.98,8.95-11.81,14.59-17.46,3.87-3.87,9.02-7.36,14.46-11.04l8.56-5.91c2.93-2.07,5.96-4.14,9.09-6.14.11,1.91.26,3.5.41,5.06.28,2.98.55,5.96.55,11.92s-.41,8.59-.84,11.56c-.48,3.35-.98,6.8-.98,13.6s.29,9.88.57,13.18c.27,2.98.53,5.97.53,11.94,0,6.36.07,9.54.15,12.72.07,3.1.15,6.19.15,12.39s.06,9.52.13,12.7c.06,3.1.13,6.2.13,12.41s-.21,9.03-.43,12.03c-.23,3.26-.46,6.52-.46,13.04,0,1.03,0,1.85,0,2.72.01.24-.07.47-.03.71,0,.04.03.06.04.1.02,4.06.06,6.63.11,9.12.06,3.1.11,6.2.11,12.39s.08,9.56.18,12.74c.08,3.09.17,6.17.17,12.36s.08,9.55.17,12.73c.07,3.09.16,6.17.16,12.36s-.08,9.26-.17,12.35c-.09,3.19-.18,6.37-.18,12.73,0,5.76-.41,8.57-.83,11.53-.47,3.33-.97,6.77-.97,13.56s.43,10.11.83,13.41c.38,2.99.73,5.83.73,11.66,0,6.14-.11,9.21-.22,12.28-.12,3.2-.24,6.4-.24,12.8s.14,9.61.27,12.82c.13,3.06.26,6.12.26,12.24,0,5.74-.42,8.53-.86,11.48-.5,3.35-1.02,6.79-1.02,13.59s.5,10.23.99,13.56c.43,2.96.84,5.75.84,11.5,0,.21.02.42.02.63-.28.76-.49,1.55-.49,2.41l-.02,23.68c0,5.88-.04,8.82-.06,11.76-.04,2.98-.07,5.96-.07,11.93l.05,31.9c-4.2-1.87-8.5-3.9-13.25-6.38l-3.12-1.63c-5.98-3.1-11.62-6.02-16.68-9.43-5.57-3.75-11.32-8.17-17.54-13.48.07-1.75.16-3.18.25-4.59.2-3.16.41-6.32.41-12.64l-.07-24.38c0-6.45-.34-9.74-.67-12.91-.31-2.94-.6-5.72-.6-11.44s.19-8.8.38-11.73c.21-3.16.42-6.33.42-12.65,0-5.93.13-8.9.26-11.88.13-3.12.27-6.25.27-12.49l.04-24.39c0-6.14-.04-9.2-.07-12.27-.03-3.02-.06-6.05-.06-12.11,0-6.41-.3-9.62-.58-12.83-.27-2.89-.53-5.79-.53-11.56s.07-9.02.14-12.03c.07-3.09.15-6.18.15-12.36s.03-9.08.06-12.11c.03-3.06.06-6.12.06-12.24s-.16-9.41-.31-12.54c-.15-2.97-.3-5.92-.3-11.84s.08-9.01.16-12.01c.08-3.1.17-6.19.17-12.39,0-5.83.23-8.74.45-11.65.25-3.19.5-6.38.5-12.75s-.19-9.48-.39-12.65c-.18-2.94-.37-5.88-.37-11.76s-.04-9.22-.06-12.3c-.04-3.04-.06-6.08-.06-12.15s.14-8.93.27-11.9c.12-2.53.23-5.13.27-9.3.52-.99.9-2.07.9-3.26v-2.87c0-3.13,0-6.17.04-9.18.73-3.28,1.76-6.27,3.16-8.96ZM718.48,287.99v19.72c0,6.16.19,9.24.38,12.33.17,2.86.34,5.74.34,11.49s-.15,8.68-.29,11.57c-.16,3.07-.3,6.14-.3,12.28s.37,9.59.72,12.72c.32,2.86.63,5.54.63,11.1s-.41,8.06-.83,10.86c-.04.28-.09.6-.13.89-1.9.05-3.81.04-5.69.12-4.36.2-8.49.4-12.44.09-4.28-.32-8.49-1.15-12.97-2.02-3.41-.67-6.79-1.32-10.16-1.77-9.08-1.17-16.41-2.3-23.06-3.54-7.63-1.42-15.52-2.89-22.85-4.69-3.51-.86-7.06-1.51-10.56-2.13-4.37-.79-8.5-1.52-12.29-2.7-4.71-1.45-9.38-3.36-13.89-5.2-2.68-1.1-5.32-2.17-7.95-3.16-9.04-3.39-15.71-6.08-21.62-8.71-4.55-2.03-8.92-4.49-13.15-6.88-2.5-1.41-4.94-2.79-7.4-4.08-2.78-1.45-5.55-2.81-8.27-4.13-4.47-2.18-8.7-4.23-12.43-6.5-4.71-2.86-8.98-6.03-13.11-9.09-2.01-1.5-3.96-2.95-5.9-4.31-7.3-5.14-13.52-9.82-18.5-13.93-4.83-3.99-7.5-5.89-9.5-7.31-1.21-.85-2.08-1.49-3.06-2.34.66-.55,1.36-.98,1.99-1.58,4.32-4.09,8.4-8.59,12.33-12.94l4.83-5.3c4.12-4.45,7.98-9.26,11.71-13.92l4.28-5.3c1.96-2.4,4.08-4.72,6.2-7.06,3.26-3.59,6.61-7.31,9.65-11.46.2,0,.4.02.6.02,4.41.04,8.57.07,12.59.5,4.03.43,8.06,1.39,12.32,2.4,3.96.94,7.9,1.87,11.87,2.41,8.25,1.13,16.33,2.28,24.27,3.62,4.32.73,8.53.96,12.61,1.17,4.24.23,8.25.44,11.94,1.2,4.67.96,9.2,2.29,13.67,3.59,3.38.99,6.73,1.97,10.07,2.79,4.33,1.06,8.49,2.58,12.89,4.2,3.47,1.27,6.9,2.51,10.36,3.53,4.25,1.25,8.44,1.9,12.49,2.54,4.19.66,8.13,1.28,11.55,2.48,4.01,1.41,7.79,3.54,11.79,5.79,3.36,1.89,6.67,3.72,10.06,5.18,3.24,1.38,6.52,2.58,9.72,3.74,1.55.57,3.01,1.13,4.49,1.7ZM505.02,243.05c-2.29,2.52-4.57,5.04-6.69,7.62l-4.36,5.42c-3.73,4.67-7.26,9.08-11.03,13.13l-4.94,5.42c-3.93,4.33-7.64,8.44-11.57,12.15-2.74,2.6-6.23,4.69-9.91,6.91-3.37,2.02-6.86,4.12-10.07,6.78l-5.42,4.57c-4.46,3.79-8.68,7.38-13.13,10.61-2.91,2.12-5.68,4.4-8.43,6.68-3.61,2.98-7.01,5.8-10.6,8.07-3.41,2.16-7.29,3.77-11.4,5.48-3.56,1.48-7.1,2.96-10.4,4.77-3.41,1.86-6.63,4.02-9.82,6.18-3.66,2.48-7.12,4.81-10.67,6.48-4.04,1.89-8.29,3.29-12.8,4.77-3.34,1.1-6.64,2.2-9.84,3.47-8.07,3.21-15.94,5.9-22.59,8.1-3.75,1.25-7.36,2.81-10.92,4.37-4.03,1.76-7.83,3.42-11.57,4.44-3.61.98-7.61,1.14-11.85,1.31-4,.16-8.14.32-12.27,1.21-4.52.96-8.57,2.56-12.49,4.11-3.75,1.48-7.3,2.87-10.59,3.4-7.02,1.12-13.85,1.82-20.33,2.5l-3.62.38c-4.52.49-9.09.3-13.57.12-3.65-.15-7.18-.26-10.56-.1-4.07.21-7.92.57-11.56.91-4.51.42-9.03.74-12.36.79l-5.33-.03c-7.02-.02-8.13-.03-12.81-.53,0-1.19-.01-2.5-.01-4.01,0-6.37-.07-9.55-.15-12.73-.07-3.1-.15-6.19-.15-12.38,0-6.59-.29-9.88-.57-13.18-.27-2.98-.53-5.97-.53-11.94s.41-8.59.84-11.57c.48-3.35.98-6.79.98-13.59s-.3-9.93-.62-13.23c-.28-2.98-.55-5.96-.55-11.92,0,0,0,0,0-.01.23-.14.46-.26.69-.39,4.24-2.52,8.64-5.13,13.22-7.08,3.58-1.52,7.68-2.57,12.03-3.67,3.78-.96,7.62-1.94,11.4-3.27,3.23-1.14,6.43-2.47,9.68-3.83,4.28-1.78,8.7-3.63,13.14-4.93,3.75-1.1,7.85-1.74,12.18-2.41,3.96-.62,7.97-1.26,11.92-2.23,3.25-.79,6.51-1.72,9.79-2.64,4.56-1.28,9.16-2.6,13.92-3.58,3.42-.69,6.84-1.54,10.29-2.39,4.49-1.11,9.04-2.25,13.7-3.03,6.54-1.11,13.23-2.01,20.01-2.93l4.3-.58c3.86-.53,7.94-.59,12.24-.67,4.11-.06,8.24-.14,12.37-.57,3.61-.39,7.24-.93,10.88-1.48,4.47-.67,8.97-1.35,13.54-1.7,3.77-.3,7.55-.79,11.34-1.3,4.35-.58,8.73-1.17,13.16-1.4,5.02-.26,10.09-.31,15.18-.37,3.15-.04,6.32-.07,9.49-.15,4.35-.1,8.71.1,13.11.31,12.09.55,24.27.37,36.2.67,3.69.07,7.33.06,10.97.05,4.59-.03,9.17-.06,13.68.17,4.83.25,9.62.75,14.38,1.24,1.35.14,2.69.25,4.04.38-.85.95-1.67,1.89-2.56,2.86ZM772.5,752.46c-6.32,4.42-13.34,8.7-20.87,12.71-5.87,3.12-11.98,5.73-17.73,8.06.04-2.44.08-5.13.08-9.93,0-5.39.03-8.09.05-10.78.03-2.73.06-5.45.06-10.91s-.04-8.2-.07-10.92c-.04-2.69-.07-5.37-.07-10.74s-.04-8.2-.08-10.93c-.04-2.68-.07-5.37-.07-10.73,0-.99-.21-1.93-.58-2.79.12-2,.23-4,.23-6.04,0-6.35-.33-9.57-.66-12.69-.3-2.81-.58-5.62-.58-11.23,0-5.89.08-8.83.17-11.77.08-3.04.17-6.07.17-12.15,0-5.54.33-8.22.68-11.07.39-3.15.79-6.4.79-12.81,0-5.91.06-8.85.11-11.81.06-3.01.11-6.03.11-12.07s-.1-9.13-.2-12.18c-.09-2.92-.19-5.84-.19-11.69,0-6.4-.39-9.64-.77-12.78-.34-2.85-.67-5.54-.67-11.07s.47-7.74,1.01-10.57c.59-3.1,1.27-6.62,1.27-13.24s-.76-10.27-1.42-13.4c-.59-2.82-1.11-5.24-1.11-10.46,0-5.54.31-8.24.66-11.1.37-3.14.75-6.38.75-12.76,0-5.66.23-8.5.47-11.34.26-3.12.52-6.25.52-12.5,0-6.59-.62-10.09-1.17-13.18-.51-2.86-.95-5.34-.95-10.68l-.08-23.83c0-5.42.41-8.06.83-10.84.47-3.05,1-6.51,1-13.01s-.37-9.58-.72-12.7c-.32-2.86-.63-5.56-.63-11.12s.15-8.69.29-11.58c.16-3.07.3-6.14.3-12.27s-.18-9.25-.37-12.34c-.17-2.86-.34-5.74-.34-11.48v-12.91c5.42,2.94,10.52,5.82,14.89,8.84,6.34,4.38,12.44,9.48,18.11,15.16,5.42,5.43,8.83,12.01,12.36,18.82,3.31,6.36,4.85,12.74,4.85,20.09,0,1.44.54,2.71,1.28,3.83-.01,3.81-.04,6.23-.07,8.62-.05,3.16-.08,6.31-.08,12.62l-.06,25.07c0,6.3.05,9.45.08,12.61.05,3.11.08,6.21.08,12.42s-.05,9.31-.09,12.4c-.06,3.16-.1,6.31-.1,12.62,0,.37.16.7.21,1.06-.06,2.38-.15,4.22-.25,5.99-.17,3.17-.34,6.35-.34,12.7s.22,9.61.44,12.81c.21,2.96.42,5.91.42,11.83s-.14,8.98-.28,11.98c-.14,3.15-.29,6.31-.29,12.61s.06,9.33.13,12.45c.06,3.04.13,6.07.13,12.14s.09,9.39.19,12.52c.09,3.01.18,6.03.18,12.07s-.16,8.94-.3,11.91c-.17,3.16-.33,6.32-.33,12.64s.06,9.32.14,12.42c.06,3.02.13,6.05.13,12.11s-.14,8.96-.29,11.96c-.15,3.15-.3,6.31-.3,12.62l-.04,24.56c0,6.26.1,9.39.2,12.51.09,3.01.19,6.03.19,12.04s.11,9.41.21,12.54c.11,3,.21,6.02.21,12.03s-.05,9.12-.09,12.16c-.04,2.23-.07,4.49-.09,7.87-4.09,3.42-7.92,6.4-11.65,9ZM160.61,753.27c2.53,6.17,5.18,12.02,8.18,17.34,1.44,2.54,2.68,5.34,3.97,8.24,1.94,4.36,4.14,9.31,7.21,14.06,1.38,2.16,2.91,4.34,4.41,6.51-4.14-2.96-8.4-5.9-12.86-8.76-3.5-2.24-7.2-4.17-10.88-6.03v-21.07s-.03-10.3-.03-10.3ZM699.69,792.89c3.13-4.87,5.59-9.86,7.76-14.26,1.34-2.71,2.62-5.32,4-7.75,3.01-5.33,5.69-11.05,8.38-17.86-.02,2.53-.05,5.23-.05,10.28,0,5.36-.05,8.04-.1,10.72-.05,2.74-.1,5.49-.1,10.98,0,.02,0,.03,0,.04-3.91,2.34-7.62,4.65-10.91,6.77l-5.21,3.28c-3.72,2.33-7.49,4.77-11.16,7.34,2.6-3.03,5.2-6.15,7.38-9.54ZM126.53,215.28c2.4-5.65,4.67-10.97,7.35-16.12,1.98-3.82,4.5-7.44,7.17-11.27,1.94-2.79,3.88-5.58,5.65-8.47,1.72-2.83,3.29-5.74,4.87-8.65,2.25-4.18,4.38-8.11,6.91-11.7,3.15-4.45,6.65-8.64,10.35-13.07l4.36-5.27c1.68-2.06,3.32-4.16,4.96-6.26,3.32-4.24,6.45-8.26,9.92-11.96,5.99-6.41,11.02-11.72,16.49-16.82,3.23-3.03,6.88-5.7,10.74-8.54,2.64-1.94,5.28-3.88,7.81-5.93,2.21-1.8,4.37-3.66,6.53-5.52,3.94-3.38,7.65-6.58,11.63-9.4l3.75-2.67c5.1-3.62,10.36-7.38,15.67-10.62l1.15-.7c6.27-3.81,12.74-7.75,19.24-11.13,3.81-1.97,7.96-3.49,12.36-5.1,3.2-1.16,6.39-2.34,9.5-3.7,4.6-2,9.38-3.59,14.44-5.26,2.55-.85,5.11-1.69,7.66-2.6,2.83-1.02,5.63-2.13,8.43-3.23,4.66-1.85,9.06-3.59,13.59-4.85,6.38-1.78,12.83-3.11,19.66-4.51l3.23-.67c3.49-.72,6.95-1.73,10.42-2.74,4.32-1.27,8.41-2.47,12.47-3.02,3.78-.52,7.87-.38,12.22-.2,3.81.14,7.63.27,11.39,0l3.26-.22c6.62-.44,13.46-.91,20.17-.91h3.55c6.93,0,13.43-.03,19.93.41l4.6.3c6.53.42,12.7.81,18.82,1.64,6,.82,12.11,2.12,18.02,3.37l5.06,1.06c3.21.67,6.45,1.17,9.68,1.68,4.74.74,9.22,1.44,13.47,2.63,4.15,1.16,8.21,2.88,12.5,4.72,3.14,1.34,6.27,2.67,9.47,3.81,7.6,2.7,15.2,5.97,21.74,8.82,3.11,1.36,6.32,2.53,9.53,3.71,4.38,1.6,8.52,3.11,12.32,5.08,5.13,2.66,10.24,5.83,15.19,8.89l5.05,3.11c3.84,2.34,7.46,5.15,11.27,8.11,2.53,1.97,5.07,3.94,7.68,5.79,2.07,1.46,4.16,2.89,6.24,4.32,4.55,3.11,8.83,6.03,12.87,9.32,4.84,3.95,9.33,8.19,14.09,12.67l3.3,3.1c5.29,4.94,10.15,10.14,15.29,15.65l1.07,1.15c6.15,6.6,11.08,12.19,15.49,17.6,2.38,2.93,5.1,5.62,7.83,8.3,3.09,3.03,6.01,5.9,8.22,9.03,2.4,3.4,4.38,7.25,6.48,11.31,1.63,3.13,3.25,6.27,5.07,9.26,1.77,2.93,3.75,5.76,5.72,8.59,2.67,3.81,5.18,7.4,7.14,11.18,3.56,6.87,6.77,14.25,9.89,21.4.64,1.47,1.15,2.76,1.74,4.18-.21-.19-.42-.39-.63-.57-7.08-6.31-13.93-11.51-20.94-15.89l-3.69-2.33c-5.83-3.7-11.86-7.52-18.8-10.8-4.7-2.21-9.72-3.58-14.57-4.9-3.32-.91-6.71-1.82-10.03-3.05-2.91-1.08-5.8-2.38-8.74-3.69-4.71-2.11-9.59-4.29-15.01-5.9-2.65-.79-5.32-1.64-8.02-2.52-5.27-1.69-10.72-3.45-16.48-4.83-4.87-1.16-9.9-1.9-14.76-2.62-3.43-.5-6.9-1-10.38-1.67-4.81-.93-9.7-1.41-14.44-1.88-3.58-.35-7.19-.7-10.8-1.26-8.16-1.27-16.53-2.28-25.13-3.33-8.21-1-16.58-1.77-25.16-2.57-3.58-.33-7.16-.94-10.78-1.56-4.6-.79-9.37-1.6-14.34-1.92-3.46-.23-6.92-.58-10.42-.92-4.91-.49-9.86-.98-14.88-1.19-4.75-.19-9.4.2-13.9.58-3.98.33-7.76.69-11.49.58-5.95-.12-11.96-.09-18.03-.07l-7.27.02c-3.62,0-7.23-.18-10.8-.34-4.37-.2-8.7-.42-13.01-.33-4.63.07-9.2.4-13.74.71-3.37.24-6.74.48-10.06.59-3.57.13-7.11.07-10.64.04-4.43-.06-8.82-.1-13.15.13-4.66.27-9.23.8-13.77,1.34-3.34.4-6.65.79-9.94,1.05l-6.16.47c-5.94.44-11.8.89-17.56,1.49-3.23.34-6.42.59-9.58.85-4.78.38-9.49.77-14.1,1.39-5.36.72-10.6,1.68-15.76,2.63-2.62.48-5.2.96-7.76,1.4-8.09,1.35-15.87,2.96-23.45,4.56l-5.89,1.21c-6,1.22-11.85,2.41-17.51,3.89l-2.61.67c-7.11,1.84-14,3.63-20.57,5.75l-3.89,1.26c-6.63,2.13-12.87,4.13-18.95,6.6-5.86,2.38-11.08,5.24-16.13,8-1.87,1.03-3.72,2.03-5.55,2.99-2.63,1.38-5.33,2.57-7.98,3.74-4.74,2.1-9.64,4.27-14.03,7.34-4.96,3.47-9.08,7.5-12.86,11.34.04-.08.08-.17.12-.25l2.29-5.33ZM48.14,547.01l-.8-1.47c-3.81-6.96-7.39-13.53-10.23-20.21-3.29-7.72-5.95-15.57-8.33-22.91-2.8-8.66-4.9-17.14-6.4-23.57-2.08-8.84-3.89-16.75-5-23.94-1.11-7.2-1.7-13.8-2.13-19.44,5.87,6.31,11.9,11.88,18.33,16.93,6.4,5.05,13.45,9.35,20.9,13.91l3.48,2.13c6.95,4.26,14.51,8.81,22.9,13.57.03,4.81.16,7.67.3,10.41.15,2.97.3,5.92.3,11.84s-.03,9.08-.06,12.11c-.03,3.06-.06,6.12-.06,12.24s-.07,9.02-.14,12.03c-.07,3.09-.15,6.18-.15,12.36s.3,9.63.58,12.85c.27,2.88.53,5.77.53,11.54,0,6.14.04,9.2.07,12.27.01,1.32.03,2.68.04,4.25-2.22-2.3-4.45-4.62-6.65-7.12-5.94-6.75-11.01-13.79-14.75-19.17-4.6-6.62-8.88-13.55-12.73-20.6ZM52.26,688.23c-3.89-6.55-7.49-13.31-10.68-20.07-3.12-6.62-6-13.5-9.09-21.85-2.69-7.27-5.23-14.14-7.12-20.85-2.53-8.98-4.29-16.05-5.54-22.27-1.69-8.34-2.71-16.28-3.52-22.66-.53-4.16-.97-8.16-1.32-11.87,2.77,2.9,5.81,5.86,9.21,8.97,6.49,5.95,13.41,10.99,18.71,14.7,6.18,4.34,12.63,8.52,19.73,12.75,6.04,3.62,12.55,7.35,19.63,11.32l-.02,9.72c0,5.94-.13,8.91-.26,11.88-.13,3.12-.27,6.25-.27,12.49,0,5.87-.19,8.8-.38,11.73-.21,3.16-.42,6.33-.42,12.65s.34,9.75.67,12.92c.31,2.94.6,5.72.6,11.43l.07,24.38c0,1.89-.02,3.4-.06,4.78-1.16-1.17-2.27-2.32-3.34-3.46-4.81-5.15-9.08-10.91-13.22-16.5l-.92-1.24c-4.12-5.54-8.1-11.56-12.49-18.96ZM65.14,847.13c-5.09-6.83-9.24-12.97-12.69-18.78l-2.2-3.67c-3.34-5.54-6.49-10.76-9.03-16.13-3.11-6.57-6.08-13.65-8.83-21.04-2.38-6.43-4.59-13.35-6.97-21.78-1.56-5.55-2.62-11.14-3.63-16.53l-1.13-5.88c-1.69-8.3-2.76-16.07-3.59-22.58l-.39-3.01c-.37-2.91-.73-5.68-1.04-8.26,2.03,1.93,4.08,3.76,6.1,5.57l2.99,2.69c5.02,4.57,11.15,9.93,18.53,15.1,5.11,3.57,10.57,6.8,16.35,10.22l3.7,2.2c2.56,1.52,5.11,3.23,7.74,4.98,3.74,2.5,7.65,5.11,11.95,7.51,3.18,1.78,6.58,3.43,10.09,5.14,3.44,1.66,7,3.38,10.57,5.37,2.98,1.66,5.91,3.61,8.95,5.62,3.37,2.23,6.86,4.53,10.62,6.65,2.54,1.43,5.18,2.87,7.86,4.35,3.96,2.17,8.06,4.42,12.46,6.97,2.54,1.36,5.09,2.63,7.62,3.9,4.54,2.26,8.82,4.41,12.68,6.88,6.66,4.26,12.99,8.68,18.82,13.12,4.08,3.11,7.86,6.77,11.53,10.3,1.8,1.73,3.58,3.45,5.38,5.09,1.96,1.8,3.96,3.53,5.93,5.25,3.96,3.44,7.7,6.68,10.87,10.2,5.21,5.77,10.08,11.71,14.47,17.65,3.97,5.39,7.95,11.46,12.5,19.1,3.89,6.55,7.15,13.5,10.34,20.31,3,6.4,5.81,13.3,8.61,21.09,2.78,7.81,5.24,14.83,7.02,21.74,2.29,8.86,3.85,15.97,4.93,22.37,1.16,6.81,2.07,14.25,2.81,22.75.83,9.67,1.23,16.73,1.28,22.92.04,4.59-.15,9.09-.41,13.33-2.41-5.69-5.35-11.16-8.4-16.69-4.55-8.23-9.15-15.29-14.07-21.56-5.78-7.38-11.33-13.67-16.99-19.19-6.24-6.09-12.69-11.74-19.17-16.79-5.49-4.28-11.5-8.07-17.31-11.74l-3.78-2.39c-2.39-1.52-4.73-3.16-7.1-4.81-4.44-3.1-9.01-6.29-14.16-9-6.06-3.21-12.51-6-18.75-8.71l-4.47-1.93c-6.36-2.51-12.42-5.68-18.29-8.75l-2.13-1.12c-6-3.13-13.01-6.93-19.55-11.33-5.84-3.94-11.7-8.43-17.91-13.73-5.42-4.63-10.73-9.76-16.24-15.68-5.42-5.81-10.17-11.48-14.51-17.31ZM784.24,1240.16c-.36,5.23-1.16,10.4-2,15.87-.39,2.5-.77,5-1.11,7.49l-.81,6.33c-.75,5.91-1.45,11.5-2.58,16.97-.95,4.61-2.39,9.15-3.92,13.94-.92,2.89-1.84,5.78-2.65,8.68-1.24,4.45-2.98,8.76-4.81,13.34-1.16,2.88-2.31,5.77-3.35,8.69-1.01,2.84-1.92,5.7-2.83,8.57-1.52,4.79-2.97,9.31-4.83,13.6-1.31,3-2.48,6.08-3.64,9.16-1.7,4.48-3.3,8.71-5.34,12.62-3.87,7.47-7.41,14.18-11.37,20.65-2.98,4.9-6.48,9.75-9.86,14.45l-3.54,4.95c-4.92,6.95-10.26,13.61-14.35,18.65l-2.83,3.47c-3.96,4.91-8.07,9.98-12.34,14.56-2.82,3.01-6.16,5.68-9.7,8.51-2.79,2.23-5.56,4.45-8.17,6.88-6.35,5.94-12.11,11-17.6,15.47-7.29,5.94-13.03,10.34-18.6,14.29-2.51,1.77-4.95,3.64-7.4,5.51-3.96,3.02-7.68,5.88-11.65,8.29-5.17,3.15-10.53,5.9-16.2,8.81l-4.52,2.32c-6.52,3.39-13.46,6.68-21.23,10.06-7.09,3.08-14.41,6.26-21.77,8.87l-5.96,2.16c-5.34,1.95-10.86,3.97-16.3,5.49-8.51,2.38-15.99,4.23-22.85,5.66-4.05.83-8.34,1.11-12.89,1.4-3.53.23-7.06.46-10.56.93-3.56.49-7.11,1.28-10.66,2.08-4.36.98-8.48,1.91-12.53,2.19-5.03.33-10.14.24-15.57.12-7.07-.12-13.99-.29-21.54-1.23-3.3-.41-6.6-.8-9.9-1.03-8.39-.57-15.93-1.13-23.34-2.13-2.89-.4-5.79-.71-8.67-1.02-5.11-.55-9.93-1.07-14.64-2.04-3.15-.66-6.33-1.16-9.52-1.67-4.81-.78-9.34-1.5-13.64-2.7-3.73-1.05-7.43-2.84-11.35-4.73-3.43-1.66-6.85-3.3-10.39-4.57-3.23-1.15-6.54-2.1-9.85-3.05-4.45-1.28-8.66-2.48-12.55-4.17-6.46-2.81-12.91-6.16-19.16-9.41l-2.56-1.32c-6.69-3.48-13.61-7.08-20.02-10.98-3.8-2.31-7.36-5.11-11.13-8.07-2.58-2.01-5.15-4.03-7.81-5.91-5.04-3.56-9.74-7.42-14.71-11.51l-7.8-6.35c-4.88-3.93-9.49-7.64-13.85-11.72-4.52-4.22-8.67-8.7-13.07-13.44l-3.21-3.46c-1.95-2.08-3.96-4.11-5.96-6.15-3.63-3.68-7.07-7.15-10.14-10.92-4.83-5.93-9.2-12.11-13.97-18.88-4.29-6.05-8.19-12.25-12.73-19.69-1.68-2.77-3.51-5.47-5.33-8.17-2.69-3.98-5.23-7.74-7.28-11.68-2.21-4.26-4.01-8.77-5.92-13.55-1.08-2.71-2.17-5.42-3.34-8.09-1.34-3.1-2.87-6.12-4.41-9.15-2.13-4.18-4.13-8.12-5.57-12.2-2.45-6.87-4.5-14.2-6.49-21.3l-.34-1.24c-1.19-4.24-1.89-8.71-2.62-13.43-.51-3.24-1.02-6.5-1.68-9.71-.69-3.35-1.6-6.68-2.52-10.01-1.23-4.47-2.38-8.69-2.97-12.92-.68-5.05-.94-10.2-1.21-15.66-.13-2.61-.26-5.22-.43-7.84-.38-5.6-.32-11.23-.27-17.2l.04-6.31c0-1.18-.36-2.24-.86-3.21.02-5.53.23-8.5.45-11.39.25-3.29.5-6.58.5-13.16s-.13-9.68-.27-12.91c-.12-3.09-.25-6.17-.25-12.34s-.09-9.61-.18-12.82c-.09-3.1-.18-6.19-.18-12.39s.2-9.09.41-12.12c.21-3.27.43-6.53.43-13.08s-.09-9.61-.19-12.81c-.09-3.1-.18-6.19-.18-12.38s-.06-9.55-.13-12.73c-.06-3.11-.13-6.22-.13-12.44s-.05-9.5-.09-12.67c-.05-3.11-.09-6.24-.09-12.47s.22-9.06.44-12.08c.24-3.28.48-6.55.48-13.11s-.21-9.78-.42-13.04c-.19-3.03-.39-6.06-.39-12.13s.19-9.11.38-12.14c.2-3.25.41-6.52.41-13.02s-.12-9.64-.23-12.85c-.11-3.08-.22-6.16-.22-12.33s.14-9.19.29-12.24c.15-3.23.3-6.46.3-12.92s-.15-9.67-.29-12.89c0-.13-.01-.27-.02-.41,3.32,2.55,6.59,4.93,9.86,7.14,7.11,4.79,14.56,8.83,20.91,12.14l2.12,1.11c5.3,2.77,10.81,5.55,16.55,8,.03,4.48.13,7.2.23,9.81.12,2.95.23,5.89.23,11.78s-.04,8.98-.07,11.98c-.05,3.04-.08,6.08-.08,12.16s-.1,8.85-.2,11.8c-.11,3.08-.21,6.15-.21,12.31s.16,9.32.31,12.43c.15,2.93.3,5.85.3,11.71s-.06,8.95-.11,11.94c-.06,3.05-.11,6.1-.11,12.2s.1,9.22.21,12.3c.1,2.95.2,5.9.2,11.79l-.06,24.12c0,5.91-.11,8.85-.22,11.81-.12,3.09-.24,6.16-.24,12.34s-.03,9.01-.06,12c-.04,3.04-.06,6.08-.06,12.15s-.05,8.97-.1,11.96c-.05,3.05-.1,6.1-.1,12.2s.19,9.41.39,12.54c.18,2.92.36,5.83.36,11.66s-.16,8.79-.3,11.73c-.17,3.11-.33,6.23-.33,12.47,0,1.64.65,3.08,1.58,4.28.09,6.64.36,13.39.96,20.6l.4,5.25c.45,6.17.93,12.55,1.98,18.88.37,2.25.7,4.49,1.04,6.75.83,5.63,1.69,11.46,3.14,17.21,1.83,7.2,4.22,14.15,6.55,20.88l.79,2.3c.71,2.09,1.4,4.19,2.08,6.28,1.79,5.49,3.64,11.16,6.06,16.67,2.39,5.42,5.28,10.51,8.06,15.43,1.14,2.01,2.27,4.01,3.37,6.03,3.11,5.74,6.67,11.1,10.12,16.28l2.81,4.25c1.63,2.49,3.11,5.07,4.59,7.66,2.49,4.33,5.06,8.82,8.32,13,5.39,6.89,10.52,12.98,15.7,18.61,3.55,3.85,7.53,6.98,11.39,10,2.42,1.9,4.85,3.8,7.1,5.87,5.19,4.78,11.43,10.4,18.36,15.8,2.23,1.74,4.39,3.58,6.54,5.42,3.9,3.33,7.94,6.76,12.48,9.74,4.45,2.9,9.12,5.11,13.64,7.24,2.68,1.27,5.36,2.52,7.97,3.94l1.86,1.01c6.31,3.44,12.85,6.99,19.74,10.03,7.01,3.07,14.52,6.29,22.5,9.03,2.31.79,4.61,1.65,6.91,2.5,5.17,1.91,10.5,3.89,16.12,5.3,8.78,2.23,16.57,3.89,23.83,5.1,5.79.96,11.62,1.32,17.26,1.68,2.32.15,4.66.3,6.98.48l3.01.25c6.88.58,14,1.17,21.25,1.17,5.51,0,10.8-.66,15.92-1.28,2.76-.34,5.52-.68,8.27-.91,2.38-.18,4.75-.33,7.11-.48,5.57-.35,11.33-.7,17.09-1.65,8.87-1.48,16.26-2.75,23.84-4.67,5.6-1.42,10.89-3.38,16.01-5.29,2.34-.87,4.67-1.73,7.01-2.54,7.27-2.5,15.02-5.22,22.67-8.59,8.84-3.88,15.58-7.13,21.86-10.54,6.53-3.54,12.69-7.58,18.65-11.49l1.97-1.29c7.14-4.68,14.02-10.03,19.55-14.33,2.47-1.93,5.15-3.61,7.82-5.31,4.08-2.58,8.28-5.26,12.1-8.76,3.85-3.56,7.03-7.54,10.11-11.39,1.9-2.39,3.81-4.79,5.87-7.02,1.96-2.13,4.04-4.17,6.12-6.21,3.61-3.54,7.35-7.21,10.65-11.44,3.25-4.19,5.82-8.66,8.32-12.99,1.48-2.58,2.96-5.17,4.58-7.64,1.68-2.58,3.59-5.03,5.5-7.48,3-3.85,6.1-7.84,8.59-12.43,3.99-7.37,7.41-15.17,10.43-22.04,2.12-4.81,3.46-9.76,4.76-14.54.79-2.92,1.58-5.84,2.56-8.7.72-2.1,1.48-4.19,2.24-6.27,1.95-5.37,3.96-10.92,5.44-16.77,2.36-9.37,3.94-16.7,5.11-23.76,1.04-6.27,1.51-12.61,1.97-18.74l.42-5.44c.23-2.76.57-5.54.92-8.33.64-5.13,1.29-10.42,1.29-15.91,0-1.2-.37-2.28-.9-3.27.01-4.27.05-6.89.1-9.4.05-3.06.1-6.11.1-12.22s-.1-9.24-.19-12.33c-.1-2.97-.19-5.93-.19-11.88s.07-8.93.15-11.9c.07-3.07.15-6.13.15-12.25l.04-24.16c0-6.11-.06-9.17-.13-12.22-.06-2.98-.13-5.97-.13-11.93s.1-8.85.21-11.8c.11-3.09.22-6.16.22-12.32l.04-24.09c0-6,.03-8.99.06-12,.03-3.03.06-6.07.06-12.14s.06-8.95.11-11.93c.06-3.05.12-6.11.12-12.21s-.17-9.32-.33-12.44c-.15-2.92-.3-5.83-.3-11.67s.11-8.86.21-11.81c.11-3.09.22-6.16.22-12.33s-.18-9.35-.35-12.47c-.14-2.42-.27-4.95-.31-9.06l.35-.14c7.11-2.79,14.46-5.68,21.25-9.3,9.52-5.08,16.48-9.26,22.54-13.52,2.21-1.54,4.2-3.21,6.22-4.86,0,.08,0,.16,0,.24.07,3.11.15,6.21.15,12.41s.1,9.61.2,12.81c.09,3.1.19,6.18.19,12.36s-.19,9.1-.38,12.14c-.21,3.25-.42,6.52-.42,13.04s-.05,9.35-.09,12.47c-.06,3.17-.1,6.35-.1,12.7l.05,25.17c0,6.52.19,9.77.4,13.03.18,3.04.37,6.08.37,12.16s-.05,9.35-.08,12.47c-.05,3.17-.09,6.34-.09,12.67s.11,9.63.23,12.85c.11,3.08.22,6.16.22,12.33s-.03,9.4-.06,12.53c-.04,3.16-.06,6.33-.06,12.66s-.14,9.22-.27,12.29c-.15,3.23-.29,6.46-.29,12.91l-.11,50.46c0,6.47.14,9.7.29,12.94.13,3.08.27,6.15.27,12.31,0,.88.21,1.71.5,2.49,0,0,0,.01,0,.02,0,7.53-.07,15.6-.6,23.57ZM835.92,734.38c6.28-4.34,11.64-9.14,16.83-13.77l1.45-1.3c3.06-2.73,6.74-6.1,10.54-10.05-.21,1.35-.44,2.75-.69,4.22-.56,3.41-1.17,7.1-1.73,11.02-1.01,7.16-2.25,15.55-4.21,24.42-1.67,7.57-3.59,15.71-6.15,24-2.69,8.7-5.11,16-8.13,23.35-2.64,6.42-5.94,13.28-10.69,22.24l-2.08,3.95c-3.1,5.89-6.28,11.98-10.06,17.53-3.6,5.32-7.98,10.33-12.6,15.64l-2.96,3.4c-5.05,5.83-10.66,11.54-17.2,17.45l-3.04,2.77c-4.94,4.53-10.05,9.21-15.64,13.12-5.58,3.92-12.08,7.82-21.07,12.61-6.05,3.23-12.71,5.84-19.76,8.6l-3.09,1.22c-7.66,3.35-14.86,7.17-21.83,10.88l-1.19.63c-7.3,3.86-15.07,8.1-22.39,12.8-8.59,5.53-15.32,10.27-21.2,14.91-6.71,5.3-13.25,11.11-19.46,17.28-4.94,4.92-8.86,10.28-12.66,15.45-1.22,1.66-2.43,3.32-3.67,4.93l-1.79,2.35c-4.65,6.07-9.46,12.35-13.11,19.28-2.35,4.45-4.21,9.07-5.78,13.5v-9.3s0-4.32,0-4.32c-.03-6.07-.06-12.35.44-18.82l.43-6.34c.34-5.49.69-11.16,1.59-16.75,1.19-7.41,3.09-15.24,4.93-22.63,2.24-8.95,4.23-15.79,6.46-22.18,2.4-6.88,5.48-13.7,8.96-21.26,2.35-5.11,5.33-10.1,8.49-15.38l2.77-4.67c1.12-1.91,2.22-3.86,3.32-5.83,2.62-4.69,5.35-9.55,8.52-13.9,4.54-6.21,9.41-12.24,14.5-17.92,5.94-6.65,11.05-11.91,16.08-16.54,4.9-4.52,10.38-8.71,16.17-13.15l1.8-1.39c4.26-3.26,8.98-6.21,13.98-9.32l5.35-3.37c5.74-3.68,12.59-7.98,20.1-12l4.67-2.72c5.22-3.04,10.22-5.95,15.04-8.67,3.14-1.78,6.18-3.54,9.14-5.25,3.66-2.12,7.19-4.16,10.64-6.07,3.88-2.15,7.58-4.26,11.15-6.28l8.81-4.98c4.43-2.48,8.52-5.05,12.45-7.5,2.46-1.55,4.85-3.06,7.22-4.45,2.81-1.67,5.62-3.13,8.36-4.56,4.03-2.09,8.21-4.26,12.01-6.88ZM838.6,593.81c6.66-4.59,12.42-9.56,17.74-14.25,4.24-3.74,7.92-7.25,11.24-10.73-.3,5.06-.75,10.92-1.67,17.28-.94,6.45-2.29,15.04-4.38,24.27-1.6,7.05-3.74,14.82-6.56,23.77-2.21,7.03-5,14.57-8.51,23.03-3.01,7.24-6.28,14.91-10.25,22.3-3.13,5.84-7.01,11.47-11.11,17.42l-4.98,7.31c-3.57,5.3-7.25,10.78-11.47,15.63-2.97,3.43-6.44,6.97-10.16,10.6.02-1.87.03-4.08.03-7.02,0-6.27-.11-9.4-.21-12.52-.11-3.01-.21-6.03-.21-12.05s-.1-9.38-.2-12.5c-.09-3.01-.19-6.03-.19-12.05l.04-24.56c0-5.98.14-8.96.29-11.96.15-3.15.3-6.31.3-12.62,0-3.17-.02-5.52-.04-7.48.72-.14,1.45-.31,2.12-.7,4.57-2.56,8.82-5.17,12.87-7.65l10.28-6.17c5.31-3.12,10.32-6.07,15.05-9.33Z"/></g></svg>