<?xml version="1.0" encoding="UTF-8"?><svg id="Layer_2" xmlns="http://www.w3.org/2000/svg" viewBox="0 0 2162.63 703.99"><defs><style>.cls-1{fill:#382411;}</style></defs><g id="Layer_1"><path class="cls-1" d="M295.74,385.61c16.12-4.39,30.78-11.55,43.97-21.43,12.82-9.9,22.53-22.45,29.12-37.66,6.6-15.19,8.97-30.86,7.14-46.99-1.47-16.49-6.86-31.59-16.21-45.33-9.35-13.74-21.16-24.27-35.45-31.61-5.86-2.92-11.91-5.58-18.13-7.97-6.24-2.38-12.46-5.03-18.68-7.97-1.84-1.09-3.58-2.38-5.22-3.84-1.66-1.45-2.48-3.3-2.48-5.49-.36-2.56.45-4.58,2.48-6.05,2-1.45,4.11-2.92,6.31-4.39,13.19-7.71,24.18-18.15,32.97-31.33,8.8-13.19,13.74-27.48,14.85-42.88,1.45-15.01-1.38-29.76-8.52-44.24-7.14-14.47-17.51-25.37-31.06-32.7-8.43-4.75-17.59-7.78-27.48-9.07-9.88-1.28-19.77-2.28-29.67-3.02-13.93-.73-27.95-1.19-42.05-1.38-14.1-.19-28.29-.28-42.6-.28-22.71.38-45.25.55-67.59.55s-44.89.19-67.6.55c-3.66,0-6.22.38-7.69,1.11-3.66,1.83-5.03,5.13-4.11,9.89.91,4.77,3.19,8.24,6.86,10.44,3.3,1.83,6.96,3.11,10.99,3.85,4.03.73,8.05,1.83,12.1,3.3,4.75,2.19,8.78,5.22,12.08,9.07,3.3,3.84,5.96,8.24,7.97,13.19,2,4.94,3.47,10.16,4.39,15.66.91,5.49,1.56,10.99,1.92,16.48.74,12.83.64,25.56-.27,38.2-.92,12.65-1.56,25.37-1.92,38.19,0,2.94.55,6.6,1.64,11,1.1,4.39,1.66,7.88,1.66,10.44.36,12.46.36,24.82,0,37.09-.38,12.27.36,24.64,2.19,37.09.74,5.14,1.56,10.16,2.47,15.12.92,4.94,1.19,9.99.83,15.12-.36,6.24-1.19,12.27-2.47,18.13-1.28,5.86-2.47,11.91-3.58,18.13-1.1,5.86-2.02,11.64-2.74,17.32-.75,5.67-2.58,11.08-5.5,16.21-3.67,6.6-8.99,11.82-15.94,15.66-6.96,3.85-14.1,6.5-21.43,7.97-2.94.73-5.77,1.37-8.52,1.92-2.73.55-5.03,1.74-6.86,3.57-2.2,1.84-3.48,4.31-3.84,7.42-.38,3.11.72,5.41,3.3,6.86,1.09,1.11,3.47,1.66,7.14,1.66,32.23-.36,64.2-1,95.9-1.92,31.69-.91,63.65-2.11,95.9-3.58,15.76-.72,31.42-1.73,46.99-3.02,15.57-1.28,31.06-4.3,46.44-9.07ZM139.38,73.18c.56-4.94,1.02-9.97,1.38-15.12,0-5.13.64-10.16,1.92-15.12,1.28-4.94,3.75-9.24,7.43-12.91,3.66-3.3,8.05-4.94,13.19-4.94h15.38c11.35.36,22.45,1.64,33.25,3.85,10.8,2.2,20.98,6.41,30.51,12.65,2.92,1.83,5.85,3.85,8.79,6.03,2.92,2.2,5.5,4.77,7.69,7.71,2.56,3.66,4.77,8.24,6.6,13.74,4.03,11.72,5.41,23.9,4.13,36.55-1.28,12.63-5.05,24.28-11.27,34.89-2.94,4.39-6.14,8.44-9.61,12.1-3.49,3.66-7.61,6.78-12.37,9.33-4.03,2.2-8.44,3.77-13.19,4.67-4.77.92-9.71,1.75-14.83,2.47-9.16,1.47-18.34,2.39-27.48,2.75-9.16.38-17.96-.91-26.39-3.84-2.94-.36-5.13-1.46-6.6-3.3-.74-1.09-1.28-2.2-1.64-3.3-.38-1.1-.92-2.21-1.66-3.3-2.92-9.14-4.49-18.59-4.66-28.29-.2-9.71-.28-19.52-.28-29.4,0-1.83-.38-3.94-1.09-6.33-.75-2.38-1.11-4.3-1.11-5.77.74-5.13,1.38-10.16,1.92-15.12ZM196.26,369.67c-7.33.38-14.83.09-22.52-.83-7.69-.91-14.29-3.92-19.79-9.07-5.86-5.13-9.53-11.61-10.99-19.51-1.47-7.88-2.39-15.66-2.75-23.35-.36-5.86-.64-11.63-.83-17.32-.19-5.67-.45-11.61-.81-17.85,0-1.83-.09-4.49-.28-7.97-.19-3.47-.27-6.31-.27-8.52-.75-7.33-.83-14.38-.28-21.16.55-6.77,1.38-13.63,2.47-20.6.36-1.83.73-3.47,1.09-4.94.37-1.47.92-2.94,1.66-4.41,1.46-1.83,3.3-3.38,5.5-4.67,2.19-1.27,4.39-2.28,6.58-3.02,4.77-1.45,9.35-2.83,13.74-4.13,4.41-1.27,9.16-2.09,14.29-2.47,6.24,0,12.65.92,19.24,2.75,10.63,2.94,20.98,6.41,31.04,10.44,10.08,4.03,19.34,9.35,27.76,15.94,8.43,6.96,15.38,15.3,20.88,25,5.5,9.72,8.24,20.07,8.24,31.06-.36,8.78-2.38,18.13-6.03,28.03-2.58,7.33-5.69,14.47-9.35,21.43-3.67,6.97-8.61,13.01-14.84,18.13-8.44,7.33-18.33,11.82-29.68,13.47-11.36,1.64-22.71,2.83-34.08,3.56Z"/><path class="cls-1" d="M401.81,399.9c2.92,1.47,5.67,2.2,8.24,2.2s5.68-.19,9.35-.56c8.42,0,16.66-.17,24.73-.55,8.05-.36,16.3-.55,24.73-.55,18.7.74,37.19,1.19,55.51,1.37,18.32.19,36.83.47,55.51.83,2.56,0,5.13-.19,7.69-.55,2.56-.37,4.58-2.02,6.05-4.96,2.56-5.13,1.66-9.52-2.75-13.19-4.39-4.39-9.61-6.67-15.66-6.86-6.03-.19-11.63-1.56-16.76-4.13-7.33-3.3-12.36-8.78-15.12-16.49-2.75-7.69-4.49-15.38-5.22-23.07-2.56-16.49-4.31-31.42-5.22-44.8-.92-13.36-1.02-28.1-.27-44.24.36-4.39,1.83-8.97,4.39-13.74,2.56-4.75,5.85-7.88,9.9-9.35,1.45-.72,3.84-1.09,7.14-1.09s6.77.37,10.44,1.09c3.66.75,7.41,1.92,11.25,3.58,3.86,1.64,7.42,3.94,10.72,6.86,7.33,6.97,15.02,15.49,23.09,25.56,8.05,10.08,14.83,18.79,20.33,26.11,8.79,12.1,16.48,22.26,23.07,30.51,6.6,8.24,12.65,15.3,18.13,21.15,5.5,5.86,10.72,11.08,15.66,15.66,4.96,4.6,9.99,9.25,15.12,14.02,8.43,7.33,16.3,14.1,23.63,20.33,7.33,6.22,16.3,10.99,26.93,14.29,4.75,1.47,10.07,2.56,15.94,3.3,5.85.74,11.9,1.28,18.13,1.64,6.22.36,12.27.55,18.13.55h16.49c4.39,0,8.14-.19,11.25-.55s6.14-.73,9.08-1.09c2.92-.36,6.03-.64,9.33-.83,3.3-.17,7.14-.27,11.55-.27,1.83,0,3.57-.19,5.22-.56,1.64-.36,3.2-1.09,4.66-2.19,2.2-1.83,3.2-3.85,3.03-6.05-.19-2.21-.83-4.2-1.92-6.05-1.84-2.19-3.94-3.85-6.33-4.94-2.38-1.09-5.03-1.92-7.96-2.47-2.94-.56-5.88-1.02-8.8-1.38-2.94-.36-5.69-.92-8.24-1.66-9.9-2.92-20.52-8.05-31.87-15.38-11.36-7.33-21.99-14.83-31.89-22.54-9.88-7.69-18.4-14.83-25.56-21.43-7.14-6.6-11.44-10.61-12.91-12.08-7.69-7.33-15.85-14.93-24.45-22.81-8.61-7.88-17.13-15.66-25.56-23.37-8.44-7.69-16.59-15.12-24.46-22.26-7.88-7.14-14.74-13.65-20.6-19.51-1.84-1.83-2.39-3.75-1.66-5.77.73-2,2.02-3.38,3.84-4.12,1.83-.36,4.58-1.27,8.25-2.74,7.69-2.56,15.48-6.41,23.35-11.55,7.88-5.13,14.74-9.89,20.62-14.29,8.78-6.96,16.12-15.48,21.98-25.56,5.86-10.07,10.07-20.69,12.65-31.87,2.55-11.18,3.19-22.43,1.92-33.8-1.3-11.35-4.5-22.17-9.63-32.42-4.03-8.07-8.79-14.85-14.29-20.34-5.49-5.13-12.27-9.54-20.33-13.19-16.85-8.43-35.27-13.46-55.23-15.12-19.98-1.64-39.48-2.47-58.52-2.47-26.39-.36-52.41-.64-78.05-.83-25.65-.17-51.66-.45-78.03-.83-2.58,0-5.05.1-7.42.28-2.39.19-4.49,1.19-6.31,3.02-2.58,1.84-3.49,4.03-2.75,6.6,0,1.84.72,3.3,2.19,4.39,1.47,1.11,3.11,2.03,4.96,2.75,6.6,2.94,13.27,5.77,20.05,8.52,6.78,2.75,12.18,7.24,16.21,13.47,2.2,3.66,3.66,7.6,4.41,11.8.72,4.22,1.27,8.52,1.64,12.93,1.45,16.12,2.66,32.14,3.58,48.08.91,15.94,1.73,31.97,2.47,48.08v24.18c0,20.88-.09,41.59-.28,62.1-.19,20.52-.27,41.22-.27,62.1,0,9.54-.56,18.88-1.66,28.03-.73,5.88-2.02,11.65-3.84,17.32-1.84,5.68-4.94,10.54-9.35,14.55-2.94,2.94-6.13,4.86-9.61,5.78-3.49.91-7.14,1.64-10.99,2.19-3.85.55-7.69,1.2-11.54,1.92-3.86.75-7.43,2.2-10.72,4.41-4.03,2.19-5.86,4.94-5.5,8.24.36,2.94,2.02,5.14,4.96,6.6ZM533.71,119.07c.36-2.56.45-5.77.27-9.61-.19-3.85-.09-7.05.28-9.63.73-4.75,1.19-9.52,1.37-14.29.17-4.75.64-9.52,1.37-14.29.72-5.13,1.92-9.97,3.57-14.57,1.66-4.56,4.31-8.52,7.97-11.8,4.03-4.03,9.8-6.88,17.32-8.52,7.5-1.66,14.19-2.66,20.06-3.03,19.41-1.09,37.92,2.94,55.51,12.1,1.83,1.09,3.57,2.19,5.22,3.3,1.64,1.1,3.2,2.56,4.67,4.39,1.09,1.47,2,3.02,2.75,4.67.72,1.64,1.46,3.39,2.19,5.22,1.83,4.77,3.48,9.44,4.95,14,1.45,4.6,2.55,9.44,3.3,14.57.72,6.6.55,13.19-.56,19.79-1.09,6.6-2.56,13.01-4.39,19.23-2.94,9.54-6.5,18.79-10.71,27.76-4.22,8.97-10.36,16.21-18.41,21.71-6.97,4.75-14.57,7.88-22.81,9.33-8.25,1.47-16.58,2.39-25.01,2.75-6.6.38-13.83-.36-21.71-2.2-7.88-1.83-14-5.3-18.41-10.44-2.92-2.92-4.77-6.5-5.49-10.71-.74-4.2-1.47-8.33-2.2-12.36-.74-6.6-1.28-12.82-1.64-18.7-.38-5.85-.19-12.08.55-18.68Z"/><path class="cls-1" d="M1104.71,406.5c21.98-1.84,42.88-7.33,62.65-16.49,19.79-9.16,37.37-21.43,52.76-36.83,15.4-15.38,27.67-33.06,36.83-53.02,9.16-19.98,14.65-40.96,16.49-62.93.72-12.46.63-24.82-.28-37.09-.92-12.27-1.73-24.64-2.47-37.09-1.09-29.68.55-59.16,4.94-88.49,1.83-10.25,4.67-20.34,8.52-30.23,3.84-9.88,10.54-16.84,20.07-20.88,2.19-.72,4.39-1.46,6.6-2.19,2.19-.73,4.2-1.83,6.03-3.3,1.83-1.47,3.21-3.39,4.13-5.77.91-2.39.64-4.49-.83-6.33-1.09-1.83-2.75-2.92-4.94-3.3-2.2-.36-4.22-.55-6.05-.55-17.59.38-34.81.64-51.66.83-16.85.19-33.89.27-51.11.27-4.75,0-9.52.92-14.29,2.75-4.77,1.84-6.96,5.14-6.6,9.89.37,4.03,2.39,6.88,6.05,8.52,3.66,1.66,7.33,3.39,10.99,5.22,6.95,3.3,12.46,8.61,16.49,15.94,4.03,7.33,6.6,14.83,7.69,22.52,1.11,8.07,1.37,16.04.83,23.92-.55,7.88-1.02,15.85-1.37,23.9-.36,12.83.28,25.37,1.92,37.64,1.66,12.29,2.85,24.84,3.58,37.66,1.45,21.62.36,43.14-3.3,64.57-3.67,21.43-11.55,41.31-23.63,59.62-5.86,8.8-13,16.87-21.43,24.18-8.44,7.35-17.51,13.29-27.21,17.87-9.71,4.58-19.96,7.61-30.76,9.07-10.82,1.47-21.35.92-31.61-1.64-1.84-.36-4.77-.91-8.8-1.66-4.03-.72-8.24-1.38-12.63-1.92-4.39-.55-8.52-1.09-12.37-1.64-3.84-.55-6.52-1.02-7.97-1.37-4.39-.74-8.44-2.47-12.1-5.22-3.66-2.75-7.5-5.41-11.54-7.97-7.33-4.75-14.93-8.97-22.81-12.65-7.88-3.66-14.57-8.78-20.06-15.38-3.67-4.03-6.42-8.71-8.25-14.02-1.83-5.3-3.48-10.52-4.94-15.66-8.42-34.42-12.74-69.51-12.91-105.23-.19-35.73,1.55-71.36,5.22-106.9.72-8.79,2.47-17.66,5.22-26.65,2.75-8.97,7.97-15.66,15.66-20.05,2.92-1.47,6.22-2.66,9.89-3.58,3.66-.91,6.6-2.28,8.79-4.11,2.2-2.2,3.39-4.96,3.58-8.25.17-3.3-1.2-5.49-4.13-6.6-.73-.36-2.2-.55-4.39-.55-21.26-.74-42.88-1.28-64.86-1.64-21.98-.36-43.61-.92-64.85-1.66-4.39-.36-8.78-.17-13.18.55-4.41.75-7.71,2.94-9.89,6.6-1.84,2.56-2.2,4.95-1.11,7.14.74,2.2,2.11,3.94,4.13,5.22,2.02,1.3,4.13,2.3,6.31,3.03,6.96,2.94,12.93,7.14,17.87,12.63,4.94,5.5,8.52,11.91,10.72,19.24,1.45,4.39,2.28,8.88,2.47,13.46.17,4.6.27,9.25.27,14.02.36,10.63.36,21.07,0,31.33-.36,10.25-.19,20.7.56,31.32.36,2.19.27,5.58-.28,10.16-.55,4.6-.83,7.97-.83,10.18.36,17.59.1,34.53-.81,50.83-.92,16.3.08,33.25,3.02,50.83,2.56,17.59,7.42,34.44,14.57,50.57,7.14,16.11,17.3,30.04,30.5,41.77,12.08,10.25,25.56,18.13,40.39,23.62,14.83,5.5,29.95,10.08,45.35,13.74,13.91,2.94,28.03,5.32,42.31,7.14,14.29,1.83,28.57,2.2,42.86,1.11Z"/><path class="cls-1" d="M1307.22,452.11c-4.58-2.2-9.35-3.49-14.3-3.85-4.94-.37-9.79.27-14.55,1.92-4.77,1.64-8.8,4.3-12.1,7.97-3.3,4.02-5.68,9.61-7.14,16.76-1.45,7.14-.91,12.91,1.66,17.32,2.19,4.02,5.49,8.14,9.89,12.36,4.39,4.2,8.97,6.86,13.72,7.96,8.44,2.21,17.13,4.67,26.1,7.43,8.99,2.75,17.87,3.21,26.67,1.38,5.13-1.1,10.61-2.21,16.48-3.3,5.86-1.09,11.18-2.94,15.94-5.5,6.95-3.3,13.65-6.69,20.05-10.16,6.41-3.49,12.55-7.78,18.41-12.91,5.13-4.03,10.18-9.63,15.12-16.77,4.94-7.14,9.43-13.27,13.46-18.4,7.33-9.53,13.19-19.24,17.59-29.14,4.41-9.89,8.61-20.33,12.65-31.32,3.66-10.25,6.31-20.79,7.97-31.59,1.64-10.82,2.47-21.71,2.47-32.7s-.37-22.07-1.09-33.25c-.74-11.18-1.3-22.26-1.66-33.26-1.83-35.17-1.83-70.06,0-104.68,1.83-34.62,4.2-69.34,7.14-104.15.36-2.92.74-5.85,1.11-8.78.36-2.94,1.28-5.68,2.74-8.26,1.83-2.92,4.31-5.13,7.43-6.6,3.11-1.45,6.31-2.83,9.61-4.11,3.3-1.28,6.69-2.56,10.18-3.84,3.47-1.28,6.5-3.03,9.07-5.22,2.56-2.56,3.84-4.96,3.84-7.14,0-2.94-1.73-5.03-5.22-6.33-3.49-1.28-6.69-1.92-9.61-1.92h-117.06c-6.6,0-13.19.09-19.79.28-6.6.19-13.19.64-19.77,1.38-1.84,0-3.77.36-5.78,1.1-2.02.73-3.39,2.2-4.11,4.39-.75.73-.92,1.75-.55,3.03.36,1.28.91,2.28,1.64,3.02,1.45,2.94,3.66,5.03,6.6,6.31,2.92,1.3,6.05,2.2,9.35,2.75,3.3.55,6.68,1.19,10.16,1.92,3.48.73,6.67,2.02,9.61,3.84,4.41,2.94,7.61,7.14,9.63,12.65,2,5.49,3.38,10.99,4.11,16.49,1.47,9.52,2.75,19.15,3.84,28.84,1.11,9.72,1.28,19.34.56,28.86,0,3.3-.38,7.52-1.11,12.65-.73,5.13-1.28,9.35-1.64,12.65-.37,21.24-.28,42.5.27,63.74.56,21.26,1.11,42.5,1.66,63.74.55,21.26.91,42.52,1.1,63.76.19,21.24-.27,42.5-1.38,63.74-.36,8.05-.92,16.12-1.64,24.18-.73,8.05-2.39,15.76-4.95,23.09-2.94,7.69-6.69,14.83-11.25,21.43-4.6,6.6-10.54,11.72-17.87,15.38-5.86,2.94-12.19,4.31-18.96,4.13-6.78-.19-12.36-2.66-16.76-7.43-1.47-1.83-2.75-4.66-3.84-8.52-1.11-3.85-2.39-6.69-3.86-8.52-3.3-3.66-7.22-6.58-11.8-8.78Z"/><path class="cls-1" d="M1557.83,402.65c2,.36,3.92.55,5.77.55,11.35.73,22.71.83,34.08.27,11.35-.55,22.71-1.1,34.08-1.64,11.35-.55,22.71-.91,34.06-1.09,11.36-.19,22.71.27,34.08,1.37,7.33.74,14.48,1.46,21.43,2.19,6.96.73,13.93.55,20.88-.55,3.66-.73,7.14-2.2,10.44-4.39,3.3-2.21,4.58-5.13,3.84-8.8-.73-1.83-1.73-3.3-3.02-4.39-1.28-1.1-2.85-2.02-4.67-2.75-4.77-2.56-9.53-4.58-14.29-6.05-4.77-1.46-9.54-3.3-14.29-5.49-5.13-2.2-9.71-4.86-13.74-7.97-4.03-3.11-6.96-7.24-8.79-12.36-1.47-2.92-2.3-6.05-2.48-9.35-.19-3.3-.27-6.41-.27-9.33v-78.59c-.38-32.23-.47-64.12-.28-95.63.19-31.5.83-63.2,1.92-95.07,0-4.03.28-7.88.83-11.54.55-3.66,2.11-6.96,4.67-9.9,1.83-2.2,3.84-3.94,6.05-5.22,2.19-1.28,4.56-2.47,7.14-3.58,3.66-1.45,7.77-2.92,12.36-4.39,4.57-1.46,8.52-2.92,11.82-4.39,3.3-1.47,6.39-3.48,9.33-6.05,2.94-2.56,4.03-5.5,3.3-8.8-1.09-3.66-3.75-6.31-7.97-7.96-4.2-1.66-8.14-2.11-11.8-1.37-16.87,2.94-34.26,3.84-52.22,2.74-17.94-1.1-35.53-2-52.76-2.74-6.24-.36-12.63-.45-19.23-.28-6.6.19-13.02.47-19.24.83-2.94.36-5.95.64-9.07.83-3.11.19-5.96,1-8.52,2.47-2.94,1.1-5.41,2.85-7.43,5.22-2.02,2.39-3.2,5.03-3.56,7.97,0,.74.36,2.19,1.1,4.39.73,1.83,2.01,3.11,3.84,3.84,1.83.74,3.66,1.47,5.5,2.21,7.69,2.19,15.19,4.11,22.53,5.77,7.33,1.64,13.01,5.95,17.04,12.91,2.94,5.14,4.49,11.63,4.67,19.51.19,7.88.28,14.76.28,20.62-.38,5.13-.74,10.35-1.11,15.66-.36,5.32-.55,10.54-.55,15.66.36,2.56.73,5.77,1.11,9.61.36,3.84.72,7.05,1.09,9.61,1.83,30.42,2.75,60.65,2.75,90.68s-.38,60.28-1.11,90.68c0,8.8-.81,17.79-2.47,26.93-1.64,9.16-5.96,16.49-12.91,21.99-5.5,4.75-11.91,7.69-19.24,8.79-7.33,1.09-14.29,3.11-20.88,6.05-3.3,1.83-6.22,4.39-8.79,7.69-2.56,3.3-2.56,6.41,0,9.35,1.1,1.83,2.66,2.94,4.67,3.3Z"/><path class="cls-1" d="M2159.88,303.72c-1.84-1.83-3.77-2.56-5.77-2.19-2.02.36-3.94,1.09-5.77,2.19-6.97,4.03-12.57,9.71-16.77,17.04-4.2,7.33-9.07,14.12-14.55,20.34-5.88,6.6-12.65,11.91-20.34,15.94-7.71,4.03-15.94,7.05-24.73,9.07-8.8,2.02-17.7,3.39-26.67,4.11-8.97.75-17.85,1.11-26.65,1.11h-17.59c-5.86,0-11.72-.19-17.59-.56-4.77-.36-9.89-.72-15.38-1.1-5.5-.36-10.91-1.19-16.23-2.47-5.31-1.28-10.35-3.2-15.1-5.77-4.77-2.56-8.44-6.22-11-10.99-4.03-6.95-5.49-14.47-4.39-22.54,1.09-8.05,2.2-15.93,3.3-23.64,1.1-8.78,1.56-17.59,1.38-26.37-.19-8.8-.64-17.59-1.38-26.39-1.47-28.57-1.73-57.05-.83-85.46.92-28.39,2.11-56.88,3.58-85.46.36-6.6,1.09-13.1,2.2-19.51,1.1-6.41,3.85-12.18,8.24-17.32,3.66-4.02,7.88-7.14,12.65-9.33,4.75-2.2,9.69-4.41,14.83-6.6,3.66-1.83,7.22-3.85,10.71-6.05,3.49-2.21,6.33-4.75,8.52-7.69,1.47-1.83,1.73-3.84.83-6.05-.92-2.2-2.47-3.48-4.67-3.84-5.13-1.47-10.44-2.2-15.93-2.2h-16.49c-22.73.38-45.8.19-69.25-.55-23.45-.74-46.35-.91-68.7-.55-2.94.36-5.58.74-7.97,1.09-2.38.38-4.3,2.02-5.77,4.96-1.47,1.83-2.02,3.49-1.64,4.94.36,1.47,1.28,3.11,2.75,4.94,4.02,5.14,9.43,8.89,16.21,11.27,6.77,2.39,12.54,5.59,17.3,9.61,6.22,5.14,9.52,12.65,9.9,22.54.36,9.9.36,19.06,0,27.48-.38,8.42-.09,16.58.83,24.45.91,7.89,1.55,16.04,1.92,24.46v11.54c-1.1,16.49-1.66,33.08-1.66,49.74s.09,33.44.28,50.29c.17,16.87.17,33.62,0,50.28-.19,16.68-1.02,33.25-2.47,49.74-.38,2.56-.75,5.03-1.11,7.42-.36,2.38-1.28,4.66-2.74,6.86-1.84,2.56-4.13,4.58-6.88,6.05-2.75,1.47-5.6,2.94-8.52,4.39l-30.78,11.54c-1.83.75-3.2,2.39-4.11,4.96-.92,2.56-1.2,4.77-.83,6.6.74,2.56,2.28,4.22,4.67,4.94,2.38.74,4.67,1.11,6.86,1.11h34.08c11.35,0,22.71.19,34.08.55,45.42.36,90.58.64,135.46.81,44.88.2,90.22.28,136.03.28,1.83,0,3.58-.08,5.22-.28,1.66-.17,3.2-.81,4.67-1.92,1.45-1.09,2.47-2.47,3.02-4.11.55-1.66,1.02-3.39,1.37-5.22,2.94-13.19,5.41-26.46,7.43-39.84,2-13.38,3.56-26.65,4.67-39.84,0-4.03-.92-6.96-2.75-8.8Z"/><path class="cls-1" d="M405.93,632.27c-1.2.52-2.39,1.25-3.58,2.19-1.2.94-2.27,2-3.21,3.19-.94,1.2-1.41,2.39-1.41,3.59,0,1.88.8,3.63,2.43,5.25,1.62,1.63,3.37,2.42,5.25,2.42,2.05,0,4.31-.94,6.78-2.81,2.48-1.88,3.71-4,3.71-6.41,0-2.2-.77-4.13-2.3-5.75-1.53-1.63-3.24-2.44-5.12-2.44-.51,0-1.37.27-2.56.77Z"/><path class="cls-1" d="M955.78,644.82c-2.9,0-5.76.94-8.57,2.81-2.82,1.89-5.25,3.59-7.3,5.13-.86.34-1.76.69-2.69,1.03-.95.34-1.84.67-2.69,1.02-3.59,1.53-7.43,2.95-11.53,4.22-4.1,1.28-8.28,2.44-12.55,3.47-4.27,1.02-8.49,1.91-12.68,2.69-4.18.77-8.07,1.41-11.65,1.92-4.6.67-8.41,1.66-11.39,2.94-.3.13-.4.31-.68.44-3.99.98-7.92,1.71-11.74,2.12-3.93.42-7.09.64-9.47.64-1.02,0-2.09-.17-3.2-.52-1.11-.34-1.67-1.19-1.67-2.56,0-.67.13-1.41.38-2.17.26-.77.38-1.5.38-2.17,0-.17-.04-.61-.13-1.28-.08-.69-.38-1.41-.9-2.19-.51-.77-1.37-1.49-2.56-2.17-1.2-.67-2.91-1.02-5.13-1.02-2.73,0-4.86.34-6.4,1.02-1.54.69-2.69,1.45-3.46,2.31-.77.84-1.28,1.71-1.54,2.55-.26.86-.38,1.55-.38,2.06v.25c.34,1.88,1.06,3.42,2.17,4.61,1.11,1.19,1.66,2.47,1.66,3.84,0,.84-.64,1.83-1.91,2.94-1.28,1.11-2.61,2.09-3.97,2.94-1.88,1.03-3.84,2.05-5.89,3.08-1.54,0-2.3-.86-2.3-2.56,0-.84.34-1.75,1.02-2.69.68-.94,1.46-1.92,2.3-2.94.85-1.03,1.62-2.09,2.31-3.2.68-1.11,1.02-2.17,1.02-3.21v-1.01c0-.34-.09-.69-.26-1.03-1.2-2.05-2.99-3.08-5.38-3.08-.68,0-1.75.27-3.2.78-1.45.5-3.03,1.06-4.74,1.66-1.71.59-3.42,1.24-5.12,1.92-.87.35-1.49.52-2.22.78-.03,0-.05-.02-.08-.02-1.02,0-2.39.64-4.1,1.92-1.7,1.28-3.33,2.52-4.86,3.72-7.52,4.1-14.56,7.38-21.13,9.85-6.58,2.49-11.58,3.72-14.98,3.72-.86,0-1.67-.08-2.44-.25-.77-.17-1.15-.86-1.15-2.06,0-1.36.55-2.99,1.67-4.86,1.11-1.88,3.33-4.69,6.66-8.44,3.33-3.77,7.89-8.72,13.7-14.86,5.8-6.14,13.48-14.16,23.05-24.07,1.54-1.71,3.24-3.24,5.12-4.61,1.88-1.36,3.59-2.81,5.13-4.34,1.53-1.55,3.2-2.74,4.99-3.6,1.79-.84,3.92-1.41,6.4-1.66,2.47-.27,5.42-.39,8.83-.39h12.04c7.69,0,15.37.13,23.06.39,15.05,1.33,16.2-9.14,3.2-9.35-1.97-.03-3.88-.27-5.76-.27-5.81,0-11.61.14-17.41.39-5.81.25-11.61.56-17.42.89-.51,0-1.03-.2-1.53-.63-.52-.42-.77-.98-.77-1.66,0-.52.34-1.16,1.02-1.91.68-.77,1.49-1.63,2.43-2.56.94-.92,1.92-1.81,2.95-2.67,1.02-.84,1.88-1.61,2.55-2.28,2.06-1.88,4.14-3.88,6.28-5.99,2.13-2.13,3.8-3.53,4.99-4.2,2.9-1.53,9.4-13.64,1.63-13.83-4.81-2.61-13.22,7.79-18.83,14.07h0l-15.31,18.21-3.13,1.32c-1.01.78-2.02,1.77-3.02,2.27-1.35.68-3.18,1.02-5.24,1.21l-.47.2-34.31.6c-2.43,1.05-3.77,2.49-3.77,4.42,0,1.58.73,2.6,2.17,3.03,1.45.44,3.29.66,5.51.66,2.05,0,4.74-.09,8.07-.27,3.33-.16,7.39-.25,12.17-.25.85,0,1.57.25,2.17.77.59.52.9,1.03.9,1.53s-.43,1.37-1.28,2.56c-.86,1.2-1.84,2.44-2.95,3.72-1.11,1.28-2.3,2.56-3.59,3.84-1.27,1.27-2.34,2.34-3.2,3.19-1.37,1.38-2.74,2.56-4.1,3.59-1.38,1.02-2.74,2.22-4.1,3.58-2.73,2.73-5.25,5.5-7.55,8.33-2.31,2.81-4.75,5.41-7.3,7.8-3.37,3.48-6.46,6.56-9.41,9.46-.61.15-1.36.36-2.24.66-1.8.61-3.97,1.42-6.53,2.44-2.56,1.03-5.29,2.17-8.19,3.46-2.91,1.28-5.81,2.53-8.72,3.72-.85,0-1.27-.17-1.27-.51,0-.52.08-.84.25-1.02.85-1.03,1.54-2.06,2.05-3.08.51-1.03.77-2.13.77-3.33,0-1.7-.73-3.16-2.18-4.36-1.45-1.19-3.54-1.78-6.27-1.78-3.59,0-8.03.72-13.32,2.17-5.3,1.46-12.98,4.07-23.06,7.82-1.03.5-1.96.77-2.81.77-2.05,0-3.07-.34-3.07-1.03,0-.5.42-1.11,1.28-1.78.85-.69,1.83-1.41,2.94-2.19,1.11-.77,2.18-1.49,3.2-2.17,1.02-.67,1.79-1.19,2.31-1.53,2.39-1.53,4.01-3.25,4.87-5.13.85-1.88,1.27-3.5,1.27-4.86,0-5.8-3.24-8.71-9.73-8.71-1.7,0-3.76.3-6.14.89-2.39.61-4.78,1.75-7.18,3.45-3.07,2.05-6.06,4.1-8.96,6.16-2.9,2.05-5.5,3.92-7.81,5.63-2.31,1.7-4.14,3.28-5.51,4.74-.04.04-.05.07-.08.11-1.13.34-2.41.84-3.89,1.56-2.81,1.36-5.08,2.47-6.78,3.33-3.42,1.19-7.09,2.39-11.01,3.58-3.93,1.19-7.81,2.3-11.65,3.33-3.84,1.01-7.64,1.88-11.4,2.56-3.76.69-7.17,1.02-10.24,1.02-2.39,0-4.61-.38-6.66-1.14-2.05-.78-3.07-2.09-3.07-3.97,0-1.2.42-2.14,1.28-2.83.85-.67,1.92-1.19,3.2-1.53,1.27-.34,2.64-.64,4.1-.89,1.45-.27,2.69-.56,3.71-.91,5.46-1.7,9.64-3.83,12.55-6.39,2.9-2.56,4.35-5.55,4.35-8.97s-1.5-6.31-4.49-8.71c-2.98-2.39-6.1-3.58-9.35-3.58-2.74,0-5.47.69-8.19,2.05-2.74,1.38-5.34,3.03-7.81,5-2.48,1.95-4.61,4.1-6.4,6.39-1.79,2.31-3.12,4.49-3.97,6.53-.33.94-.3,2.24-.5,3.31-.48.15-.85.13-1.42.4-1.28.61-2.6,1.28-3.97,2.06-1.37.77-2.69,1.53-3.97,2.3-1.28.77-2.34,1.41-3.2,1.92-5.47,3.06-10.03,5.33-13.71,6.78-3.67,1.45-6.19,2.17-7.55,2.17-1.02,0-1.54-.42-1.54-1.28,0-.33.34-1.02,1.02-2.05.68-1.01,1.2-1.78,1.54-2.3,1.19-1.88,2.26-3.5,3.2-4.86.94-1.37,1.41-2.66,1.41-3.84,0-1.53-.6-2.81-1.8-3.84-1.2-1.02-2.73-1.53-4.61-1.53-2.9,0-6.83,1.11-11.78,3.33-4.96,2.22-11.01,5.21-18.18,8.96-.69.34-1.28.52-1.8.52-.85,0-1.28-.52-1.28-1.53,0-.86.52-2.09,1.54-3.72,1.02-1.63,1.54-3.11,1.54-4.49,0-1.88-.6-3.41-1.8-4.61-1.2-1.19-2.73-1.78-4.61-1.78s-4.74.69-8.57,2.05c-3.84,1.36-8.03,2.99-12.55,4.86-4.53,1.88-9,3.8-13.44,5.77-4.45,1.95-8.11,3.63-11.01,4.99-.17.17-.34.27-.52.27-.85,0-1.28-.27-1.28-.78,0-.84,1.02-1.88,3.08-3.06,2.05-1.19,3.66-2.31,4.86-3.33,1.2-.86,2.31-1.88,3.33-3.08,1.02-1.19,2.22-2.39,3.59-3.58,3.07-2.39,5.12-4.22,6.14-5.5,1.02-1.28,1.54-2.78,1.54-4.49,0-1.36-.43-2.86-1.28-4.49-.86-1.61-2.91-2.42-6.14-2.42-1.37,0-3.17.17-5.38.5-2.23.35-4.95,1.2-8.2,2.56-3.42,1.37-8.07,3.8-13.96,7.3-5.89,3.5-12,7.05-18.31,10.63-.08.05-.13.11-.21.16-.23.13-.46.2-.68.36-1.46,1.01-3.12,1.97-5,2.81-3.07,1.38-6.52,2.86-10.37,4.49-3.84,1.63-7.64,3.06-11.39,4.35-3.76,1.28-7.17,2.36-10.25,3.2-3.07.86-5.38,1.28-6.91,1.28-2.4,0-3.59-.86-3.59-2.56,0-1.88,1.49-4.44,4.48-7.67,2.99-3.25,6.19-6.58,9.61-9.99.85-1.03,1.28-2.49,1.28-4.36,0-1.36-.69-2.44-2.05-3.2-1.37-.77-2.73-1.14-4.1-1.14-.85,0-1.75.3-2.69.89-.94.59-1.88,1.33-2.81,2.17-.94.86-1.75,1.67-2.43,2.44-.69.77-1.28,1.41-1.8,1.92-1.2,1.19-2.34,2.39-3.45,3.58-.16.18-.31.32-.47.49-1.17.24-2.64.88-4.65,2.2-2.48,1.63-4.56,3.13-6.28,4.49-2.56,1.88-5.38,3.8-8.45,5.77-3.07,1.95-6.14,3.75-9.22,5.38-3.07,1.63-6.1,2.94-9.09,3.97-2.99,1.02-5.6,1.53-7.81,1.53-.17,0-.98-.44-2.43-1.28-1.45-.86-2.18-2.74-2.18-5.64,0-.84.34-2.2,1.02-4.1.68-1.88,1.88-4.3,3.59-7.3,1.71-2.99,4.1-6.57,7.17-10.75,3.08-4.17,6.92-9,11.53-14.46,1.53-1.03,3.02-2.14,4.48-3.33,1.45-1.2,2.95-2.39,4.49-3.6,2.9-2.39,7.35-5.83,10.06-8.26,6.69-5.99,23.21-23.54,14.7-26.25-7.38-3.3-18.27,8.95-22.2,13.13-3.92,4.19-7.6,8.24-11.01,12.16-1.37,1.72-2.65,3.38-3.84,5-1.2,1.63-2.48,3.2-3.85,4.74-5.12,5.8-9.56,11.44-13.32,16.9-1.37,1.89-2.55,3.67-3.58,5.38-.91,1.52-1.73,2.94-2.5,4.32-.21.09-.35.05-.57.17-1.2.59-2.48,1.33-3.84,2.17-1.37.86-2.69,1.72-3.97,2.56-1.28.86-2.27,1.53-2.95,2.05-3.24,1.89-6.57,3.33-9.99,4.36-3.42,1.01-5.98,1.53-7.68,1.53-2.39,0-3.89-.34-4.48-1.01-.6-.69-.9-1.28-.9-1.8,0-1.53.42-3.11,1.28-4.74.85-1.63,1.28-3.11,1.28-4.49,0-1.02-.26-1.92-.77-2.69-.51-.77-1.11-1.53-1.79-2.3-.69-.78-1.37-1.55-2.05-2.31-.69-.77-1.28-1.75-1.79-2.94-1.2-2.39-3.25-4.27-6.15-5.64-2.91-1.36-6.24-2.05-9.99-2.05-3.07,0-5.98.34-8.71,1.03-2.74.67-5.55,1.53-8.45,2.56-7.68,2.39-13.41,5.58-17.16,9.6-3.75,4.02-5.64,8.24-5.64,12.68,0,3.75,1.24,6.7,3.71,8.83,2.48,2.14,5.85,3.2,10.12,3.2,3.92,0,8.66-.81,14.21-2.44,5.55-1.61,10.38-3.36,14.48-5.25,1.7-1.19,3.41-1.78,5.12-1.78,1.37,0,2.05.52,2.05,1.53.85,3.08,2.52,5.5,4.99,7.3,2.48,1.8,5.68,2.69,9.61,2.69,2.56,0,5.8-.64,9.73-1.92,3.93-1.28,7.82-2.86,11.65-4.74.49-.24.89-.51,1.37-.75-.31,1.37-.48,2.65-.48,3.83,0,2.05.43,3.83,1.28,5.38.85,1.53,1.88,2.86,3.07,3.97,1.2,1.11,2.39,2.05,3.59,2.81,1.19.77,2.13,1.24,2.81,1.41.85.34,1.71.52,2.56.52h2.56c1.88,0,3.66-.3,5.38-.91,1.71-.59,3.49-1.24,5.38-1.91,1.53-.52,3.19-1.03,4.99-1.55,1.79-.5,3.54-1.19,5.25-2.05,3.92-2.22,8.11-4.86,12.54-7.94,1.55-1.07,3.31-2.36,4.93-3.49,0,.21-.06.49-.06.68,0,3.92,1.33,6.71,3.97,8.33,2.65,1.61,5.59,2.42,8.83,2.42,3.76,0,8.07-.59,12.93-1.78,4.87-1.2,10.8-3.25,17.8-6.16,3.07-1.36,6.27-2.81,9.6-4.35,3.33-1.55,6.79-3.08,10.37-4.61.86-.34,1.63-.94,2.3-1.8.31-.39.3-.86.47-1.28.74-.38,1.46-.74,2.22-1.14,1.45-.78,2.85-1.55,4.22-2.31,1.37-.77,2.39-1.31,3.08-1.66,3.92-1.88,7.21-3.47,9.86-4.75,2.65-1.27,5.08-2.42,7.3-3.45h.26c.34,0,.51.27.51.77,0,.17-.09.27-.25.27-5.13,4.44-9.18,8.07-12.17,10.88-2.98,2.81-5.34,5.13-7.04,6.92-1.71,1.78-2.82,3.28-3.33,4.47-.52,1.2-.77,2.31-.77,3.33.16,1.88,1.06,3.38,2.69,4.49,1.62,1.11,3.28,1.66,5,1.66,4.61,0,10.58-1.95,17.92-5.88,7.34-3.94,17.42-8.8,30.22-14.6h.77c.34,0,.68.17,1.03.5.34.36.52.69.52,1.03s-.09.59-.26.77c-1.37,1.89-2.73,4.02-4.1,6.41-1.37,2.39-2.05,4.52-2.05,6.39.16,1.03.47,1.84.89,2.44.43.59,1.11,1.16,2.06,1.67.93.5,2.17.77,3.71.77,1.88,0,4.27-.74,7.17-2.19,2.9-1.46,7.08-3.63,12.55-6.52,1.88-1.03,4.01-1.97,6.4-2.83,2.39-.84,4.77-1.88,7.17-3.06h.51c.34,0,.52.08.52.25-.17.17-.26.34-.26.52-1.37,2.39-2.05,4.61-2.05,6.66,0,1.88.81,3.8,2.43,5.77,1.62,1.95,4.13,2.94,7.56,2.94,2.39,0,5.25-.47,8.57-1.41,3.33-.94,7.47-2.61,12.43-5,1.53-.67,3.75-1.78,6.66-3.33,2.9-1.53,5.21-2.72,6.91-3.58,1.32-.72,2.54-1.53,3.77-2.33.05.18.03.36.08.53.68,2.39,1.8,4.54,3.33,6.41,1.54,1.88,3.5,3.45,5.89,4.74,2.39,1.28,5.38,1.92,8.97,1.92,5.12,0,10.84-.47,17.16-1.41,6.31-.94,13.4-2.69,21.26-5.25,1.88-.69,3.92-1.36,6.14-2.05,2.22-.69,4.27-1.45,6.15-2.31,1.36-.5,2.81-.97,4.35-1.41,1.54-.42,2.95-.97,4.23-1.66,1.27-.69,2.34-1.55,3.2-2.56.12-.15.07-.38.18-.53.52-.25,1.02-.49,1.62-.87,1.7-1.11,3.71-2.51,6.02-4.22,2.31-1.72,4.74-3.55,7.3-5.52,2.56-1.95,5.21-3.88,7.93-5.75.52-.34,1.02-.52,1.54-.52h.26c0,.52-.43,1.19-1.28,2.05-.86.86-1.88,1.83-3.07,2.94-1.2,1.11-2.48,2.22-3.85,3.33-1.37,1.11-2.48,2.09-3.33,2.95-2.73,2.91-4.82,5.68-6.28,8.32-1.45,2.66-2.17,4.58-2.17,5.77,0,2.39.55,3.92,1.66,4.61,1.11.67,2.26,1.02,3.46,1.02,4.61,0,15.79-3.41,33.55-10.24,1.7-.86,3.8-1.67,6.28-2.44,2.47-.77,4.31-1.14,5.5-1.14.68,0,1.02.34,1.02,1.02,0,1.53-.56,3.12-1.67,4.74-1.11,1.63-1.67,3.12-1.67,4.49,0,1.7.6,3.16,1.8,4.34,1.19,1.2,2.99,1.8,5.38,1.8,1.88,0,5.29-.77,10.24-2.3,4.66-1.46,10.71-3.88,17.94-7.14-.11.75-.26,1.5-.26,2.26,0,.86.17,1.89.51,3.08.34,1.19,1.07,2.44,2.18,3.72,1.11,1.27,2.73,2.34,4.86,3.19,2.14.86,4.99,1.28,8.58,1.28,3.24,0,6.78-.55,10.63-1.66,3.84-1.11,7.72-2.44,11.65-3.97,3.92-1.53,7.72-3.25,11.39-5.13,3.67-1.88,6.87-3.58,9.61-5.13,2.73-1.53,4.65-2.89,5.76-4.09.17-.19.24-.47.39-.68.35-.11.84-.25,1.03-.34,0,.34.25.52.77.52s.76.17.76.5c0,1.03-.08,2.01-.26,2.95-.17.94-.25,1.83-.25,2.69,0,3.41.93,5.89,2.81,7.43,1.88,1.53,4.18,2.3,6.92,2.3,3.92,0,7.89-1.19,11.91-3.58,4.01-2.39,7.64-5.38,10.88-8.96.51-.52,1.45-.78,2.82-.78,1.7,0,3.45.17,5.24.52,1.8.34,3.88.52,6.28.52,2.56,0,5.25-.13,8.07-.39,2.35-.21,5.25-.68,8.49-1.3.36,1.55.84,3,1.5,4.26,1.45,2.74,3.46,4.99,6.02,6.78,2.56,1.8,5.46,3.08,8.71,3.85,3.24.76,6.66,1.14,10.24,1.14,5.64,0,10.63-1.31,14.98-3.97,4.35-2.64,8.28-5.8,11.78-9.47,3.5-3.66,6.66-7.38,9.48-11.13,2.81-3.77,5.42-6.75,7.81-8.97,1.54-1.53,3.42-2.69,5.64-3.45,2.22-.77,4.35-1.5,6.4-2.17,2.06-.69,3.8-1.55,5.25-2.56,1.45-1.03,2.18-2.74,2.18-5.13,0-1.88-.64-3.24-1.92-4.1-1.28-.84-2.35-1.28-3.21-1.28ZM585.72,663.78v.25c1.88-1.7,3.92-3.28,6.15-4.74,2.21-1.45,4.09-2.17,5.63-2.17,1.02,0,1.54.34,1.54,1.02,0,1.2-.76,2.56-2.31,4.09-1.54,1.55-4.61,2.99-9.22,4.36h-.51c-1.03,0-1.54-.52-1.54-1.55,0-.67.09-1.09.26-1.27ZM266.36,670.94c-5.46,2.74-10.24,5.05-14.34,6.92-4.1,1.88-8.28,2.81-12.54,2.81-1.37,0-2.27-.34-2.69-1.03-.43-.67-.64-1.44-.64-2.3,0-1.88.77-3.67,2.3-5.38,1.53-1.7,3.49-3.16,5.89-4.36,2.39-1.19,5.04-2.13,7.94-2.81,2.9-.67,5.81-1.02,8.71-1.02,2.39,0,4.27.17,5.64.5,1.37.34,2.05,1.2,2.05,2.56,0,1.7-.76,3.08-2.3,4.1ZM917.37,677.6c-2.05,1.89-4.35,3.55-6.92,5-2.56,1.45-5.12,2.6-7.68,3.45-2.56.86-4.35,1.28-5.38,1.28-5.12-.17-8.79-.69-11.01-1.53-2.22-.86-3.33-2.56-3.33-5.13,0-1.19.59-2.22,1.8-3.08,1.19-.84,2.6-1.58,4.22-2.17s3.37-1.03,5.25-1.28c1.88-.25,3.59-.55,5.12-.89,2.91-.34,5.98-1.03,9.22-2.05,3.24-1.03,6.49-1.97,9.73-2.83.68,0,1.2.39,1.54,1.16.34.77.51,1.5.51,2.17,0,2.06-1.03,4.02-3.07,5.89Z"/><path class="cls-1" d="M1416.39,646.11c-1.28-.84-2.35-1.28-3.21-1.28-2.9,0-5.76.94-8.57,2.81-2.82,1.89-5.25,3.59-7.3,5.13-.86.34-1.76.69-2.69,1.03-.95.34-1.84.67-2.69,1.02-3.59,1.53-7.43,2.95-11.53,4.22-4.09,1.28-8.28,2.44-12.55,3.47-4.27,1.02-8.5,1.91-12.68,2.69-4.18.77-8.07,1.41-11.65,1.92-4.6.67-8.41,1.66-11.39,2.94-.48.2-.67.48-1.07.7-1.34.29-2.87.78-4.82,1.74-2.81,1.36-5.08,2.47-6.78,3.33-3.42,1.19-7.09,2.39-11.01,3.58-3.93,1.19-7.81,2.3-11.65,3.33-3.84,1.01-7.64,1.88-11.39,2.56-3.76.69-7.18,1.02-10.25,1.02-2.39,0-4.61-.38-6.66-1.14-2.05-.78-3.07-2.09-3.07-3.97,0-1.2.42-2.14,1.28-2.83.85-.67,1.92-1.19,3.2-1.53,1.27-.34,2.64-.64,4.1-.89,1.45-.27,2.69-.56,3.71-.91,5.46-1.7,9.65-3.83,12.55-6.39,2.9-2.56,4.35-5.55,4.35-8.97s-1.5-6.31-4.49-8.71c-2.99-2.39-6.1-3.58-9.35-3.58-2.73,0-5.46.69-8.19,2.05-2.74,1.38-5.34,3.03-7.82,5-2.48,1.95-4.61,4.1-6.4,6.39-1.79,2.31-3.12,4.49-3.97,6.53-.32.91-.29,2.18-.49,3.22-.76.31-1.6.78-2.59,1.52-1.7,1.28-3.33,2.52-4.86,3.72-7.52,4.1-14.56,7.38-21.13,9.85-6.58,2.49-11.58,3.72-14.98,3.72-.86,0-1.67-.08-2.44-.25-.77-.17-1.15-.86-1.15-2.06,0-1.36.55-2.99,1.67-4.86,1.11-1.88,3.33-4.69,6.66-8.44,3.33-3.77,7.89-8.72,13.7-14.86,5.8-6.14,13.48-14.16,23.05-24.07,1.54-1.71,3.24-3.24,5.12-4.61,1.88-1.36,3.59-2.81,5.13-4.34,1.53-1.55,3.2-2.74,4.99-3.6,1.79-.84,3.92-1.41,6.4-1.66,2.47-.27,5.42-.39,8.83-.39h12.04c7.69,0,15.37.13,23.06.39,15.05,1.33,16.2-9.14,3.19-9.35-1.97-.03-3.88-.27-5.76-.27-5.81,0-11.61.14-17.41.39-5.81.25-11.61.56-17.42.89-.51,0-1.03-.2-1.53-.63-.52-.42-.77-.98-.77-1.66,0-.52.34-1.16,1.02-1.91.68-.77,1.49-1.63,2.43-2.56.94-.92,1.92-1.81,2.95-2.67,1.02-.84,1.88-1.61,2.55-2.28,2.05-1.88,4.14-3.88,6.28-5.99,2.13-2.13,3.8-3.53,4.99-4.2,2.9-1.53,9.4-13.64,1.63-13.83-4.81-2.61-13.22,7.79-18.83,14.07h0l-15.31,18.21-3.13,1.32c-1.01.78-2.02,1.77-3.02,2.27-1.35.68-3.18,1.02-5.24,1.21l-.47.2-34.31.6c-2.43,1.05-3.77,2.49-3.77,4.42,0,1.58.73,2.6,2.17,3.03,1.45.44,3.29.66,5.51.66,2.05,0,4.74-.09,8.07-.27,3.33-.16,7.38-.25,12.17-.25.85,0,1.57.25,2.17.77.59.52.9,1.03.9,1.53s-.43,1.37-1.28,2.56c-.86,1.2-1.84,2.44-2.95,3.72-1.11,1.28-2.3,2.56-3.59,3.84-1.27,1.27-2.34,2.34-3.2,3.19-1.37,1.38-2.73,2.56-4.09,3.59-1.38,1.02-2.74,2.22-4.1,3.58-2.73,2.73-5.24,5.5-7.55,8.33-2.31,2.81-4.75,5.41-7.3,7.8-3.42,3.53-6.55,6.65-9.54,9.57-1.32.11-2.85.83-4.67,2.34-1.97,1.63-3.89,3.13-5.77,4.49-5.46,3.92-10.37,7.03-14.72,9.35-4.35,2.3-7.98,3.46-10.89,3.46-1.03,0-1.92-.17-2.69-.52-.77-.33-1.15-1.11-1.15-2.3,0-1.7.38-3.16,1.15-4.36.77-1.19,1.75-2.39,2.95-3.58,1.2-1.19,2.52-2.56,3.97-4.1,1.45-1.53,2.86-3.5,4.23-5.89.85-1.19,1.28-2.74,1.28-4.61,0-3.41-1.28-6.31-3.85-8.71-2.56-2.39-5.38-3.58-8.45-3.58-2.22,0-4.87.72-7.94,2.17-3.07,1.45-6.14,3.21-9.22,5.25-3.07,2.05-5.98,4.1-8.71,6.14-2.44,1.83-4.33,3.27-5.82,4.42-.38.14-.67.11-1.09.32-1.2.59-2.48,1.33-3.84,2.17-1.37.86-2.69,1.72-3.97,2.56-1.28.86-2.27,1.53-2.95,2.05-3.24,1.89-6.57,3.33-9.99,4.36-3.42,1.01-5.98,1.53-7.68,1.53-2.39,0-3.88-.34-4.48-1.01-.6-.69-.9-1.28-.9-1.8,0-1.53.42-3.11,1.28-4.74.85-1.63,1.28-3.11,1.28-4.49,0-1.02-.26-1.92-.77-2.69-.51-.77-1.11-1.53-1.79-2.3-.69-.78-1.37-1.55-2.05-2.31-.69-.77-1.28-1.75-1.79-2.94-1.2-2.39-3.25-4.27-6.15-5.64-2.91-1.36-6.24-2.05-9.99-2.05-3.07,0-5.98.34-8.71,1.03-2.73.67-5.55,1.53-8.45,2.56-7.68,2.39-13.41,5.58-17.16,9.6-3.75,4.02-5.64,8.24-5.64,12.68,0,3.75,1.24,6.7,3.71,8.83,2.48,2.14,5.85,3.2,10.12,3.2,3.92,0,8.66-.81,14.21-2.44,5.55-1.61,10.38-3.36,14.47-5.25,1.71-1.19,3.42-1.78,5.12-1.78,1.37,0,2.05.52,2.05,1.53.85,3.08,2.52,5.5,4.99,7.3,2.48,1.8,5.67,2.69,9.61,2.69,2.56,0,5.8-.64,9.73-1.92,3.93-1.28,7.82-2.86,11.65-4.74,3.85-1.88,7.13-3.92,9.86-6.14.66-.54.98-1.03,1.48-1.55.01,0,.03.02.05.02,1.03,0,3.03-.91,6.02-2.69,2.99-1.8,6.15-3.77,9.48-5.89,3.33-2.14,6.35-4.1,9.09-5.89,2.73-1.8,4.35-2.69,4.87-2.69.16,0,.64.13,1.41.38.77.27,1.15.81,1.15,1.67,0,1.02-2.39,3.08-7.17,6.14-1.02.69-2.27,1.75-3.71,3.21-1.45,1.45-2.86,3.16-4.23,5.13-1.37,1.96-2.52,4-3.45,6.14-.95,2.14-1.41,4.22-1.41,6.27,0,2.91,1.27,5.5,3.84,7.81,2.56,2.3,5.46,3.45,8.71,3.45,3.59,0,7.51-.94,11.78-2.81,4.26-1.88,8.54-4.1,12.8-6.66,2.82-1.69,5.26-3.43,7.77-5.16-.01.27-.09.53-.09.8,0,.86.17,1.89.51,3.08.35,1.19,1.07,2.44,2.18,3.72,1.11,1.27,2.73,2.34,4.86,3.19,2.14.86,4.99,1.28,8.58,1.28,3.24,0,6.78-.55,10.63-1.66,3.84-1.11,7.72-2.44,11.65-3.97,3.92-1.53,7.72-3.25,11.39-5.13,3.67-1.88,6.87-3.58,9.61-5.13,1.14-.64,2.06-1.24,2.92-1.82.08.35.05.7.15,1.05.68,2.39,1.8,4.54,3.33,6.41,1.54,1.88,3.5,3.45,5.89,4.74,2.39,1.28,5.38,1.92,8.96,1.92,5.12,0,10.84-.47,17.15-1.41,6.31-.94,13.41-2.69,21.26-5.25,1.88-.69,3.92-1.36,6.14-2.05,2.22-.69,4.27-1.45,6.15-2.31,1.36-.5,2.81-.97,4.35-1.41.59-.16,1.07-.44,1.62-.63.27.77.45,1.62.81,2.3,1.45,2.74,3.46,4.99,6.02,6.78,2.56,1.8,5.46,3.08,8.71,3.85,3.24.76,6.66,1.14,10.24,1.14,5.64,0,10.63-1.31,14.98-3.97,4.35-2.64,8.28-5.8,11.78-9.47,3.5-3.66,6.66-7.38,9.48-11.13,2.81-3.77,5.42-6.75,7.81-8.97,1.54-1.53,3.42-2.69,5.64-3.45,2.22-.77,4.35-1.5,6.4-2.17,2.05-.69,3.8-1.55,5.25-2.56,1.45-1.03,2.18-2.74,2.18-5.13,0-1.88-.64-3.24-1.92-4.1ZM1268.74,663.78v.25c1.88-1.7,3.92-3.28,6.15-4.74,2.21-1.45,4.1-2.17,5.63-2.17,1.02,0,1.54.34,1.54,1.02,0,1.2-.77,2.56-2.3,4.09-1.54,1.55-4.61,2.99-9.22,4.36h-.51c-1.02,0-1.54-.52-1.54-1.55,0-.67.08-1.09.26-1.27ZM1082.81,670.94c-5.46,2.74-10.24,5.05-14.34,6.92-4.09,1.88-8.28,2.81-12.54,2.81-1.37,0-2.27-.34-2.69-1.03-.43-.67-.64-1.44-.64-2.3,0-1.88.77-3.67,2.31-5.38,1.53-1.7,3.49-3.16,5.89-4.36,2.39-1.19,5.04-2.13,7.94-2.81,2.9-.67,5.81-1.02,8.71-1.02,2.39,0,4.27.17,5.64.5,1.37.34,2.05,1.2,2.05,2.56,0,1.7-.77,3.08-2.31,4.1ZM1374.77,677.6c-2.05,1.89-4.35,3.55-6.92,5-2.56,1.45-5.12,2.6-7.68,3.45-2.56.86-4.35,1.28-5.38,1.28-5.12-.17-8.79-.69-11.01-1.53-2.22-.86-3.33-2.56-3.33-5.13,0-1.19.59-2.22,1.8-3.08,1.19-.84,2.6-1.58,4.22-2.17s3.37-1.03,5.25-1.28c1.88-.25,3.59-.55,5.12-.89,2.91-.34,5.98-1.03,9.22-2.05,3.24-1.03,6.49-1.97,9.73-2.83.68,0,1.2.39,1.54,1.16.34.77.51,1.5.51,2.17,0,2.06-1.02,4.02-3.07,5.89Z"/><path class="cls-1" d="M1919.99,644.82c-2.9,0-5.76.94-8.57,2.81-2.82,1.89-5.25,3.59-7.3,5.13-.86.34-1.76.69-2.69,1.03-.95.34-1.84.67-2.69,1.02-3.59,1.53-7.43,2.95-11.53,4.22-4.1,1.28-8.28,2.44-12.55,3.47-4.27,1.02-8.5,1.91-12.68,2.69-4.18.77-8.07,1.41-11.65,1.92-4.6.67-8.41,1.66-11.4,2.94-.48.2-.67.48-1.07.7-1.34.29-2.87.78-4.82,1.74-2.81,1.36-5.08,2.47-6.78,3.33-3.41,1.19-7.09,2.39-11.01,3.58-3.93,1.19-7.81,2.3-11.65,3.33-3.84,1.01-7.64,1.88-11.4,2.56-3.76.69-7.18,1.02-10.25,1.02-2.39,0-4.61-.38-6.66-1.14-2.05-.78-3.07-2.09-3.07-3.97,0-1.2.42-2.14,1.28-2.83.85-.67,1.92-1.19,3.21-1.53,1.27-.34,2.64-.64,4.1-.89,1.45-.27,2.69-.56,3.71-.91,5.46-1.7,9.64-3.83,12.55-6.39,2.9-2.56,4.35-5.55,4.35-8.97s-1.5-6.31-4.49-8.71c-2.99-2.39-6.1-3.58-9.35-3.58-2.74,0-5.46.69-8.19,2.05-2.74,1.38-5.34,3.03-7.82,5-2.48,1.95-4.61,4.1-6.4,6.39-1.79,2.31-3.12,4.49-3.97,6.53-.19.53-.14,1.31-.29,1.89-.89.4-1.89.95-3.07,1.72-2.48,1.63-4.56,3.13-6.27,4.49-2.56,1.88-5.38,3.8-8.45,5.77-3.07,1.95-6.14,3.75-9.22,5.38-3.07,1.63-6.1,2.94-9.09,3.97-2.99,1.02-5.6,1.53-7.81,1.53-.17,0-.98-.44-2.43-1.28-1.46-.86-2.18-2.74-2.18-5.64,0-.84.34-2.2,1.02-4.1.68-1.88,1.88-4.3,3.59-7.3,1.7-2.98,4.1-6.57,7.17-10.75,3.08-4.17,6.92-9,11.53-14.46,1.53-1.03,3.02-2.14,4.48-3.33,1.45-1.2,2.95-2.39,4.49-3.59,2.9-2.39,7.35-5.83,10.06-8.26,6.69-5.99,23.21-23.54,14.7-26.25-7.38-3.3-18.27,8.95-22.2,13.13-3.92,4.19-7.6,8.24-11.01,12.16-1.37,1.72-2.65,3.38-3.84,5-1.2,1.63-2.48,3.21-3.84,4.74-5.12,5.8-9.56,11.44-13.32,16.9-1.37,1.89-2.56,3.67-3.58,5.38-1.02,1.72-1.97,3.33-2.82,4.88-.21.33-.36.63-.56.96-.59.14-1.13.18-1.84.53-1.2.59-2.48,1.33-3.84,2.17-1.37.86-2.69,1.72-3.97,2.56-1.28.86-2.27,1.53-2.95,2.05-3.24,1.89-6.57,3.33-9.99,4.36-3.42,1.01-5.98,1.53-7.68,1.53-2.39,0-3.88-.34-4.48-1.01-.6-.69-.9-1.28-.9-1.8,0-1.53.42-3.11,1.28-4.74.85-1.63,1.28-3.11,1.28-4.49,0-1.02-.26-1.92-.77-2.69-.51-.77-1.11-1.53-1.79-2.3-.69-.78-1.37-1.55-2.05-2.31-.69-.77-1.28-1.75-1.79-2.94-1.2-2.39-3.25-4.27-6.15-5.64-2.91-1.36-6.24-2.05-9.99-2.05-3.07,0-5.98.34-8.71,1.03-2.73.67-5.55,1.53-8.45,2.56-7.68,2.39-13.41,5.58-17.16,9.6-1.15,1.23-1.79,2.52-2.59,3.79-.55.15-1.14.31-1.89.56-1.8.61-3.97,1.42-6.53,2.44-2.56,1.03-5.29,2.17-8.19,3.46-2.91,1.28-5.81,2.53-8.71,3.72-.85,0-1.28-.17-1.28-.51,0-.52.08-.84.25-1.02.85-1.03,1.54-2.06,2.06-3.08.51-1.03.76-2.13.76-3.33,0-1.7-.73-3.16-2.18-4.36-1.46-1.19-3.54-1.78-6.27-1.78-3.59,0-8.04.72-13.32,2.17-5.3,1.46-12.98,4.07-23.06,7.82-1.02.5-1.96.77-2.81.77-2.05,0-3.07-.34-3.07-1.03,0-.5.42-1.11,1.28-1.78.85-.69,1.83-1.41,2.94-2.19,1.11-.77,2.18-1.49,3.2-2.17,1.02-.67,1.79-1.19,2.31-1.53,2.39-1.53,4.01-3.25,4.87-5.13.85-1.88,1.27-3.5,1.27-4.86,0-5.8-3.24-8.71-9.73-8.71-1.71,0-3.76.3-6.14.89-2.39.61-4.78,1.75-7.17,3.45-3.07,2.05-6.06,4.1-8.97,6.16-2.9,2.05-5.5,3.92-7.81,5.63-2.3,1.7-4.14,3.28-5.51,4.74,0,0,0,0,0,0-1.19.59-2.47,1.32-3.82,2.16-1.37.86-2.69,1.72-3.97,2.56-1.28.86-2.27,1.53-2.95,2.05-3.24,1.89-6.57,3.33-9.99,4.36-3.42,1.01-5.98,1.53-7.68,1.53-2.39,0-3.88-.34-4.48-1.01-.6-.69-.9-1.28-.9-1.8,0-1.53.42-3.11,1.28-4.74.85-1.63,1.28-3.11,1.28-4.49,0-1.02-.26-1.92-.77-2.69-.51-.77-1.11-1.53-1.79-2.3-.69-.78-1.37-1.55-2.05-2.31-.69-.77-1.28-1.75-1.79-2.94-1.2-2.39-3.25-4.27-6.15-5.64-2.91-1.36-6.24-2.05-9.99-2.05-3.07,0-5.98.34-8.71,1.03-2.74.67-5.55,1.53-8.45,2.56-7.68,2.39-13.41,5.58-17.16,9.6-3.75,4.02-5.64,8.24-5.64,12.68,0,3.75,1.24,6.7,3.71,8.83,2.48,2.14,5.85,3.2,10.12,3.2,3.92,0,8.66-.81,14.21-2.44,5.55-1.61,10.38-3.36,14.47-5.25,1.71-1.19,3.42-1.78,5.12-1.78,1.37,0,2.05.52,2.05,1.53.85,3.08,2.52,5.5,5,7.3,2.48,1.8,5.67,2.69,9.61,2.69,2.56,0,5.8-.64,9.73-1.92,3.93-1.28,7.81-2.86,11.65-4.74,3.85-1.88,7.13-3.92,9.86-6.14.5-.41.72-.78,1.13-1.18.95-.16,2.06-.6,3.48-1.51,1.7-1.11,3.71-2.51,6.02-4.22,2.3-1.72,4.74-3.55,7.3-5.52,2.55-1.95,5.2-3.88,7.93-5.75.52-.34,1.02-.52,1.54-.52h.26c0,.52-.43,1.19-1.28,2.05-.86.86-1.88,1.83-3.07,2.94-1.2,1.11-2.48,2.22-3.84,3.33-1.37,1.11-2.48,2.09-3.33,2.95-2.73,2.91-4.82,5.68-6.28,8.32-1.45,2.66-2.17,4.58-2.17,5.77,0,2.39.56,3.92,1.67,4.61,1.11.67,2.26,1.02,3.45,1.02,4.61,0,15.8-3.41,33.55-10.24,1.7-.86,3.8-1.67,6.28-2.44,2.47-.77,4.31-1.14,5.5-1.14.68,0,1.02.34,1.02,1.02,0,1.53-.55,3.12-1.66,4.74-1.11,1.63-1.66,3.12-1.66,4.49,0,1.7.6,3.16,1.8,4.34,1.19,1.2,2.99,1.8,5.38,1.8,1.88,0,5.29-.77,10.24-2.3,4.96-1.55,11.36-4.1,19.21-7.69,1.03-.52,2.31-1.02,3.85-1.53,1.08-.36,2.12-.87,3.16-1.35.54,2.19,1.44,4.14,3.11,5.58,2.48,2.14,5.85,3.2,10.12,3.2,3.92,0,8.66-.81,14.21-2.44,5.55-1.61,10.38-3.36,14.47-5.25,1.71-1.19,3.42-1.78,5.12-1.78,1.37,0,2.05.52,2.05,1.53.85,3.08,2.52,5.5,4.99,7.3,2.48,1.8,5.67,2.69,9.61,2.69,2.56,0,5.8-.64,9.73-1.92,3.93-1.28,7.82-2.86,11.65-4.74,1.23-.6,2.31-1.25,3.43-1.89-.2,1.07-.38,2.13-.38,3.08,0,2.05.43,3.83,1.28,5.38.85,1.53,1.88,2.86,3.07,3.97,1.2,1.11,2.39,2.05,3.59,2.81,1.19.77,2.13,1.23,2.81,1.41.85.34,1.7.52,2.56.52h2.56c1.88,0,3.67-.3,5.38-.91,1.7-.59,3.49-1.23,5.38-1.91,1.53-.52,3.2-1.03,4.99-1.55,1.79-.5,3.54-1.19,5.25-2.05,3.92-2.22,8.11-4.86,12.54-7.94,3.1-2.14,6.48-4.57,9.82-6.97.15.73.11,1.46.31,2.19.68,2.39,1.8,4.54,3.33,6.41,1.54,1.88,3.5,3.45,5.89,4.74,2.39,1.28,5.38,1.92,8.96,1.92,5.12,0,10.84-.47,17.16-1.41,6.31-.94,13.41-2.69,21.26-5.25,1.88-.69,3.92-1.36,6.14-2.05,2.22-.69,4.27-1.45,6.15-2.31,1.36-.5,2.81-.97,4.35-1.41.59-.16,1.07-.44,1.62-.63.27.77.45,1.62.81,2.3,1.46,2.74,3.46,4.99,6.02,6.78,2.56,1.8,5.46,3.08,8.71,3.85,3.24.76,6.66,1.14,10.25,1.14,5.64,0,10.63-1.31,14.98-3.97,4.35-2.64,8.28-5.8,11.78-9.47,3.5-3.66,6.66-7.38,9.48-11.13,2.81-3.77,5.42-6.75,7.81-8.97,1.54-1.53,3.42-2.69,5.64-3.45,2.22-.77,4.35-1.5,6.4-2.17,2.05-.69,3.8-1.55,5.25-2.56,1.45-1.03,2.18-2.74,2.18-5.13,0-1.88-.64-3.24-1.92-4.1-1.28-.84-2.35-1.28-3.2-1.28ZM1775.55,663.78v.25c1.88-1.7,3.92-3.28,6.15-4.74,2.21-1.45,4.1-2.17,5.63-2.17,1.02,0,1.54.34,1.54,1.02,0,1.2-.77,2.56-2.31,4.09-1.54,1.55-4.61,2.99-9.22,4.36h-.51c-1.02,0-1.54-.52-1.54-1.55,0-.67.08-1.09.26-1.27ZM1463.37,670.94c-5.46,2.74-10.24,5.05-14.34,6.92-4.1,1.88-8.28,2.81-12.54,2.81-1.37,0-2.27-.34-2.69-1.03-.43-.67-.64-1.44-.64-2.3,0-1.88.76-3.67,2.31-5.38,1.53-1.7,3.49-3.16,5.89-4.36,2.39-1.19,5.04-2.13,7.94-2.81,2.9-.67,5.81-1.02,8.71-1.02,2.39,0,4.27.17,5.64.5,1.37.34,2.05,1.2,2.05,2.56,0,1.7-.77,3.08-2.31,4.1ZM1657.75,670.94c-5.46,2.74-10.24,5.05-14.34,6.92-4.09,1.88-8.28,2.81-12.54,2.81-1.37,0-2.27-.34-2.69-1.03-.43-.67-.64-1.44-.64-2.3,0-1.88.77-3.67,2.31-5.38,1.53-1.7,3.49-3.16,5.89-4.36,2.39-1.19,5.04-2.13,7.94-2.81,2.9-.67,5.81-1.02,8.71-1.02,2.39,0,4.27.17,5.64.5,1.37.34,2.05,1.2,2.05,2.56,0,1.7-.77,3.08-2.31,4.1ZM1881.58,677.6c-2.05,1.89-4.35,3.55-6.92,5-2.55,1.45-5.12,2.6-7.68,3.45-2.56.86-4.35,1.28-5.38,1.28-5.12-.17-8.79-.69-11.01-1.53-2.22-.86-3.33-2.56-3.33-5.13,0-1.19.59-2.22,1.8-3.08,1.19-.84,2.59-1.58,4.22-2.17,1.63-.59,3.37-1.03,5.25-1.28,1.88-.25,3.59-.55,5.12-.89,2.91-.34,5.98-1.03,9.22-2.05,3.24-1.03,6.49-1.97,9.73-2.83.68,0,1.2.39,1.54,1.16.34.77.51,1.5.51,2.17,0,2.06-1.02,4.02-3.07,5.89Z"/></g></svg>