<?xml version="1.0" encoding="UTF-8"?><svg id="Layer_3" xmlns="http://www.w3.org/2000/svg" viewBox="0 0 2638.52 1184.73"><defs><style>.cls-1{fill:#382411;}</style></defs><g id="Layer_1"><path class="cls-1" d="M1106.74,640.64c1.57,13.83-.47,27.26-6.12,40.28-5.66,13.04-13.98,23.8-24.97,32.28-11.31,8.47-23.88,14.61-37.7,18.37-13.19,4.09-26.47,6.67-39.82,7.77-13.35,1.1-26.78,1.97-40.28,2.59-27.65,1.26-55.05,2.29-82.22,3.07-27.18.79-54.58,1.34-82.22,1.65-3.15,0-5.19-.47-6.12-1.42-2.21-1.25-3.15-3.22-2.83-5.88.31-2.67,1.41-4.78,3.3-6.37,1.57-1.57,3.54-2.59,5.88-3.06,2.36-.47,4.78-1.02,7.3-1.65,6.29-1.26,12.41-3.54,18.37-6.83,5.96-3.3,10.52-7.77,13.67-13.43,2.51-4.4,4.07-9.03,4.72-13.9.62-4.86,1.41-9.82,2.35-14.85.95-5.33,1.97-10.52,3.07-15.55,1.1-5.03,1.81-10.2,2.12-15.55.31-4.4.08-8.72-.71-12.96-.78-4.25-1.49-8.55-2.12-12.96-1.57-10.68-2.2-21.28-1.88-31.8.31-10.52.31-21.12,0-31.8,0-2.2-.48-5.19-1.42-8.95-.94-3.78-1.41-6.92-1.41-9.43.31-10.99.86-21.9,1.65-32.74.78-10.84.86-21.75.23-32.75-.31-4.7-.87-9.42-1.65-14.13-.79-4.72-2.05-9.19-3.77-13.43-1.73-4.25-4.01-8.01-6.83-11.31-2.83-3.3-6.29-5.9-10.36-7.77-3.47-1.26-6.92-2.2-10.37-2.83-3.46-.63-6.59-1.73-9.42-3.3-3.15-1.89-5.11-4.86-5.88-8.95-.79-4.09.39-6.92,3.52-8.48,1.26-.63,3.46-.95,6.59-.95,19.47-.31,38.8-.47,57.96-.47s38.48-.15,57.95-.47c12.26,0,24.43.08,36.52.24,12.09.16,24.11.55,36.05,1.18,8.48.63,16.97,1.49,25.44,2.59,8.48,1.1,16.34,3.7,23.56,7.77,11.62,6.29,20.5,15.63,26.63,28.04,6.12,12.41,8.55,25.06,7.3,37.93-.95,13.2-5.19,25.45-12.73,36.76-7.53,11.3-16.95,20.25-28.26,26.86-1.89,1.26-3.7,2.52-5.41,3.77-1.74,1.26-2.44,2.99-2.13,5.19,0,1.88.71,3.46,2.13,4.7,1.41,1.26,2.89,2.36,4.48,3.3,5.33,2.52,10.67,4.8,16.01,6.83,5.33,2.05,10.52,4.33,15.55,6.83,12.25,6.29,22.38,15.32,30.39,27.1,8.01,11.78,12.64,24.73,13.9,38.86ZM1028.06,669.38c3.14-8.48,4.86-16.5,5.17-24.03,0-9.42-2.35-18.29-7.06-26.63-4.72-8.31-10.68-15.47-17.9-21.43-7.22-5.66-15.16-10.21-23.8-13.67-8.63-3.46-17.5-6.43-26.62-8.95-5.66-1.57-11.15-2.36-16.5-2.36-4.4.32-8.47,1.03-12.25,2.12-3.77,1.11-7.69,2.29-11.78,3.54-1.88.63-3.77,1.5-5.64,2.59-1.89,1.11-3.47,2.44-4.72,4.01-.63,1.26-1.1,2.52-1.42,3.78-.31,1.26-.63,2.67-.94,4.23-.94,5.98-1.65,11.86-2.12,17.66-.47,5.82-.4,11.86.24,18.15,0,1.89.07,4.33.23,7.3.16,2.99.24,5.27.24,6.83.31,5.35.54,10.44.7,15.3.16,4.88.4,9.82.71,14.85.31,6.59,1.1,13.27,2.36,20.02,1.25,6.77,4.4,12.33,9.42,16.72,4.72,4.41,10.37,7,16.97,7.77,6.59.79,13.03,1.03,19.31.71,9.74-.63,19.47-1.65,29.22-3.06,9.73-1.42,18.21-5.27,25.45-11.55,5.33-4.4,9.57-9.57,12.72-15.55,3.14-5.96,5.8-12.09,8.01-18.37ZM905.08,450.75c-.31,4.41-.7,8.72-1.18,12.96-.47,4.25-1.02,8.56-1.65,12.96,0,1.26.31,2.91.95,4.95.62,2.05.94,3.86.94,5.43,0,8.47.07,16.89.24,25.21.15,8.32,1.49,16.42,3.99,24.26.63.94,1.1,1.89,1.42,2.83.31.94.78,1.89,1.41,2.83,1.26,1.58,3.14,2.52,5.66,2.83,7.22,2.52,14.77,3.62,22.62,3.3,7.84-.31,15.71-1.1,23.56-2.36,4.4-.62,8.63-1.33,12.72-2.12,4.07-.78,7.85-2.12,11.31-4.01,4.07-2.18,7.61-4.86,10.6-8,2.98-3.14,5.72-6.61,8.24-10.37,5.33-9.1,8.56-19.08,9.66-29.91,1.1-10.84-.08-21.28-3.54-31.33-1.57-4.72-3.46-8.64-5.66-11.78-1.88-2.52-4.09-4.72-6.59-6.61-2.52-1.88-5.03-3.6-7.53-5.17-8.17-5.35-16.9-8.95-26.16-10.84-9.26-1.89-18.78-2.99-28.5-3.3h-13.19c-4.41,0-8.17,1.41-11.31,4.23-3.15,3.15-5.27,6.83-6.37,11.07-1.1,4.25-1.65,8.56-1.65,12.96Z"/><path class="cls-1" d="M1533.16,732.99c.94,1.58,1.49,3.3,1.65,5.19.15,1.89-.71,3.62-2.6,5.19-1.25.94-2.59,1.57-3.99,1.88-1.42.32-2.91.48-4.48.48-3.78,0-7.08.08-9.9.23-2.83.16-5.49.4-8,.71-2.52.31-5.12.63-7.79.94-2.67.31-5.88.47-9.65.47h-14.14c-5.03,0-10.21-.16-15.55-.47-5.35-.31-10.53-.78-15.55-1.41-5.04-.63-9.6-1.57-13.67-2.83-9.11-2.83-16.81-6.92-23.09-12.25-6.29-5.35-13.04-11.15-20.26-17.44-4.4-4.09-8.71-8.08-12.96-12.02-4.23-3.93-8.71-8.4-13.43-13.43-4.7-5.01-9.89-11.07-15.55-18.13-5.66-7.08-12.25-15.79-19.78-26.16-4.72-6.27-10.53-13.74-17.44-22.38-6.92-8.63-13.51-15.93-19.79-21.91-2.83-2.51-5.88-4.48-9.19-5.88-3.3-1.42-6.51-2.43-9.65-3.07-3.15-.62-6.12-.94-8.95-.94s-4.88.32-6.12.94c-3.47,1.26-6.29,3.94-8.48,8.01-2.2,4.09-3.46,8.01-3.77,11.78-.64,13.83-.56,26.47.23,37.93.78,11.47,2.28,24.27,4.48,38.41.63,6.59,2.12,13.19,4.48,19.78,2.36,6.61,6.67,11.31,12.96,14.14,4.4,2.2,9.19,3.38,14.37,3.54,5.19.16,9.66,2.12,13.43,5.88,3.78,3.15,4.56,6.92,2.36,11.31-1.26,2.52-2.99,3.93-5.19,4.25-2.2.31-4.4.47-6.59.47-16.01-.31-31.88-.55-47.59-.71-15.71-.16-31.56-.55-47.59-1.18-7.22,0-14.3.16-21.2.47-6.92.32-13.98.47-21.2.47-3.15.32-5.82.48-8.01.48s-4.56-.63-7.06-1.89c-2.52-1.25-3.94-3.14-4.25-5.66-.31-2.83,1.26-5.19,4.72-7.06,2.83-1.89,5.88-3.14,9.19-3.78,3.3-.62,6.59-1.18,9.89-1.65s6.43-1.1,9.42-1.88c2.99-.79,5.72-2.44,8.24-4.96,3.78-3.44,6.43-7.61,8.01-12.48,1.57-4.86,2.67-9.81,3.3-14.85.94-7.84,1.42-15.85,1.42-24.03,0-17.9.07-35.65.23-53.24.16-17.58.24-35.34.24-53.24v-20.73c-.63-13.82-1.34-27.55-2.12-41.22-.79-13.67-1.82-27.41-3.07-41.22-.32-3.78-.79-7.46-1.41-11.08-.64-3.6-1.89-6.98-3.78-10.12-3.46-5.35-8.08-9.19-13.9-11.55-5.82-2.36-11.54-4.78-17.19-7.3-1.58-.62-2.99-1.41-4.25-2.36-1.26-.94-1.88-2.18-1.88-3.77-.63-2.2.15-4.07,2.36-5.66,1.57-1.57,3.36-2.43,5.41-2.59,2.04-.16,4.15-.24,6.37-.24,22.61.32,44.91.56,66.9.71,21.98.16,44.29.4,66.91.71,16.32,0,33.05.71,50.17,2.12,17.11,1.42,32.9,5.74,47.35,12.96,6.92,3.14,12.73,6.92,17.44,11.31,4.72,4.7,8.79,10.52,12.25,17.44,4.4,8.79,7.14,18.07,8.26,27.79,1.09,9.74.54,19.39-1.65,28.97-2.21,9.58-5.82,18.69-10.84,27.33-5.03,8.64-11.31,15.95-18.84,21.91-5.04,3.77-10.92,7.85-17.68,12.25-6.75,4.41-13.43,7.71-20.02,9.9-3.15,1.26-5.51,2.04-7.08,2.35-1.57.64-2.67,1.82-3.3,3.54-.63,1.73-.16,3.38,1.42,4.95,5.03,5.03,10.91,10.6,17.66,16.72,6.75,6.12,13.74,12.49,20.97,19.08,7.22,6.61,14.53,13.28,21.91,20.04,7.37,6.75,14.37,13.27,20.96,19.55,1.26,1.26,4.95,4.7,11.07,10.36,6.14,5.66,13.44,11.78,21.91,18.37,8.48,6.61,17.6,13.04,27.34,19.32,9.73,6.29,18.84,10.68,27.33,13.19,2.18.63,4.54,1.11,7.06,1.42,2.51.31,5.03.7,7.55,1.18,2.51.47,4.78,1.18,6.82,2.12,2.05.94,3.85,2.36,5.43,4.23ZM1249.51,554.88c3.78,4.41,9.03,7.38,15.79,8.95,6.75,1.58,12.96,2.21,18.61,1.89,7.22-.31,14.37-1.1,21.44-2.36,7.06-1.25,13.58-3.93,19.55-8,6.9-4.72,12.17-10.92,15.79-18.61,3.6-7.69,6.66-15.63,9.18-23.8,1.57-5.33,2.83-10.83,3.77-16.48.95-5.66,1.1-11.31.48-16.97-.64-4.4-1.58-8.55-2.83-12.49-1.26-3.91-2.68-7.92-4.25-12.01-.63-1.57-1.26-3.07-1.88-4.48-.64-1.42-1.42-2.75-2.36-4.01-1.26-1.57-2.6-2.83-4.01-3.77-1.42-.95-2.91-1.89-4.48-2.83-15.08-7.85-30.94-11.31-47.59-10.37-5.03.32-10.76,1.18-17.19,2.6-6.45,1.41-11.39,3.85-14.85,7.3-3.14,2.81-5.41,6.2-6.83,10.12-1.41,3.94-2.44,8.09-3.06,12.49-.63,4.09-1.03,8.17-1.18,12.25-.16,4.09-.55,8.17-1.18,12.25-.32,2.21-.4,4.96-.24,8.26.16,3.3.08,6.04-.23,8.24-.63,5.66-.79,11-.47,16.01.31,5.04.78,10.37,1.41,16.03.63,3.46,1.26,7,1.89,10.6.62,3.6,2.2,6.67,4.7,9.18Z"/><path class="cls-1" d="M1544.46,544.05c0-1.89.24-4.78.71-8.72.47-3.93.55-6.83.24-8.71-.64-9.11-.79-18.07-.48-26.86.31-8.79.31-17.74,0-26.86,0-4.09-.08-8.08-.23-12.02-.16-3.93-.87-7.77-2.12-11.54-1.89-6.29-4.96-11.78-9.19-16.5-4.23-4.7-9.35-8.31-15.32-10.83-1.88-.63-3.69-1.49-5.41-2.6-1.73-1.1-2.91-2.59-3.54-4.48-.94-1.88-.63-3.93.95-6.12,1.88-3.14,4.7-5.01,8.48-5.66,3.77-.62,7.53-.78,11.3-.47,18.21.63,36.76,1.11,55.6,1.42,18.84.31,37.38.78,55.6,1.41,1.88,0,3.14.16,3.77.47,2.51.95,3.69,2.83,3.54,5.66-.16,2.83-1.18,5.19-3.07,7.08-1.88,1.57-4.4,2.75-7.53,3.52-3.15.79-5.98,1.81-8.48,3.07-6.59,3.77-11.07,9.5-13.43,17.19-2.36,7.71-3.86,15.32-4.48,22.85-3.15,30.47-4.64,61.02-4.48,91.65.15,30.62,3.85,60.71,11.07,90.22,1.25,4.41,2.67,8.89,4.23,13.43,1.57,4.56,3.93,8.56,7.08,12.02,4.7,5.66,10.44,10.05,17.19,13.19,6.75,3.15,13.27,6.77,19.55,10.84,3.46,2.2,6.75,4.48,9.89,6.83,3.14,2.36,6.61,3.85,10.37,4.48,1.25.31,3.54.71,6.83,1.18,3.3.47,6.83.94,10.6,1.41,3.77.47,7.37,1.03,10.83,1.65,3.46.64,5.96,1.11,7.55,1.42,8.79,2.2,17.82,2.67,27.1,1.41,9.26-1.25,18.05-3.85,26.37-7.77,8.32-3.93,16.1-9.02,23.33-15.32,7.22-6.27,13.35-13.19,18.37-20.73,10.36-15.69,17.11-32.74,20.26-51.11,3.14-18.37,4.07-36.83,2.83-55.36-.63-10.99-1.65-21.75-3.07-32.28-1.41-10.52-1.96-21.27-1.65-32.27.31-6.9.71-13.74,1.18-20.49.47-6.75.24-13.59-.71-20.5-.94-6.59-3.14-13.03-6.59-19.31-3.46-6.29-8.17-10.84-14.14-13.67-3.14-1.57-6.29-3.06-9.42-4.48-3.14-1.41-4.86-3.85-5.19-7.3-.31-4.07,1.57-6.9,5.66-8.48,4.09-1.57,8.17-2.36,12.25-2.36,14.77,0,29.38-.07,43.82-.23,14.45-.16,29.22-.39,44.29-.71,1.57,0,3.3.16,5.19.47,1.88.32,3.3,1.26,4.23,2.83,1.26,1.58,1.49,3.38.71,5.43-.79,2.04-1.97,3.69-3.54,4.95-1.57,1.26-3.3,2.2-5.17,2.83-1.89.63-3.78,1.26-5.66,1.88-8.17,3.47-13.91,9.43-17.21,17.9-3.3,8.48-5.74,17.13-7.3,25.92-3.77,25.14-5.17,50.42-4.23,75.87.63,10.68,1.33,21.28,2.12,31.8.78,10.52.86,21.12.24,31.8-1.58,18.84-6.29,36.83-14.14,53.95-7.85,17.11-18.37,32.27-31.57,45.46-13.19,13.2-28.26,23.72-45.23,31.57-16.95,7.85-34.87,12.56-53.71,14.14-12.25.94-24.5.62-36.75-.95-12.25-1.57-24.35-3.6-36.28-6.12-13.2-3.14-26.16-7.06-38.88-11.78-12.72-4.7-24.27-11.46-34.63-20.25-11.31-10.05-20.02-21.99-26.15-35.81-6.12-13.83-10.29-28.28-12.49-43.35-2.52-15.08-3.38-29.6-2.59-43.58.78-13.98,1.01-28.5.7-43.58Z"/><path class="cls-1" d="M1981.71,522.85c.31-2.83.78-6.45,1.41-10.84.63-4.4.95-8.01.95-10.84.62-8.16.47-16.4-.48-24.74-.94-8.31-2.04-16.56-3.3-24.73-.63-4.72-1.81-9.43-3.52-14.14-1.73-4.72-4.48-8.32-8.26-10.84-2.52-1.57-5.25-2.67-8.24-3.3-2.99-.63-5.88-1.18-8.71-1.65-2.83-.47-5.51-1.25-8.01-2.36-2.52-1.1-4.41-2.89-5.66-5.41-.63-.63-1.1-1.49-1.41-2.59-.32-1.1-.17-1.97.47-2.6.62-1.88,1.8-3.14,3.52-3.77,1.73-.63,3.38-.94,4.96-.94,5.64-.63,11.3-1.02,16.95-1.18,5.66-.16,11.31-.24,16.97-.24h100.36c2.51,0,5.25.55,8.24,1.65,2.99,1.11,4.48,2.91,4.48,5.43,0,1.88-1.1,3.93-3.3,6.12-2.2,1.88-4.8,3.38-7.77,4.48-2.99,1.1-5.9,2.2-8.72,3.3-2.83,1.1-5.57,2.28-8.24,3.52-2.67,1.26-4.8,3.15-6.37,5.66-1.25,2.21-2.04,4.56-2.35,7.08-.32,2.52-.64,5.03-.95,7.53-2.52,29.84-4.56,59.61-6.12,89.29-1.57,29.68-1.57,59.6,0,89.75.31,9.43.79,18.94,1.42,28.52.62,9.58.94,19.07.94,28.5s-.71,18.76-2.12,28.04c-1.42,9.26-3.7,18.29-6.83,27.08-3.46,9.42-7.06,18.37-10.84,26.86-3.77,8.48-8.79,16.81-15.08,24.98-3.46,4.4-7.3,9.65-11.54,15.77-4.23,6.12-8.56,10.92-12.96,14.38-5.03,4.4-10.29,8.08-15.79,11.07-5.49,2.98-11.23,5.88-17.19,8.71-4.09,2.2-8.64,3.78-13.67,4.72-5.03.94-9.73,1.89-14.13,2.83-7.55,1.57-15.16,1.18-22.86-1.18-7.69-2.36-15.14-4.48-22.38-6.37-4.07-.94-8-3.22-11.77-6.82-3.78-3.62-6.61-7.16-8.48-10.6-2.2-3.78-2.67-8.72-1.42-14.85,1.26-6.12,3.3-10.92,6.12-14.37,2.83-3.15,6.29-5.43,10.37-6.83,4.09-1.42,8.24-1.97,12.48-1.65,4.25.31,8.34,1.41,12.26,3.3,3.93,1.89,7.29,4.4,10.12,7.53,1.26,1.57,2.36,4.01,3.31,7.3.94,3.31,2.04,5.74,3.3,7.3,3.77,4.09,8.55,6.2,14.37,6.37,5.8.16,11.23-1.02,16.26-3.54,6.29-3.14,11.38-7.53,15.32-13.19,3.91-5.66,7.13-11.78,9.65-18.37,2.2-6.29,3.62-12.89,4.25-19.79.62-6.92,1.1-13.83,1.41-20.73.95-18.21,1.34-36.44,1.18-54.65-.16-18.21-.47-36.44-.94-54.66-.47-18.21-.94-36.43-1.42-54.65-.47-18.21-.55-36.44-.23-54.65Z"/><path class="cls-1" d="M2169.7,518.6c-.32-2.2-.63-4.95-.94-8.24-.32-3.3-.64-6.04-.95-8.24,0-4.4.16-8.87.47-13.43.32-4.56.63-9.03.95-13.43,0-5.03-.08-10.92-.24-17.68-.16-6.75-1.49-12.32-4.01-16.72-3.46-5.96-8.32-9.66-14.61-11.07-6.29-1.42-12.72-3.07-19.31-4.95-1.58-.63-3.15-1.26-4.72-1.89-1.57-.63-2.67-1.73-3.3-3.3-.63-1.89-.94-3.14-.94-3.77.31-2.52,1.33-4.78,3.06-6.83,1.73-2.04,3.85-3.54,6.37-4.48,2.2-1.26,4.64-1.96,7.3-2.12,2.67-.16,5.25-.4,7.77-.71,5.33-.31,10.84-.55,16.5-.71,5.66-.15,11.14-.07,16.48.24,14.77.63,29.84,1.41,45.23,2.35,15.4.95,30.31.17,44.77-2.35,3.14-.63,6.51-.24,10.12,1.18,3.62,1.41,5.9,3.69,6.83,6.82.63,2.83-.31,5.35-2.83,7.55-2.52,2.2-5.17,3.93-8,5.19-2.83,1.26-6.22,2.52-10.13,3.77-3.94,1.26-7.46,2.52-10.6,3.77-2.21.95-4.25,1.97-6.12,3.07-1.89,1.1-3.62,2.59-5.19,4.48-2.2,2.52-3.54,5.35-4.01,8.48-.47,3.14-.71,6.43-.71,9.89-.94,27.33-1.49,54.5-1.65,81.51-.16,27.02-.08,54.36.24,81.99v67.38c0,2.51.07,5.17.23,8,.16,2.83.87,5.51,2.13,8.01,1.57,4.4,4.07,7.93,7.53,10.6,3.46,2.67,7.38,4.95,11.78,6.83,4.07,1.88,8.16,3.46,12.25,4.7,4.07,1.26,8.16,2.99,12.25,5.19,1.57.63,2.91,1.42,4.01,2.36,1.1.94,1.96,2.2,2.59,3.77.63,3.15-.47,5.66-3.3,7.55-2.83,1.88-5.82,3.14-8.95,3.77-5.96.94-11.94,1.1-17.9.47-5.96-.63-12.09-1.25-18.37-1.88-9.74-.95-19.47-1.34-29.22-1.18-9.73.16-19.47.47-29.2.94-9.74.47-19.49.94-29.22,1.41-9.74.48-19.49.4-29.22-.23-1.58,0-3.23-.16-4.95-.47-1.73-.31-3.07-1.26-4.01-2.83-2.2-2.52-2.2-5.19,0-8.01,2.2-2.83,4.7-5.03,7.53-6.59,5.66-2.52,11.62-4.25,17.9-5.19,6.29-.94,11.78-3.46,16.5-7.53,5.96-4.72,9.66-11,11.07-18.86,1.42-7.84,2.12-15.55,2.12-23.09.63-26.07.95-51.98.95-77.74s-.79-51.66-2.36-77.74Z"/><path class="cls-1" d="M2365.24,518.14c-.32-7.22-.87-14.21-1.65-20.97-.79-6.74-1.03-13.74-.71-20.96.31-7.22.31-15.08,0-23.56-.32-8.48-3.15-14.92-8.48-19.32-4.09-3.44-9.03-6.19-14.84-8.24-5.82-2.04-10.45-5.25-13.9-9.66-1.26-1.57-2.05-2.98-2.36-4.23-.32-1.25.15-2.67,1.41-4.23,1.26-2.52,2.91-3.93,4.95-4.25,2.05-.31,4.32-.63,6.83-.94,19.16-.31,38.8-.16,58.9.47,20.1.63,39.88.79,59.37.47h14.14c4.7,0,9.26.63,13.66,1.89,1.89.31,3.22,1.41,4.01,3.3.78,1.89.55,3.62-.71,5.19-1.88,2.52-4.32,4.7-7.3,6.59-2.99,1.89-6.04,3.62-9.18,5.19-4.41,1.88-8.64,3.77-12.72,5.66-4.09,1.88-7.71,4.56-10.84,8-3.77,4.41-6.12,9.35-7.06,14.85-.95,5.49-1.58,11.07-1.89,16.72-1.26,24.5-2.28,48.93-3.07,73.27-.78,24.35-.55,48.77.71,73.27.63,7.55,1.02,15.08,1.18,22.62.16,7.53-.24,15.08-1.18,22.61-.94,6.61-1.89,13.36-2.83,20.26-.94,6.92.31,13.36,3.77,19.32,2.2,4.09,5.35,7.22,9.43,9.42,4.07,2.2,8.39,3.85,12.95,4.95,4.56,1.1,9.19,1.81,13.91,2.12,4.7.32,9.1.63,13.19.94,5.03.32,10.05.48,15.08.48h15.08c7.55,0,15.16-.31,22.85-.95,7.69-.62,15.32-1.8,22.86-3.52,7.53-1.73,14.59-4.32,21.2-7.77,6.59-3.46,12.4-8.01,17.44-13.67,4.7-5.33,8.87-11.15,12.48-17.44,3.6-6.29,8.4-11.15,14.38-14.61,1.57-.94,3.22-1.57,4.95-1.88,1.72-.32,3.36.31,4.95,1.88,1.57,1.58,2.36,4.09,2.36,7.55-.95,11.31-2.29,22.69-4.01,34.16-1.73,11.47-3.85,22.85-6.37,34.16-.31,1.57-.71,3.06-1.18,4.48-.47,1.41-1.34,2.59-2.59,3.52-1.26.95-2.59,1.5-4.01,1.65-1.41.17-2.91.24-4.48.24-39.27,0-78.14-.07-116.62-.24-38.48-.15-77.19-.39-116.14-.7-9.74-.31-19.49-.47-29.22-.47h-29.22c-1.88,0-3.85-.32-5.88-.95-2.05-.62-3.38-2.04-4.01-4.23-.32-1.57-.08-3.46.71-5.66.78-2.2,1.96-3.6,3.52-4.25l26.39-9.89c2.51-1.25,4.95-2.51,7.3-3.77,2.36-1.26,4.32-2.99,5.9-5.19,1.25-1.89,2.04-3.85,2.35-5.88.31-2.05.63-4.17.95-6.37,1.25-14.14,1.96-28.34,2.12-42.64.15-14.29.15-28.65,0-43.11-.16-14.45-.24-28.81-.24-43.11s.48-28.5,1.42-42.64v-9.89Z"/><path class="cls-1" d="M897.83,927.8c.29,0,.44.58.44,1.76,0,1.61-1.17,3.36-3.51,5.27-2.35,1.9-5.16,3.66-8.46,5.27-3.29,1.61-6.62,2.96-9.99,4.06-3.37,1.1-6.14,1.65-8.34,1.65-3.37,0-6.11-.76-8.24-2.31-2.12-1.54-3.55-3.62-4.28-6.26,0-.87-.58-1.31-1.76-1.31-1.46,0-2.93.51-4.39,1.53-3.51,1.62-7.65,3.12-12.41,4.5-4.76,1.39-8.82,2.09-12.18,2.09-3.67,0-6.55-.91-8.68-2.75-2.12-1.82-3.18-4.36-3.18-7.57,0-3.81,1.61-7.42,4.83-10.87,3.22-3.44,8.13-6.18,14.71-8.23,2.49-.88,4.9-1.62,7.24-2.2,2.34-.59,4.83-.88,7.46-.88,3.22,0,6.07.59,8.56,1.76,2.49,1.18,4.24,2.79,5.27,4.84.44,1.02.94,1.86,1.53,2.52.58.66,1.17,1.31,1.76,1.98.58.66,1.1,1.31,1.53,1.97.44.66.66,1.43.66,2.31,0,1.18-.37,2.45-1.1,3.85-.74,1.39-1.1,2.75-1.1,4.06,0,.44.25.95.77,1.54.51.58,1.79.87,3.84.87,1.46,0,3.66-.44,6.59-1.31,2.93-.88,5.78-2.12,8.56-3.74.58-.44,1.43-1.02,2.53-1.76,1.1-.72,2.23-1.46,3.4-2.2,1.17-.72,2.26-1.35,3.29-1.86,1.03-.51,1.9-.76,2.64-.76s1.09.21,1.09.66.29.95.88,1.54ZM851.5,926.47c1.32-.87,1.98-2.05,1.98-3.51,0-1.17-.58-1.9-1.76-2.2-1.17-.28-2.78-.43-4.83-.43-2.49,0-4.98.29-7.46.87-2.49.59-4.76,1.39-6.81,2.41-2.05,1.03-3.73,2.28-5.05,3.74-1.32,1.46-1.98,3-1.98,4.61,0,.74.18,1.39.55,1.97.36.59,1.13.88,2.31.88,3.66,0,7.24-.8,10.75-2.41,3.52-1.61,7.61-3.59,12.3-5.94Z"/><path class="cls-1" d="M945.4,873.39c7.3,2.32-6.87,17.37-12.6,22.51-2.32,2.08-6.14,5.03-8.62,7.08-1.32,1.03-2.6,2.05-3.85,3.08-1.25,1.02-2.53,1.97-3.84,2.85-3.95,4.68-7.24,8.82-9.88,12.4-2.63,3.59-4.68,6.66-6.14,9.22-1.47,2.57-2.49,4.65-3.08,6.26-.58,1.62-.88,2.79-.88,3.51,0,2.49.62,4.1,1.87,4.84,1.24.72,1.94,1.1,2.08,1.1,1.9,0,4.13-.44,6.69-1.31,2.56-.88,5.16-2.01,7.79-3.4,2.64-1.39,5.27-2.93,7.91-4.61,2.63-1.69,5.05-3.34,7.24-4.95,1.47-1.17,3.26-2.45,5.38-3.85,2.12-1.39,3.7-2.08,4.72-2.08,2.04,0,3.08,1.17,3.08,3.51,0,.72-.11,1.57-.34,2.52-.21.95-.7,1.58-1.43,1.86-4.24,3.08-8.27,5.94-12.07,8.56-3.81,2.64-7.39,4.9-10.75,6.81-1.47.74-2.97,1.33-4.5,1.76-1.54.44-2.97.88-4.28,1.33-1.61.58-3.15,1.13-4.61,1.63-1.47.52-3,.78-4.61.78h-2.2c-.74,0-1.47-.15-2.2-.44-.58-.15-1.39-.55-2.41-1.21-1.03-.66-2.05-1.46-3.08-2.41-1.03-.95-1.9-2.09-2.63-3.4-.73-1.33-1.1-2.85-1.1-4.61,0-2.05.55-4.44,1.65-7.14,1.1-2.71,2.67-5.67,4.72-8.89.73-1.33,1.54-2.71,2.42-4.18.88-1.46,1.9-2.99,3.07-4.61,3.22-4.68,7.03-9.52,11.42-14.49,1.17-1.31,2.27-2.67,3.3-4.06,1.02-1.39,2.12-2.81,3.29-4.29,2.93-3.36,6.08-6.83,9.44-10.43,3.37-3.58,12.71-14.08,19.04-11.25"/><path class="cls-1" d="M987.85,926.04c1.46,0,2.34.43,2.63,1.31.29.87.44,2.05.44,3.51,0,.87-.29,1.69-.88,2.41-.58.74-1.24,1.25-1.98,1.54-3.07,1.31-6.04,2.63-8.89,3.95-2.85,1.31-5.6,2.56-8.23,3.73-6,2.49-11.09,4.25-15.26,5.28-4.17,1.02-7.87,1.53-11.09,1.53-2.78,0-5.3-.7-7.57-2.08-2.26-1.39-3.4-3.78-3.4-7.14,0-1.31.25-3.07.77-5.27.52-2.2,1.43-4.25,2.74-6.15.88-.87,1.8-1.82,2.75-2.85.95-1.02,1.94-2.05,2.96-3.07.44-.44.95-.99,1.54-1.65.58-.66,1.28-1.35,2.08-2.09.8-.72,1.61-1.35,2.41-1.86.8-.51,1.57-.76,2.31-.76,1.17,0,2.35.32,3.52.98,1.17.66,1.76,1.58,1.76,2.75,0,1.61-.37,2.85-1.1,3.74-2.93,2.92-5.68,5.78-8.24,8.56-2.56,2.77-3.84,4.97-3.84,6.58,0,1.46,1.02,2.2,3.08,2.2,1.31,0,3.29-.36,5.92-1.1,2.64-.72,5.56-1.65,8.78-2.75,3.22-1.1,6.48-2.33,9.77-3.73,3.3-1.39,6.26-2.67,8.89-3.85,1.61-.72,3.04-1.54,4.28-2.41,1.25-.88,2.53-1.31,3.85-1.31ZM970.72,907.59c-1.61,0-3.12-.68-4.5-2.08-1.39-1.39-2.08-2.89-2.08-4.5,0-1.03.4-2.05,1.21-3.08.8-1.02,1.72-1.93,2.75-2.73,1.02-.8,2.04-1.43,3.07-1.88,1.03-.43,1.76-.66,2.2-.66,1.61,0,3.08.7,4.39,2.09,1.32,1.39,1.98,3.04,1.98,4.93,0,2.06-1.06,3.89-3.18,5.49s-4.06,2.41-5.82,2.41Z"/><path class="cls-1" d="M1114.1,925.81c1.61,0,2.52.48,2.74,1.43s.18,2.16-.11,3.62c-.29,2.05-1.17,3.59-2.63,4.61-1.47,1.03-3,1.97-4.62,2.85-1.46.74-3.44,1.76-5.92,3.07-2.49,1.33-4.4,2.28-5.71,2.85-4.25,2.05-7.8,3.48-10.65,4.29-2.85.8-5.31,1.21-7.35,1.21-2.93,0-5.09-.84-6.48-2.52-1.39-1.69-2.08-3.34-2.08-4.95,0-1.76.58-3.66,1.76-5.71,0-.15.07-.29.22-.44,0-.15-.15-.21-.44-.21h-.44c-2.06,1.02-4.1,1.9-6.15,2.63-2.05.74-3.88,1.54-5.49,2.43-4.69,2.48-8.28,4.34-10.76,5.59-2.49,1.25-4.54,1.88-6.14,1.88-1.32,0-2.39-.23-3.18-.66-.81-.44-1.39-.92-1.76-1.43-.36-.51-.62-1.21-.76-2.09,0-1.61.58-3.43,1.76-5.48,1.17-2.05,2.34-3.87,3.51-5.49.15-.15.22-.36.22-.66s-.15-.58-.44-.88c-.29-.28-.58-.43-.88-.43h-.66c-10.98,4.97-19.62,9.14-25.91,12.52-6.29,3.36-11.41,5.04-15.36,5.04-1.47,0-2.89-.47-4.28-1.42-1.39-.95-2.16-2.24-2.31-3.85,0-.87.21-1.82.66-2.85.44-1.02,1.39-2.31,2.85-3.83,1.46-1.54,3.48-3.52,6.04-5.94,2.56-2.41,6.04-5.52,10.43-9.33.14,0,.21-.08.21-.23,0-.43-.15-.66-.44-.66h-.22c-1.9.88-3.99,1.88-6.26,2.96-2.27,1.1-5.09,2.47-8.45,4.07-.59.29-1.47.76-2.64,1.42-1.17.66-2.38,1.31-3.62,1.98-1.25.66-2.45,1.27-3.63,1.86-1.17.59-2.05.87-2.63.87-.88,0-1.76-.28-2.63-.87-.88-.59-1.32-1.46-1.32-2.64,0-.87.25-1.57.77-2.08.51-.52,1.13-.99,1.86-1.43,5.41-3.07,10.65-6.11,15.7-9.11,5.05-3,9.04-5.08,11.97-6.26,2.78-1.17,5.12-1.9,7.03-2.2,1.9-.28,3.44-.43,4.61-.43,2.77,0,4.53.7,5.27,2.08.73,1.39,1.1,2.68,1.1,3.85,0,1.46-.44,2.75-1.32,3.85-.88,1.1-2.63,2.67-5.27,4.72-1.17,1.02-2.2,2.05-3.08,3.07-.88,1.03-1.83,1.9-2.85,2.64-1.03.87-2.41,1.84-4.17,2.85-1.76,1.02-2.64,1.9-2.64,2.63,0,.44.37.67,1.1.67.15,0,.29-.08.44-.23,2.49-1.17,5.63-2.6,9.44-4.28,3.81-1.69,7.65-3.34,11.53-4.95,3.88-1.61,7.46-3,10.76-4.17,3.29-1.17,5.74-1.76,7.35-1.76s2.93.51,3.95,1.53c1.03,1.03,1.54,2.35,1.54,3.95,0,1.18-.44,2.45-1.32,3.85-.88,1.39-1.32,2.45-1.32,3.19,0,.87.37,1.31,1.1,1.31.44,0,.95-.15,1.54-.44,6.14-3.22,11.34-5.78,15.59-7.68,4.24-1.9,7.61-2.85,10.1-2.85,1.61,0,2.93.44,3.95,1.31,1.03.88,1.54,1.98,1.54,3.3,0,1.02-.41,2.12-1.21,3.3-.8,1.17-1.72,2.56-2.74,4.17-.29.44-.74,1.1-1.32,1.97-.58.88-.88,1.47-.88,1.76,0,.74.44,1.1,1.32,1.1,1.17,0,3.32-.62,6.47-1.86,3.15-1.25,7.06-3.19,11.75-5.82.73-.44,1.64-.99,2.74-1.65,1.1-.66,2.23-1.31,3.4-1.97,1.17-.67,2.31-1.25,3.4-1.77,1.1-.51,2.01-.76,2.75-.76Z"/><path class="cls-1" d="M1183.04,928.67c.15.29.18.59.11.88-.07.29-.11.58-.11.87,0,1.31-.37,2.41-1.1,3.3-.73.87-1.65,1.61-2.74,2.2-1.1.59-2.31,1.06-3.63,1.42-1.32.38-2.57.78-3.73,1.21-1.61.74-3.37,1.39-5.27,1.98-1.9.59-3.66,1.17-5.27,1.76-6.73,2.2-12.81,3.7-18.23,4.5-5.41.8-10.32,1.21-14.71,1.21-3.08,0-5.64-.55-7.69-1.65-2.05-1.1-3.73-2.45-5.05-4.06-1.31-1.61-2.27-3.44-2.85-5.49-.58-2.05-.88-4.09-.88-6.14,0-2.79.37-5.2,1.1-7.25.73-1.76,1.87-3.62,3.4-5.6,1.53-1.97,3.36-3.81,5.49-5.48,2.12-1.69,4.36-3.11,6.7-4.29,2.34-1.17,4.68-1.76,7.02-1.76,2.78,0,5.45,1.02,8.01,3.07,2.56,2.05,3.85,4.54,3.85,7.46s-1.25,5.49-3.73,7.69c-2.49,2.2-6.08,4.02-10.76,5.48-.88.29-1.94.55-3.18.78-1.25.21-2.42.47-3.51.76-1.1.29-2.02.74-2.75,1.31-.74.59-1.1,1.39-1.1,2.43,0,1.61.88,2.73,2.63,3.4,1.76.66,3.66.98,5.71.98,2.63,0,5.56-.28,8.78-.87,3.22-.59,6.48-1.33,9.77-2.2,3.3-.88,6.62-1.84,9.99-2.85,3.36-1.02,6.51-2.05,9.44-3.07,1.46-.74,3.4-1.69,5.82-2.85,2.42-1.18,4.28-1.76,5.6-1.76.88,0,1.46.25,1.76.76.29.51.66,1.14,1.1,1.86ZM1125.29,920.33c-.15.15-.22.51-.22,1.09,0,.88.44,1.33,1.32,1.33h.44c3.95-1.18,6.59-2.41,7.91-3.74,1.32-1.31,1.98-2.48,1.98-3.51,0-.58-.44-.87-1.32-.87-1.31,0-2.93.62-4.82,1.86-1.91,1.25-3.67,2.6-5.27,4.06v-.21Z"/><path class="cls-1" d="M1268.46,925.81c1.61,0,2.49.63,2.63,1.86.15,1.25.07,2.39-.22,3.4-.15,1.03-.7,1.94-1.64,2.75-.96.8-2.06,1.54-3.3,2.2-1.25.66-2.53,1.21-3.84,1.65-1.32.44-2.42.87-3.3,1.31-6.73,3.08-12.22,5.27-16.47,6.59-4.24,1.31-7.17,1.97-8.78,1.97-2.05,0-3.59-.51-4.61-1.54-1.03-1.02-1.54-2.26-1.54-3.73,0-1.17.48-2.45,1.43-3.85.95-1.38,1.43-2.75,1.43-4.06,0-.58-.29-.87-.88-.87-1.03,0-2.6.32-4.72.98-2.12.66-3.92,1.35-5.38,2.09-15.22,5.86-24.81,8.78-28.77,8.78-1.03,0-2.01-.29-2.96-.87-.95-.59-1.43-1.9-1.43-3.95,0-1.02.62-2.67,1.86-4.95,1.25-2.26,3.04-4.64,5.38-7.13.73-.74,1.68-1.58,2.85-2.53,1.17-.95,2.27-1.9,3.3-2.85,1.02-.95,1.9-1.78,2.63-2.52.73-.74,1.1-1.31,1.1-1.76h-.22c-.44,0-.88.15-1.32.44-2.34,1.61-4.61,3.26-6.8,4.93-2.2,1.69-4.28,3.26-6.26,4.73-1.98,1.46-3.7,2.67-5.16,3.62-1.47.95-2.64,1.42-3.52,1.42-2.49,0-3.73-1.46-3.73-4.38,0-.88.59-1.94,1.76-3.19,1.17-1.25,2.75-2.6,4.72-4.06,1.98-1.46,4.21-3.07,6.69-4.82,2.49-1.77,5.05-3.52,7.69-5.28,2.05-1.46,4.1-2.44,6.15-2.96,2.04-.51,3.81-.76,5.27-.76,5.56,0,8.34,2.49,8.34,7.46,0,1.17-.36,2.56-1.09,4.17-.74,1.61-2.12,3.08-4.17,4.4-.44.29-1.1.74-1.98,1.31-.88.59-1.8,1.21-2.75,1.86-.95.67-1.79,1.29-2.52,1.88-.74.58-1.1,1.1-1.1,1.53,0,.59.88.88,2.63.88.73,0,1.53-.23,2.41-.66,8.64-3.22,15.22-5.45,19.77-6.7,4.53-1.25,8.34-1.86,11.42-1.86,2.34,0,4.13.51,5.37,1.53,1.25,1.03,1.87,2.28,1.87,3.74,0,1.03-.22,1.97-.66,2.85-.44.87-1.03,1.76-1.76,2.64-.15.15-.21.43-.21.87,0,.29.36.44,1.09.44,2.49-1.02,4.98-2.09,7.47-3.19,2.49-1.1,4.82-2.08,7.02-2.96,2.2-.87,4.06-1.57,5.6-2.09,1.53-.51,2.59-.76,3.18-.76Z"/><path class="cls-1" d="M1376.26,928.67c0,3.23-1.61,5.27-4.82,6.15-3.52.74-6.48,1.21-8.9,1.42-2.41.23-4.72.34-6.92.34-2.05,0-3.84-.15-5.38-.44-1.53-.29-3.04-.44-4.5-.44-1.17,0-1.98.23-2.42.67-2.78,3.07-5.89,5.63-9.33,7.68-3.44,2.05-6.85,3.07-10.21,3.07-2.35,0-4.32-.66-5.93-1.97-1.61-1.31-2.41-3.44-2.41-6.37,0-.74.07-1.5.21-2.31.15-.8.22-1.65.22-2.53,0-.28-.22-.43-.66-.43s-.66-.15-.66-.44c-.29.15-.84.32-1.65.55-.8.21-1.29.32-1.43.32-2.78,0-4.17-1.17-4.17-3.51,0-2.05,1.03-3.36,3.08-3.95,1.03-.28,2.26-.72,3.73-1.31,1.46-.59,2.93-1.14,4.39-1.65,1.47-.51,2.82-.99,4.07-1.42,1.24-.44,2.16-.67,2.74-.67,2.05,0,3.58.88,4.61,2.64.15.29.22.59.22.88v.87c0,.88-.29,1.8-.88,2.75-.59.95-1.25,1.86-1.98,2.75-.73.87-1.39,1.72-1.98,2.52-.58.8-.88,1.58-.88,2.31,0,1.46.66,2.2,1.98,2.2,1.76-.88,3.44-1.76,5.05-2.64,1.17-.72,2.31-1.57,3.4-2.52,1.09-.95,1.64-1.8,1.64-2.52,0-1.18-.48-2.28-1.43-3.3-.95-1.02-1.57-2.35-1.86-3.95v-.21c0-.44.11-1.03.33-1.77.22-.72.66-1.46,1.32-2.18.66-.74,1.64-1.39,2.96-1.98,1.32-.58,3.15-.87,5.49-.87,1.9,0,3.36.29,4.4.87,1.02.59,1.76,1.21,2.19,1.86.44.67.7,1.29.77,1.88.07.58.11.95.11,1.1,0,.58-.11,1.21-.33,1.86s-.33,1.29-.33,1.86c0,1.18.48,1.9,1.43,2.2.95.29,1.87.44,2.75.44,2.04,0,4.75-.19,8.12-.55,3.36-.36,6.81-.99,10.32-1.86,1.17-.15,2.01-.08,2.53.21.51.29.84,1.1.99,2.41Z"/><path class="cls-1" d="M1442.57,904.08c.73,0,1.65.38,2.75,1.1,1.1.74,1.65,1.9,1.65,3.51,0,2.05-.63,3.51-1.87,4.4-1.25.87-2.74,1.61-4.5,2.2-1.76.58-3.58,1.21-5.49,1.86-1.9.66-3.51,1.65-4.83,2.96-2.05,1.9-4.28,4.46-6.69,7.69-2.42,3.22-5.13,6.41-8.13,9.54-3,3.15-6.37,5.86-10.1,8.12-3.73,2.28-8.01,3.4-12.85,3.4-3.08,0-6-.32-8.78-.98-2.78-.66-5.27-1.76-7.46-3.3-2.19-1.54-3.91-3.47-5.16-5.82-1.24-2.35-1.86-5.27-1.86-8.79,0-1.76,1.28-3.18,3.84-4.28,2.56-1.1,5.82-1.94,9.77-2.52,3.08-.44,6.41-.99,9.99-1.65,3.58-.67,7.21-1.43,10.87-2.31,3.66-.88,7.25-1.88,10.76-2.98,3.51-1.09,6.81-2.31,9.88-3.62.73-.29,1.49-.58,2.31-.87.8-.29,1.57-.59,2.31-.88,1.76-1.31,3.84-2.77,6.26-4.4,2.41-1.61,4.86-2.41,7.35-2.41ZM1392.51,940.53c.88,0,2.42-.36,4.61-1.1,2.2-.74,4.4-1.72,6.59-2.96,2.2-1.25,4.17-2.67,5.93-4.29,1.76-1.61,2.63-3.28,2.63-5.05,0-.58-.15-1.21-.44-1.86-.29-.66-.74-.99-1.32-.99-2.78.74-5.56,1.54-8.34,2.43-2.78.87-5.41,1.46-7.91,1.76-1.31.29-2.78.55-4.39.76-1.61.21-3.11.59-4.5,1.1-1.39.51-2.6,1.14-3.62,1.86-1.03.74-1.54,1.62-1.54,2.64,0,2.2.95,3.66,2.85,4.4,1.9.72,5.05,1.17,9.44,1.31Z"/><path class="cls-1" d="M1597.81,927.8c.29,0,.44.58.44,1.76,0,1.61-1.17,3.36-3.51,5.27-2.35,1.9-5.16,3.66-8.46,5.27-3.29,1.61-6.62,2.96-9.99,4.06-3.37,1.1-6.14,1.65-8.34,1.65-3.37,0-6.11-.76-8.24-2.31-2.12-1.54-3.55-3.62-4.28-6.26,0-.87-.58-1.31-1.76-1.31-1.46,0-2.93.51-4.39,1.53-3.51,1.62-7.65,3.12-12.41,4.5-4.76,1.39-8.82,2.09-12.18,2.09-3.67,0-6.55-.91-8.68-2.75-2.12-1.82-3.18-4.36-3.18-7.57,0-3.81,1.61-7.42,4.83-10.87,3.22-3.44,8.13-6.18,14.71-8.23,2.49-.88,4.9-1.62,7.24-2.2,2.34-.59,4.83-.88,7.46-.88,3.22,0,6.07.59,8.56,1.76,2.49,1.18,4.24,2.79,5.27,4.84.44,1.02.94,1.86,1.53,2.52.58.66,1.17,1.31,1.76,1.98.58.66,1.1,1.31,1.53,1.97.44.66.66,1.43.66,2.31,0,1.18-.37,2.45-1.1,3.85-.74,1.39-1.1,2.75-1.1,4.06,0,.44.25.95.77,1.54.51.58,1.79.87,3.84.87,1.46,0,3.66-.44,6.59-1.31,2.93-.88,5.78-2.12,8.56-3.74.58-.44,1.43-1.02,2.53-1.76,1.1-.72,2.23-1.46,3.4-2.2,1.17-.72,2.26-1.35,3.29-1.86,1.03-.51,1.9-.76,2.64-.76s1.09.21,1.09.66.29.95.88,1.54ZM1551.47,926.47c1.32-.87,1.98-2.05,1.98-3.51,0-1.17-.58-1.9-1.76-2.2-1.17-.28-2.78-.43-4.83-.43-2.49,0-4.98.29-7.46.87-2.49.59-4.76,1.39-6.81,2.41-2.05,1.03-3.73,2.28-5.05,3.74-1.32,1.46-1.98,3-1.98,4.61,0,.74.18,1.39.55,1.97.36.59,1.13.88,2.31.88,3.66,0,7.24-.8,10.75-2.41,3.52-1.61,7.61-3.59,12.3-5.94Z"/><path class="cls-1" d="M1654.68,926.04c.88,0,1.53.36,1.97,1.09.44.74.66,1.47.66,2.2,0,1.33-.59,2.57-1.76,3.74-1.76,1.31-4.17,3.11-7.25,5.37-3.08,2.28-6.44,4.5-10.1,6.7-3.66,2.2-7.32,4.1-10.98,5.71-3.67,1.61-7.03,2.41-10.1,2.41-2.78,0-5.27-.99-7.46-2.96-2.2-1.98-3.29-4.21-3.29-6.7,0-1.76.4-3.54,1.21-5.37.8-1.84,1.79-3.59,2.96-5.27,1.17-1.69,2.38-3.15,3.63-4.4,1.24-1.25,2.31-2.16,3.18-2.75,4.09-2.63,6.14-4.4,6.14-5.27,0-.74-.33-1.21-.99-1.43-.66-.21-1.07-.32-1.21-.32-.44,0-1.84.76-4.17,2.31-2.35,1.54-4.94,3.22-7.79,5.05-2.85,1.82-5.57,3.51-8.13,5.05-2.56,1.53-4.28,2.31-5.16,2.31-.73,0-1.61-.29-2.63-.88-1.02-.58-1.53-1.54-1.53-2.85,0-1.46.58-2.56,1.76-3.3,1.32-1.02,3.15-2.41,5.49-4.17,2.34-1.76,4.83-3.51,7.46-5.27,2.64-1.76,5.27-3.26,7.91-4.5,2.63-1.25,4.9-1.86,6.81-1.86,2.63,0,5.05,1.02,7.24,3.07,2.2,2.05,3.3,4.54,3.3,7.46,0,1.61-.37,2.93-1.1,3.95-1.17,2.05-2.39,3.74-3.63,5.05-1.25,1.31-2.38,2.49-3.4,3.51-1.03,1.02-1.86,2.05-2.53,3.07-.66,1.03-.99,2.28-.99,3.74,0,1.02.33,1.69.99,1.97.66.29,1.43.44,2.31.44,2.49,0,5.6-.99,9.33-2.96,3.73-1.98,7.94-4.65,12.62-8.01,1.61-1.17,3.26-2.45,4.95-3.85,1.68-1.39,3.1-2.08,4.28-2.08Z"/><path class="cls-1" d="M1768.63,928.67c.15.29.18.59.11.88-.07.29-.11.58-.11.87,0,1.31-.37,2.41-1.1,3.3-.73.87-1.65,1.61-2.74,2.2-1.1.59-2.31,1.06-3.63,1.42-1.32.38-2.57.78-3.73,1.21-1.61.74-3.37,1.39-5.27,1.98-1.9.59-3.66,1.17-5.27,1.76-6.73,2.2-12.81,3.7-18.23,4.5-5.41.8-10.32,1.21-14.71,1.21-3.08,0-5.64-.55-7.69-1.65s-3.73-2.45-5.05-4.06c-1.31-1.61-2.27-3.44-2.85-5.49-.58-2.05-.88-4.09-.88-6.14,0-2.79.37-5.2,1.1-7.25.73-1.76,1.87-3.62,3.4-5.6,1.53-1.97,3.36-3.81,5.49-5.48,2.12-1.69,4.36-3.11,6.7-4.29,2.34-1.17,4.68-1.76,7.02-1.76,2.78,0,5.45,1.02,8.01,3.07,2.56,2.05,3.85,4.54,3.85,7.46s-1.25,5.49-3.73,7.69c-2.49,2.2-6.08,4.02-10.76,5.48-.88.29-1.94.55-3.18.78-1.25.21-2.42.47-3.51.76-1.1.29-2.02.74-2.75,1.31-.74.59-1.1,1.39-1.1,2.43,0,1.61.88,2.73,2.63,3.4,1.76.66,3.66.98,5.71.98,2.63,0,5.56-.28,8.78-.87,3.22-.59,6.48-1.33,9.77-2.2,3.3-.88,6.62-1.84,9.99-2.85,3.36-1.02,6.51-2.05,9.44-3.07,1.46-.74,3.4-1.69,5.82-2.85,2.42-1.18,4.28-1.76,5.6-1.76.88,0,1.46.25,1.76.76s.66,1.14,1.1,1.86ZM1710.88,920.33c-.15.15-.22.51-.22,1.09,0,.88.44,1.33,1.32,1.33h.44c3.95-1.18,6.59-2.41,7.91-3.74,1.32-1.31,1.98-2.48,1.98-3.51,0-.58-.44-.87-1.32-.87-1.31,0-2.93.62-4.82,1.86-1.91,1.25-3.67,2.6-5.27,4.06v-.21Z"/><path class="cls-1" d="M1834.72,904.08c.73,0,1.65.38,2.75,1.1,1.1.74,1.65,1.9,1.65,3.51,0,2.05-.63,3.51-1.87,4.4-1.25.87-2.74,1.61-4.5,2.2-1.76.58-3.58,1.21-5.49,1.86-1.9.66-3.51,1.65-4.83,2.96-2.05,1.9-4.28,4.46-6.69,7.69-2.42,3.22-5.13,6.41-8.13,9.54-3,3.15-6.37,5.86-10.1,8.12-3.73,2.28-8.01,3.4-12.85,3.4-3.08,0-6-.32-8.78-.98-2.78-.66-5.27-1.76-7.46-3.3-2.19-1.54-3.91-3.47-5.16-5.82-1.24-2.35-1.86-5.27-1.86-8.79,0-1.76,1.28-3.18,3.84-4.28,2.56-1.1,5.82-1.94,9.77-2.52,3.08-.44,6.41-.99,9.99-1.65,3.58-.67,7.21-1.43,10.87-2.31,3.66-.88,7.25-1.88,10.76-2.98,3.51-1.09,6.81-2.31,9.88-3.62.73-.29,1.49-.58,2.31-.87.8-.29,1.57-.59,2.31-.88,1.76-1.31,3.84-2.77,6.26-4.4,2.41-1.61,4.86-2.41,7.35-2.41ZM1784.66,940.53c.88,0,2.42-.36,4.61-1.1,2.2-.74,4.4-1.72,6.59-2.96,2.2-1.25,4.17-2.67,5.93-4.29,1.76-1.61,2.63-3.28,2.63-5.05,0-.58-.15-1.21-.44-1.86-.29-.66-.74-.99-1.32-.99-2.78.74-5.56,1.54-8.34,2.43-2.78.87-5.41,1.46-7.91,1.76-1.31.29-2.78.55-4.39.76-1.61.21-3.11.59-4.5,1.1-1.39.51-2.6,1.14-3.62,1.86-1.03.74-1.54,1.62-1.54,2.64,0,2.2.95,3.66,2.85,4.4,1.9.72,5.05,1.17,9.44,1.31Z"/><path class="cls-1" d="M1924.09,927.8c.29,0,.44.58.44,1.76,0,1.61-1.17,3.36-3.51,5.27-2.35,1.9-5.16,3.66-8.46,5.27-3.29,1.61-6.62,2.96-9.99,4.06-3.37,1.1-6.14,1.65-8.34,1.65-3.37,0-6.11-.76-8.24-2.31-2.12-1.54-3.55-3.62-4.28-6.26,0-.87-.58-1.31-1.76-1.31-1.46,0-2.93.51-4.39,1.53-3.51,1.62-7.65,3.12-12.41,4.5-4.76,1.39-8.82,2.09-12.18,2.09-3.67,0-6.55-.91-8.68-2.75-2.12-1.82-3.18-4.36-3.18-7.57,0-3.81,1.61-7.42,4.83-10.87,3.22-3.44,8.13-6.18,14.71-8.23,2.49-.88,4.9-1.62,7.24-2.2,2.34-.59,4.83-.88,7.46-.88,3.22,0,6.07.59,8.56,1.76,2.49,1.18,4.24,2.79,5.27,4.84.44,1.02.94,1.86,1.53,2.52.58.66,1.17,1.31,1.76,1.98.58.66,1.1,1.31,1.53,1.97.44.66.66,1.43.66,2.31,0,1.18-.37,2.45-1.1,3.85-.74,1.39-1.1,2.75-1.1,4.06,0,.44.25.95.77,1.54.51.58,1.79.87,3.84.87,1.46,0,3.66-.44,6.59-1.31,2.93-.88,5.78-2.12,8.56-3.74.58-.44,1.43-1.02,2.53-1.76,1.1-.72,2.23-1.46,3.4-2.2,1.17-.72,2.26-1.35,3.29-1.86,1.03-.51,1.9-.76,2.64-.76s1.09.21,1.09.66.29.95.88,1.54ZM1877.75,926.47c1.32-.87,1.98-2.05,1.98-3.51,0-1.17-.58-1.9-1.76-2.2-1.17-.28-2.78-.43-4.83-.43-2.49,0-4.98.29-7.46.87-2.49.59-4.76,1.39-6.81,2.41-2.05,1.03-3.73,2.28-5.05,3.74-1.32,1.46-1.98,3-1.98,4.61,0,.74.18,1.39.55,1.97.36.59,1.13.88,2.31.88,3.66,0,7.24-.8,10.75-2.41,3.52-1.61,7.61-3.59,12.3-5.94Z"/><path class="cls-1" d="M2009.93,925.81c1.61,0,2.49.63,2.63,1.86.15,1.25.07,2.39-.22,3.4-.15,1.03-.7,1.94-1.64,2.75-.96.8-2.06,1.54-3.3,2.2-1.25.66-2.53,1.21-3.84,1.65-1.32.44-2.42.87-3.3,1.31-6.73,3.08-12.22,5.27-16.47,6.59-4.24,1.31-7.17,1.97-8.78,1.97-2.05,0-3.59-.51-4.61-1.54-1.03-1.02-1.54-2.26-1.54-3.73,0-1.17.48-2.45,1.43-3.85.95-1.38,1.43-2.75,1.43-4.06,0-.58-.29-.87-.88-.87-1.03,0-2.6.32-4.72.98-2.12.66-3.92,1.35-5.38,2.09-15.22,5.86-24.81,8.78-28.77,8.78-1.03,0-2.01-.29-2.96-.87-.95-.59-1.43-1.9-1.43-3.95,0-1.02.62-2.67,1.86-4.95,1.25-2.26,3.04-4.64,5.38-7.13.73-.74,1.68-1.58,2.85-2.53,1.17-.95,2.27-1.9,3.3-2.85,1.02-.95,1.9-1.78,2.63-2.52.73-.74,1.1-1.31,1.1-1.76h-.22c-.44,0-.88.15-1.32.44-2.34,1.61-4.61,3.26-6.8,4.93-2.2,1.69-4.28,3.26-6.26,4.73-1.98,1.46-3.7,2.67-5.16,3.62-1.47.95-2.64,1.42-3.52,1.42-2.49,0-3.73-1.46-3.73-4.38,0-.88.59-1.94,1.76-3.19,1.17-1.25,2.75-2.6,4.72-4.06,1.98-1.46,4.21-3.07,6.69-4.82,2.49-1.77,5.05-3.52,7.69-5.28,2.05-1.46,4.1-2.44,6.15-2.96,2.04-.51,3.81-.76,5.27-.76,5.56,0,8.34,2.49,8.34,7.46,0,1.17-.36,2.56-1.09,4.17-.74,1.61-2.12,3.08-4.17,4.4-.44.29-1.1.74-1.98,1.31-.88.59-1.8,1.21-2.75,1.86-.95.67-1.79,1.29-2.52,1.88-.74.58-1.1,1.1-1.1,1.53,0,.59.88.88,2.63.88.73,0,1.53-.23,2.41-.66,8.64-3.22,15.22-5.45,19.77-6.7,4.53-1.25,8.34-1.86,11.42-1.86,2.34,0,4.13.51,5.37,1.53,1.25,1.03,1.87,2.28,1.87,3.74,0,1.03-.22,1.97-.66,2.85-.44.87-1.03,1.76-1.76,2.64-.15.15-.21.43-.21.87,0,.29.36.44,1.09.44,2.49-1.02,4.98-2.09,7.47-3.19,2.49-1.1,4.82-2.08,7.02-2.96,2.2-.87,4.06-1.57,5.6-2.09,1.53-.51,2.59-.76,3.18-.76Z"/><path class="cls-1" d="M2090.73,927.8c.29,0,.44.58.44,1.76,0,1.61-1.17,3.36-3.51,5.27-2.35,1.9-5.16,3.66-8.46,5.27-3.29,1.61-6.62,2.96-9.99,4.06-3.37,1.1-6.14,1.65-8.34,1.65-3.37,0-6.11-.76-8.24-2.31-2.12-1.54-3.55-3.62-4.28-6.26,0-.87-.58-1.31-1.76-1.31-1.46,0-2.93.51-4.39,1.53-3.51,1.62-7.65,3.12-12.41,4.5-4.76,1.39-8.82,2.09-12.18,2.09-3.67,0-6.55-.91-8.68-2.75-2.12-1.82-3.18-4.36-3.18-7.57,0-3.81,1.61-7.42,4.83-10.87,3.22-3.44,8.13-6.18,14.71-8.23,2.49-.88,4.9-1.62,7.24-2.2,2.34-.59,4.83-.88,7.46-.88,3.22,0,6.07.59,8.56,1.76,2.49,1.18,4.24,2.79,5.27,4.84.44,1.02.94,1.86,1.53,2.52.58.66,1.17,1.31,1.76,1.98.58.66,1.1,1.31,1.53,1.97.44.66.66,1.43.66,2.31,0,1.18-.37,2.45-1.1,3.85-.74,1.39-1.1,2.75-1.1,4.06,0,.44.25.95.77,1.54.51.58,1.79.87,3.84.87,1.46,0,3.66-.44,6.59-1.31,2.93-.88,5.78-2.12,8.56-3.74.58-.44,1.43-1.02,2.53-1.76,1.1-.72,2.23-1.46,3.4-2.2,1.17-.72,2.26-1.35,3.29-1.86,1.03-.51,1.9-.76,2.64-.76s1.09.21,1.09.66.29.95.88,1.54ZM2044.4,926.47c1.32-.87,1.98-2.05,1.98-3.51,0-1.17-.58-1.9-1.76-2.2-1.17-.28-2.78-.43-4.83-.43-2.49,0-4.98.29-7.46.87-2.49.59-4.76,1.39-6.81,2.41-2.05,1.03-3.73,2.28-5.05,3.74-1.32,1.46-1.98,3-1.98,4.61,0,.74.18,1.39.55,1.97.36.59,1.13.88,2.31.88,3.66,0,7.24-.8,10.75-2.41,3.52-1.61,7.61-3.59,12.3-5.94Z"/><path class="cls-1" d="M2203.14,928.67c.15.29.18.59.11.88-.07.29-.11.58-.11.87,0,1.31-.37,2.41-1.1,3.3-.73.87-1.65,1.61-2.74,2.2-1.1.59-2.31,1.06-3.63,1.42-1.32.38-2.57.78-3.73,1.21-1.61.74-3.37,1.39-5.27,1.98-1.9.59-3.66,1.17-5.27,1.76-6.73,2.2-12.81,3.7-18.23,4.5-5.41.8-10.32,1.21-14.71,1.21-3.08,0-5.64-.55-7.69-1.65s-3.73-2.45-5.05-4.06c-1.31-1.61-2.27-3.44-2.85-5.49-.58-2.05-.88-4.09-.88-6.14,0-2.79.37-5.2,1.1-7.25.73-1.76,1.87-3.62,3.4-5.6,1.53-1.97,3.36-3.81,5.49-5.48,2.12-1.69,4.36-3.11,6.7-4.29,2.34-1.17,4.68-1.76,7.02-1.76,2.78,0,5.45,1.02,8.01,3.07,2.56,2.05,3.85,4.54,3.85,7.46s-1.25,5.49-3.73,7.69c-2.49,2.2-6.08,4.02-10.76,5.48-.88.29-1.94.55-3.18.78-1.25.21-2.42.47-3.51.76-1.1.29-2.02.74-2.75,1.31-.74.59-1.1,1.39-1.1,2.43,0,1.61.88,2.73,2.63,3.4,1.76.66,3.66.98,5.71.98,2.63,0,5.56-.28,8.78-.87,3.22-.59,6.48-1.33,9.77-2.2,3.3-.88,6.62-1.84,9.99-2.85,3.36-1.02,6.51-2.05,9.44-3.07,1.46-.74,3.4-1.69,5.82-2.85,2.42-1.18,4.28-1.76,5.6-1.76.88,0,1.46.25,1.76.76.29.51.66,1.14,1.1,1.86ZM2145.4,920.33c-.15.15-.22.51-.22,1.09,0,.88.44,1.33,1.32,1.33h.44c3.95-1.18,6.59-2.41,7.91-3.74,1.32-1.31,1.98-2.48,1.98-3.51,0-.58-.44-.87-1.32-.87-1.31,0-2.93.62-4.82,1.86-1.91,1.25-3.67,2.6-5.27,4.06v-.21Z"/><path class="cls-1" d="M2269.23,904.08c.73,0,1.65.38,2.75,1.1,1.1.74,1.65,1.9,1.65,3.51,0,2.05-.63,3.51-1.87,4.4-1.25.87-2.74,1.61-4.5,2.2-1.76.58-3.58,1.21-5.49,1.86-1.9.66-3.51,1.65-4.83,2.96-2.05,1.9-4.28,4.46-6.69,7.69-2.42,3.22-5.13,6.41-8.13,9.54-3,3.15-6.37,5.86-10.1,8.12-3.73,2.28-8.01,3.4-12.85,3.4-3.08,0-6-.32-8.78-.98-2.78-.66-5.27-1.76-7.46-3.3-2.19-1.54-3.91-3.47-5.16-5.82-1.24-2.35-1.86-5.27-1.86-8.79,0-1.76,1.28-3.18,3.84-4.28,2.56-1.1,5.82-1.94,9.77-2.52,3.08-.44,6.41-.99,9.99-1.65,3.58-.67,7.21-1.43,10.87-2.31,3.66-.88,7.25-1.88,10.76-2.98,3.51-1.09,6.81-2.31,9.88-3.62.73-.29,1.49-.58,2.31-.87.8-.29,1.57-.59,2.31-.88,1.76-1.31,3.84-2.77,6.26-4.4,2.41-1.61,4.86-2.41,7.35-2.41ZM2219.17,940.53c.88,0,2.42-.36,4.61-1.1,2.2-.74,4.4-1.72,6.59-2.96,2.2-1.25,4.17-2.67,5.93-4.29,1.76-1.61,2.63-3.28,2.63-5.05,0-.58-.15-1.21-.44-1.86-.29-.66-.74-.99-1.32-.99-2.78.74-5.56,1.54-8.34,2.43-2.78.87-5.41,1.46-7.91,1.76-1.31.29-2.78.55-4.39.76-1.61.21-3.11.59-4.5,1.1-1.39.51-2.6,1.14-3.62,1.86-1.03.74-1.54,1.62-1.54,2.64,0,2.2.95,3.66,2.85,4.4,1.9.72,5.05,1.17,9.44,1.31Z"/><path class="cls-1" d="M1368.03,875.32c-1.69-.03-3.33-.23-4.94-.23-4.98,0-9.96.12-14.93.34-4.98.21-9.96.48-14.94.76-.44,0-.88-.17-1.31-.54-.44-.36-.66-.84-.66-1.42,0-.44.29-.99.88-1.63.58-.66,1.28-1.39,2.08-2.2.8-.79,1.65-1.55,2.53-2.29.88-.72,1.61-1.38,2.19-1.96,1.76-1.61,3.55-3.32,5.38-5.13,1.83-1.82,3.26-3.03,4.28-3.6,2.49-1.31,8.06-11.69,1.4-11.85-4.12-2.24-11.33,6.68-16.15,12.06h0l-13.13,15.61-2.69,1.13c-.86.66-1.73,1.52-2.59,1.95-1.16.58-2.73.87-4.49,1.04l-.4.17-29.42.51c-2.08.9-3.23,2.13-3.23,3.79,0,1.35.62,2.22,1.86,2.6,1.25.38,2.82.56,4.72.56,1.76,0,4.06-.08,6.92-.23,2.85-.13,6.33-.21,10.43-.21.73,0,1.35.21,1.86.66.51.44.77.88.77,1.31s-.37,1.18-1.1,2.2c-.74,1.03-1.57,2.09-2.53,3.19-.95,1.1-1.98,2.2-3.08,3.3-1.09,1.09-2.01,2.01-2.74,2.73-1.17,1.18-2.35,2.2-3.51,3.08-1.18.87-2.35,1.9-3.52,3.07-2.34,2.35-4.5,4.72-6.47,7.14-1.98,2.41-4.07,4.64-6.26,6.69-4.54,4.69-8.64,8.75-12.3,12.2-3.66,3.43-5.49,7.21-5.49,11.3,0,.74.15,1.62.44,2.64.29,1.02.92,2.09,1.87,3.19.95,1.09,2.34,2.01,4.17,2.73,1.84.74,4.28,1.1,7.36,1.1,2.78,0,5.82-.47,9.11-1.42,3.29-.95,6.62-2.09,9.99-3.4,3.36-1.31,6.62-2.79,9.77-4.4,3.14-1.61,5.89-3.07,8.24-4.4,2.34-1.31,3.99-2.48,4.94-3.51.95-1.02,1.43-2.48,1.43-4.38,0-.88-.15-1.73-.44-2.53-.29-.8-1.03-1.21-2.19-1.21-.88,0-2.05.55-3.52,1.65-1.46,1.1-2.85,2.16-4.17,3.19-6.45,3.51-12.48,6.33-18.11,8.44-5.64,2.13-9.92,3.19-12.85,3.19-.74,0-1.43-.07-2.09-.21-.66-.15-.99-.74-.99-1.77,0-1.17.47-2.56,1.43-4.17.95-1.61,2.85-4.02,5.71-7.24,2.85-3.23,6.77-7.48,11.75-12.74,4.97-5.27,11.56-12.14,19.76-20.64,1.32-1.46,2.78-2.77,4.39-3.95,1.61-1.17,3.08-2.41,4.4-3.73,1.31-1.33,2.74-2.35,4.28-3.08,1.53-.72,3.36-1.21,5.49-1.42,2.12-.23,4.64-.34,7.57-.34h10.32c6.59,0,13.18.11,19.77.34,12.9,1.14,13.89-7.83,2.74-8.01Z"/><path class="cls-1" d="M1755.34,875.32c-1.69-.03-3.33-.23-4.94-.23-4.98,0-9.96.12-14.93.34-4.98.21-9.96.48-14.94.76-.44,0-.88-.17-1.31-.54-.44-.36-.66-.84-.66-1.42,0-.44.29-.99.88-1.63.58-.66,1.28-1.39,2.08-2.2.8-.79,1.65-1.55,2.53-2.29.88-.72,1.61-1.38,2.19-1.96,1.76-1.61,3.55-3.32,5.38-5.13,1.83-1.82,3.26-3.03,4.28-3.6,2.49-1.31,8.06-11.69,1.4-11.85-4.12-2.24-11.33,6.68-16.15,12.06h0l-13.13,15.61-2.69,1.13c-.86.66-1.73,1.52-2.59,1.95-1.16.58-2.73.87-4.49,1.04l-.4.17-29.42.51c-2.08.9-3.23,2.13-3.23,3.79,0,1.35.62,2.22,1.86,2.6,1.25.38,2.82.56,4.72.56,1.76,0,4.06-.08,6.92-.23,2.85-.13,6.33-.21,10.43-.21.73,0,1.35.21,1.86.66.51.44.77.88.77,1.31s-.37,1.18-1.1,2.2c-.74,1.03-1.57,2.09-2.53,3.19-.95,1.1-1.98,2.2-3.08,3.3-1.09,1.09-2.01,2.01-2.74,2.73-1.17,1.18-2.35,2.2-3.51,3.08-1.18.87-2.35,1.9-3.52,3.07-2.34,2.35-4.5,4.72-6.47,7.14-1.98,2.41-4.07,4.64-6.26,6.69-4.54,4.69-8.64,8.75-12.3,12.2-3.66,3.43-5.49,7.21-5.49,11.3,0,.74.15,1.62.44,2.64.29,1.02.92,2.09,1.87,3.19.95,1.09,2.34,2.01,4.17,2.73,1.84.74,4.28,1.1,7.36,1.1,2.78,0,5.82-.47,9.11-1.42,3.29-.95,6.62-2.09,9.99-3.4,3.36-1.31,6.62-2.79,9.77-4.4,3.14-1.61,5.89-3.07,8.24-4.4,2.34-1.31,3.99-2.48,4.94-3.51.95-1.02,1.43-2.48,1.43-4.38,0-.88-.15-1.73-.44-2.53-.29-.8-1.03-1.21-2.19-1.21-.88,0-2.05.55-3.52,1.65-1.46,1.1-2.85,2.16-4.17,3.19-6.45,3.51-12.48,6.33-18.11,8.44-5.64,2.13-9.92,3.19-12.85,3.19-.74,0-1.43-.07-2.09-.21-.66-.15-.99-.74-.99-1.77,0-1.17.47-2.56,1.43-4.17.95-1.61,2.85-4.02,5.71-7.24,2.85-3.23,6.77-7.48,11.75-12.74,4.97-5.27,11.56-12.14,19.76-20.64,1.32-1.46,2.78-2.77,4.39-3.95,1.61-1.17,3.08-2.41,4.4-3.73,1.31-1.33,2.74-2.35,4.28-3.08,1.53-.72,3.36-1.21,5.49-1.42,2.12-.23,4.64-.34,7.57-.34h10.32c6.59,0,13.18.11,19.77.34,12.9,1.14,13.89-7.83,2.74-8.01Z"/><path class="cls-1" d="M2140.15,871.77c7.3,2.32-6.87,17.37-12.6,22.51-2.32,2.08-6.14,5.03-8.62,7.08-1.32,1.03-2.6,2.05-3.85,3.08-1.25,1.02-2.53,1.97-3.84,2.85-3.95,4.68-7.24,8.82-9.88,12.4-2.63,3.59-4.68,6.66-6.14,9.22-1.47,2.57-2.49,4.65-3.08,6.26-.58,1.62-.88,2.79-.88,3.51,0,2.49.62,4.1,1.87,4.84,1.24.72,1.94,1.1,2.08,1.1,1.9,0,4.13-.44,6.69-1.31,2.56-.88,5.16-2.01,7.79-3.4,2.64-1.39,5.27-2.93,7.91-4.61,2.63-1.69,5.05-3.34,7.24-4.95,1.47-1.17,3.26-2.45,5.38-3.85,2.12-1.39,3.7-2.08,4.72-2.08,2.04,0,3.08,1.17,3.08,3.51,0,.72-.11,1.57-.34,2.52-.21.95-.7,1.58-1.43,1.86-4.24,3.08-8.27,5.94-12.07,8.56-3.81,2.64-7.39,4.9-10.75,6.81-1.47.74-2.97,1.33-4.5,1.76-1.54.44-2.97.88-4.28,1.33-1.61.58-3.15,1.13-4.61,1.63-1.47.52-3,.78-4.61.78h-2.2c-.74,0-1.47-.15-2.2-.44-.58-.15-1.39-.55-2.41-1.21-1.03-.66-2.05-1.46-3.08-2.41-1.03-.95-1.9-2.09-2.63-3.4-.73-1.33-1.1-2.85-1.1-4.61,0-2.05.55-4.44,1.65-7.14,1.1-2.71,2.67-5.67,4.72-8.89.73-1.33,1.54-2.71,2.42-4.18.88-1.46,1.9-2.99,3.07-4.61,3.22-4.68,7.03-9.52,11.42-14.49,1.17-1.31,2.27-2.67,3.3-4.06,1.02-1.39,2.12-2.81,3.29-4.29,2.93-3.36,6.08-6.83,9.44-10.43,3.37-3.58,12.71-14.08,19.04-11.25"/><path class="cls-1" d="M373.52,602.61c-5.47,2.11-10.83,3.74-15.96,4.83-6.03,1.29-12.04,1.78-16.58,2.06-7.14.43-12.32.48-16.79.15-6-.45-11.51-1.52-16.64-2.58-2.71-.56-4.63-.92-6.1-1.2-4-.74-4.33-.8-9.87-3.06-2.73-1.11-5.84.19-6.96,2.93-1.11,2.73.19,5.84,2.93,6.96,6.37,2.59,7.31,2.81,11.95,3.68,1.42.26,3.27.6,5.9,1.15,5.46,1.13,11.36,2.27,17.99,2.77,2.22.17,4.58.25,7.19.25,3.22,0,6.83-.13,11.06-.38,4.93-.31,11.44-.85,18.15-2.28,5.68-1.21,11.59-3,17.58-5.32,2.75-1.06,4.11-4.15,3.05-6.9-1.06-2.75-4.15-4.13-6.9-3.05Z"/><path class="cls-1" d="M399.08,583.69q-6.34,1.2-11.33-.12l-4.66-1.2c-5.11-1.26-10.39-3.41-15.7-6.37-6.21-3.47-12.52-5.23-19.28-5.39l-2.61-.07c-7.27-.21-9.65.13-14.05,3.37-4.49-3.33-6.82-3.66-14.41-3.44l-2.24.06c-6.57.15-13.06,1.99-19.27,5.46-5.32,2.97-10.6,5.12-15.71,6.39-1.94.48-3.49.89-4.77,1.22q-4.91,1.31-11.2.11c-2.97-.56-5.69,1.36-6.24,4.25-.54,2.9,1.36,5.69,4.25,6.24,3.91.74,6.15,1.12,8.18,1.12,2.21,0,4.16-.46,7.73-1.4,1.24-.33,2.74-.73,4.62-1.2,6.02-1.49,12.19-3.98,18.34-7.42,4.68-2.61,9.49-4,14.32-4.11l2.29-.06c6-.16,6.04-.17,10.74,3.7.13.1.28.13.41.22.32.22.64.4,1,.54.34.14.67.23,1.02.3.28.05.55.08.84.08.43.01.84-.03,1.27-.12.22-.05.43-.11.64-.19.46-.16.87-.39,1.28-.68.09-.07.21-.08.3-.16,4.58-3.79,4.55-3.78,10.36-3.62l2.67.08c4.98.11,9.67,1.43,14.32,4.03,6.14,3.44,12.32,5.93,18.35,7.42l4.5,1.16c3.61.95,5.57,1.4,7.8,1.4,2.04,0,4.29-.38,8.21-1.12,2.9-.55,4.8-3.34,4.26-6.23-.55-2.9-3.34-4.82-6.23-4.26Z"/><path class="cls-1" d="M637.83,415.15c3.62-6.76,6.35-12.43,8.6-17.84l.6-1.45c2.42-5.83,4.7-11.33,6.47-17.01,2.24-7.19,3.84-14,4.98-19.11,1.54-6.91,2.49-13.39,3.33-19.43,1.03-7.37,1.36-13.76,1.59-18.42l.06-1.22c.19-3.63-1.78-6.8-5.03-8.07-3.26-1.3-6.84-.29-9.14,2.48-3.43,4.11-7.21,7.51-11.49,11.35l-.81.73c-3.84,3.47-7.46,6.74-11.67,9.67-3.84,2.68-8.29,5.51-14,8.92-2.65,1.58-5.48,3.11-8.44,4.7-.92.49-1.89,1.03-2.82,1.54.03-.62.06-1.2.09-1.77.13-2.38.26-4.77.26-9.55,0-.35-.14-.66-.2-.99.01-1.85.03-3.29.05-4.66.04-2.38.08-4.75.08-9.49s-.03-7.11-.06-9.48c-.03-2.33-.06-4.67-.06-9.34l.04-18.85c0-4.68.03-7.02.06-9.35.03-2.03.05-4.15.06-7.66.21-.58.37-1.19.37-1.84l.03-4.98c.06-4.41.1-8.96-.2-13.47-.26-3.96-.99-7.77-1.7-11.45-.43-2.27-.86-4.52-1.17-6.78-.58-4.18-1.52-8.21-2.44-12.11-.46-1.97-.92-3.92-1.33-5.88-.42-2.04-.78-4.08-1.14-6.12-.69-3.89-1.4-7.92-2.52-11.9-.6-2.13-1.11-4.29-1.62-6.44-.89-3.73-1.81-7.6-3.15-11.38-1.86-5.23-4.1-10.84-6.85-17.16-2.4-5.53-4.89-11.26-7.73-16.74-1.81-3.47-3.99-6.59-6.1-9.61-1.36-1.95-2.71-3.88-3.93-5.89-1.24-2.04-2.34-4.18-3.45-6.31-1.67-3.25-3.41-6.6-5.64-9.76-2.22-3.14-4.86-5.74-7.42-8.25-1.77-1.74-3.54-3.47-5.09-5.36-3.47-4.26-7.32-8.63-12.12-13.78l-.81-.86c-3.82-4.09-7.77-8.31-12.01-12.27l-2.45-2.3c-3.57-3.35-7.24-6.82-11.18-10.03-3.38-2.75-6.95-5.18-10.4-7.54-1.52-1.04-3.04-2.08-4.55-3.15-1.83-1.3-3.61-2.68-5.39-4.07-2.97-2.31-6.06-4.71-9.47-6.79l-3.72-2.3c-3.89-2.4-7.92-4.9-12.13-7.08-3.46-1.8-7.05-3.11-10.51-4.38-2.21-.81-4.42-1.61-6.57-2.54-5.08-2.22-11-4.76-17.04-6.91-2.2-.78-4.35-1.7-6.5-2.62-3.41-1.45-6.93-2.95-10.72-4.02-3.8-1.06-7.64-1.66-11.36-2.24-2.26-.35-4.52-.7-6.77-1.17l-3.75-.79c-4.64-.98-9.42-2-14.32-2.67-4.99-.68-10.03-1-14.92-1.31l-3.42-.22c-5.26-.36-10.56-.33-15.73-.34h-2.65c-5.41,0-10.74.37-15.89.72l-2.45.17c-2.47.16-4.97.06-7.46-.03-3.57-.14-7.26-.26-11.03.24-3.84.53-7.45,1.58-10.93,2.61-2.32.68-4.64,1.36-6.99,1.85l-2.42.5c-5.09,1.04-10.35,2.12-15.51,3.56-3.95,1.1-7.67,2.59-11.28,4.01-1.99.79-3.98,1.58-5.98,2.29-1.84.66-3.7,1.27-5.55,1.88-3.86,1.28-7.85,2.61-11.75,4.3-2.15.93-4.36,1.74-6.56,2.54-3.47,1.27-7.07,2.59-10.54,4.39-5.21,2.7-10.23,5.76-15.09,8.72l-.87.53c-4.32,2.64-8.44,5.57-12.43,8.42l-2.79,1.98c-3.41,2.41-6.53,5.09-9.56,7.69-1.55,1.33-3.1,2.68-4.69,3.96-1.77,1.44-3.61,2.79-5.45,4.14-3.02,2.22-6.16,4.52-9.05,7.22-4.7,4.39-9.25,9.25-12.91,13.16-2.93,3.13-5.55,6.48-8.08,9.72-1.18,1.51-2.37,3.04-3.59,4.53l-3.2,3.86c-2.79,3.34-5.68,6.8-8.3,10.51-2.27,3.22-4.11,6.61-5.88,9.89-1.09,2.03-2.19,4.06-3.38,6.02-1.22,1.99-2.56,3.9-3.89,5.82-2.11,3.04-4.3,6.17-6.11,9.66-2.2,4.23-4.07,8.62-5.87,12.86l-1.69,3.94c-.9,2.07-1.91,4.11-2.93,6.16-1.67,3.38-3.4,6.88-4.74,10.63-1.38,3.88-2.36,7.84-3.3,11.67-.5,2.05-1.01,4.1-1.58,6.13-.53,1.9-1.11,3.8-1.69,5.71-1.19,3.88-2.42,7.9-3.28,12.07-.86,4.16-1.35,8.37-1.81,12.44-.23,1.95-.45,3.88-.72,5.82-.55,4.02-.67,8.02-.8,11.89-.07,2.16-.14,4.32-.28,6.48-.19,2.78-.28,5.57-.32,8.34-.59,3.11-.93,6.41-.93,10.01,0,.39.14.74.22,1.1-.02,3.71-.11,5.82-.19,7.85-.11,2.36-.22,4.72-.22,9.44s.03,6.94.05,9.25c.03,2.29.05,4.57.05,9.14s.15,7.13.29,9.51c.14,2.21.28,4.42.28,8.85s-.17,6.57-.34,8.76c-.19,2.4-.38,4.8-.38,9.6,0,3.65-.04,5.82-.09,7.71-4.15-2.43-8.12-4.81-11.78-7.05l-2.64-1.62c-5.33-3.26-10.36-6.33-14.68-9.74-5.2-4.09-10.03-8.68-14.77-14.04-2.79-3.15-7.04-4.14-10.86-2.56-3.74,1.57-5.96,5.24-5.67,9.37l.06.8c.37,5,.82,11.23,1.91,18.34.89,5.79,2.3,11.95,3.91,18.82,1.19,5.03,2.83,11.69,5.05,18.57,1.87,5.76,3.96,11.94,6.59,18.12,2.33,5.5,5.3,10.91,8.15,16.14l.6,1.1c3.08,5.64,6.5,11.17,10.18,16.47,1.15,1.65,2.5,3.53,3.94,5.49-.84-.57-1.72-1.14-2.55-1.72-5.54-3.88-9.54-7.03-13-10.19-4.69-4.3-8.2-7.96-11.38-11.86-2.15-2.64-5.76-3.57-8.98-2.34-3.18,1.22-5.21,4.27-5.05,7.6.22,4.83.79,11.05,1.67,17.99.64,4.98,1.42,11.17,2.77,17.82.99,4.93,2.38,10.5,4.36,17.52,1.53,5.46,3.52,10.82,5.84,17.1,2.21,5.97,4.49,11.42,6.97,16.67,2.55,5.4,5.41,10.79,8.51,15.99,3.5,5.89,6.68,10.72,10.01,15.18l.69.92c2.23,3.01,4.6,6.06,7.09,9.07-3.28-1.96-6.44-3.87-9.27-5.84-5.05-3.54-9.33-7.29-12.86-10.5l-2.31-2.08c-3.43-3.06-6.66-5.96-9.51-9.46h0c-2.17-2.65-5.7-3.61-8.8-2.44-3.11,1.2-5.02,4.17-4.86,7.59.19,4.09.88,9.45,1.67,15.65l.28,2.25c.65,5.09,1.49,11.17,2.83,17.75l.83,4.27c.81,4.29,1.64,8.72,2.95,13.35,1.86,6.62,3.61,12.08,5.5,17.2,2.17,5.85,4.52,11.47,7,16.69,2.13,4.51,4.75,8.86,7.29,13.06l1.63,2.7c2.78,4.69,6.1,9.61,10.15,15.05,3.5,4.7,7.32,9.26,11.66,13.91,3.14,3.37,6.21,6.34,9.29,9.18,0,.08-.05.15-.05.23,0,4.85.11,7.28.22,9.7.1,2.31.21,4.61.21,9.22s-.1,6.91-.22,9.22c-.11,2.43-.22,4.85-.22,9.7s.08,7.24.17,9.66c.08,2.31.17,4.64.17,9.28s-.14,6.85-.28,9.12c-.15,2.45-.31,4.9-.31,9.8s.16,7.35.31,9.81c.15,2.28.29,4.56.29,9.12s-.17,6.81-.33,9.08c-.18,2.47-.36,4.93-.36,9.86s.03,7.14.07,9.53c.03,2.34.07,4.69.07,9.37s.05,7.18.1,9.58c.05,2.33.1,4.68.1,9.35s.07,7.23.15,9.63c.07,2.33.14,4.66.14,9.31s-.15,6.85-.31,9.12c-.16,2.46-.33,4.91-.33,9.83s.07,7.23.14,9.64c.07,2.33.14,4.66.14,9.32s.1,7.28.2,9.71c.09,2.32.19,4.64.19,9.28s-.17,6.82-.34,9.09c-.19,2.47-.38,4.95-.38,9.9,0,.89.27,1.68.65,2.42l-.02,4.12c-.04,4.49-.08,9.13.23,13.75.13,1.9.22,3.79.31,5.7.2,4.15.42,8.44.99,12.7.54,3.88,1.54,7.55,2.52,11.11.63,2.28,1.26,4.55,1.73,6.85.47,2.24.81,4.52,1.17,6.78.58,3.7,1.17,7.53,2.23,11.33l.26.92c1.54,5.52,3.13,11.22,5.09,16.73,1.32,3.7,3.06,7.12,4.73,10.43,1.06,2.08,2.12,4.17,3.05,6.3.83,1.92,1.61,3.86,2.38,5.8,1.47,3.67,2.99,7.46,4.89,11.13,1.83,3.52,4,6.74,6.11,9.85,1.27,1.89,2.55,3.77,3.73,5.72,3.05,5,6.37,10.33,10.1,15.59,3.42,4.84,6.95,9.85,10.82,14.6,2.63,3.23,5.52,6.16,8.3,8.98,1.44,1.45,2.88,2.91,4.28,4.41l2.38,2.56c3.29,3.54,6.69,7.21,10.36,10.65,3.57,3.34,7.35,6.38,11.01,9.33l5.79,4.71c3.72,3.06,7.57,6.22,11.67,9.12,1.86,1.31,3.65,2.72,5.44,4.13,2.95,2.32,6.01,4.72,9.4,6.79,5.13,3.12,10.5,5.91,16.16,8.85l1.45.76c4.86,2.52,9.88,5.12,15.07,7.38,3.57,1.55,7.21,2.6,10.75,3.61,2.27.65,4.54,1.3,6.77,2.09,2.3.81,4.52,1.9,6.74,2.97,3.23,1.56,6.57,3.18,10.3,4.23,3.83,1.07,7.71,1.69,11.45,2.29,2.24.36,4.48.72,6.69,1.17,4.04.83,8.09,1.27,12.02,1.7,2.07.22,4.15.44,6.22.73,5.91.81,11.77,1.24,18.28,1.67,2.29.15,4.57.44,6.87.72,5.5.67,11.4.9,17.29,1,1.97.04,3.96.08,5.98.08,2.21,0,4.43-.04,6.66-.19,3.87-.26,7.53-1.08,11.06-1.88,2.37-.54,4.73-1.07,7.11-1.4,2.38-.32,4.79-.47,7.19-.63,3.63-.23,7.39-.47,11.17-1.25,5.41-1.12,11.26-2.56,17.9-4.42,4.49-1.26,8.84-2.85,13.05-4.39l4.39-1.58c5.89-2.1,11.56-4.56,17.05-6.95,6.07-2.64,11.51-5.22,16.63-7.87l3.34-1.72c4.25-2.18,8.65-4.43,12.88-7,3.46-2.11,6.62-4.53,9.69-6.87,1.73-1.32,3.47-2.65,5.24-3.91,4.4-3.11,8.9-6.55,14.57-11.17,4.32-3.52,8.83-7.48,13.79-12.11,1.74-1.63,3.63-3.13,5.51-4.63,2.85-2.27,5.79-4.63,8.44-7.46,3.47-3.72,6.68-7.68,9.78-11.52l2.09-2.59c3.19-3.91,7.35-9.11,11.24-14.61l2.61-3.65c2.66-3.7,5.41-7.52,7.86-11.54,3.16-5.16,5.9-10.38,8.91-16.17,1.82-3.5,3.2-7.12,4.52-10.63.81-2.15,1.63-4.3,2.54-6.41,1.63-3.73,2.84-7.55,4.02-11.25.65-2.04,1.3-4.08,2.02-6.11.73-2.06,1.55-4.09,2.36-6.13,1.42-3.55,2.9-7.22,4-11.13.58-2.06,1.22-4.11,1.88-6.16,1.18-3.7,2.4-7.54,3.23-11.56.94-4.53,1.51-9.14,2.08-13.59l.6-4.65c.24-1.81.53-3.63.81-5.45.64-4.16,1.3-8.45,1.6-12.84.42-6.31.48-12.59.48-18.44,0-.66-.16-1.29-.38-1.87,0,0,0-.01,0-.02,0-4.86-.1-7.3-.22-9.73-.1-2.31-.2-4.63-.2-9.26l.08-37.94c0-4.61.1-6.93.2-9.24.11-2.43.22-4.86.22-9.72s.02-7.07.04-9.42c.03-2.38.05-4.76.05-9.52s-.09-7.24-.17-9.66c-.08-2.31-.17-4.64-.17-9.27s.03-7.03.06-9.37c.03-2.38.07-4.77.07-9.53s-.15-7.35-.3-9.8c-.14-2.29-.28-4.57-.28-9.15l-.03-18.93c0-4.69.03-7.04.07-9.38.04-2.38.08-4.77.08-9.54s.15-6.85.28-9.14c.16-2.45.31-4.9.31-9.8s-.08-7.22-.15-9.62c-.07-2.33-.15-4.65-.15-9.3s-.06-7.19-.11-9.58c-.06-2.31-.11-4.64-.11-9.21,5.16-4.68,9.64-9.22,13.68-13.89l2.2-2.52c3.53-4.05,7.19-8.24,10.26-12.77,3.18-4.68,5.73-9.53,8.19-14.22l1.54-2.93c3.75-7.05,6.37-12.51,8.49-17.67,2.57-6.25,4.62-12.56,6.45-18.46,2.04-6.59,3.54-12.98,4.85-18.9,1.56-7.05,2.53-13.6,3.32-19.19.4-2.86.84-5.54,1.26-8.02.72-4.34,1.34-8.08,1.51-11.36.19-3.57-1.87-6.72-5.25-8.05-3.52-1.37-7.44-.38-9.8,2.45-3.97,4.75-8.24,8.71-11.51,11.63l-1.1.99c-3.66,3.27-7.44,6.64-11.61,9.53-1.46,1-3.11,1.94-4.82,2.86,2.89-3.56,5.45-7.22,7.86-10.81l3.68-5.4c3.11-4.52,6.34-9.19,8.98-14.11,3.2-5.98,5.78-12.03,8.15-17.71,2.77-6.67,4.97-12.63,6.73-18.22,2.2-7,3.89-13.13,5.16-18.71,1.65-7.3,2.71-14.03,3.45-19.08.95-6.48,1.26-12.19,1.51-16.77l.14-2.54c.24-3.79-1.95-7.3-5.43-8.71-3.54-1.44-7.41-.48-9.93,2.45-3.11,3.63-6.64,7.16-11.11,11.11-3.76,3.31-7.81,6.81-12.34,9.94-.59.41-1.24.79-1.85,1.19,1.63-2.16,3.25-4.36,4.91-6.77,3.31-4.82,6.55-10.23,10.21-17.03ZM607.94,359.84c3.1-1.67,6.06-3.27,8.85-4.93,5.93-3.54,10.58-6.5,14.63-9.33,4.76-3.31,8.8-6.96,12.72-10.5l1.04-.95c2.38-2.13,4.81-4.32,7.2-6.69-.23,3.39-.57,7.19-1.16,11.37-.81,5.83-1.72,12.06-3.18,18.6-1.09,4.91-2.61,11.43-4.74,18.25-1.63,5.21-3.82,10.5-6.14,16.1l-.6,1.45c-2.1,5.08-4.68,10.44-8.13,16.87-3.52,6.53-6.48,11.47-9.6,16.03-3.87,5.64-7.6,10.47-11.38,14.79-2.56,2.93-4.94,5.51-7.3,7.96.04-2.72.13-4.45.21-6.16.13-2.38.25-4.75.25-9.51s-.07-7.05-.15-9.41c-.07-2.27-.14-4.54-.14-9.08s-.05-7.01-.1-9.35c-.05-2.29-.1-4.57-.1-9.14s.1-6.75.21-9c.1-2.37.22-4.75.22-9.49s-.17-7.23-.33-9.63c-.09-1.28-.18-2.6-.24-4.3.62-.09,1.25-.27,1.83-.6,2.1-1.17,4.14-2.27,6.14-3.35ZM541.08,701.97c.04.88.08,1.71.13,2.5.13,2.2.25,4.39.25,8.77s-.08,6.66-.16,8.88c-.08,2.32-.17,4.64-.17,9.27s.13,7,.25,9.35c.11,2.2.23,4.39.23,8.78s-.04,6.73-.08,8.97c-.05,2.29-.09,4.59-.09,9.18s-.02,6.76-.05,9.02c-.02,2.28-.05,4.57-.05,9.13l-.03,18.12c0,4.44-.08,6.66-.16,8.87-.08,2.32-.17,4.64-.17,9.26s.05,6.9.1,9.2c.05,2.24.1,4.48.1,8.96l-.03,18.17c0,4.48-.06,6.71-.11,8.95-.06,2.31-.11,4.61-.11,9.21s.08,6.96.15,9.28c.08,2.23.15,4.46.15,8.92s-.03,6.75-.08,9.01c-.03,2.3-.08,4.59-.08,9.19,0,.84.24,1.62.59,2.33-.11,2.88-.42,5.79-.8,8.84-.28,2.24-.56,4.48-.74,6.71l-.33,4.16c-.34,4.58-.66,8.9-1.37,13.14-.83,5.01-1.96,10.26-3.66,17.01-.98,3.87-2.33,7.62-3.77,11.59-.59,1.63-1.17,3.25-1.74,4.89-.81,2.37-1.48,4.79-2.13,7.21-.92,3.37-1.78,6.55-3.05,9.44-2.19,4.99-4.67,10.64-7.46,15.78-1.45,2.68-3.42,5.21-5.5,7.89-1.61,2.07-3.22,4.15-4.65,6.33-1.33,2.04-2.55,4.16-3.77,6.28-1.76,3.07-3.43,5.97-5.41,8.52-2.04,2.63-4.48,5.02-7.06,7.55-1.69,1.66-3.38,3.32-4.98,5.06-1.72,1.86-3.31,3.85-4.91,5.84-2.15,2.7-4.19,5.25-6.49,7.37-2.16,1.99-4.8,3.66-7.58,5.43-2.3,1.46-4.6,2.93-6.73,4.59-5.08,3.96-9.34,7.23-13.98,10.26l-1.49.99c-4.49,2.95-8.74,5.73-13.25,8.18-4.45,2.41-9.27,4.74-15.64,7.53-5.38,2.36-10.97,4.33-16.23,6.14-1.84.63-3.68,1.31-5.52,1.99-3.75,1.39-7.28,2.71-10.93,3.63-5.3,1.34-10.64,2.27-17.07,3.33-3.78.63-7.66.87-11.76,1.13-1.84.11-3.7.23-5.55.38-2.22.18-4.43.45-6.66.72-8.99,1.12-17.32.74-25.75.05l-2.29-.19c-1.81-.15-3.63-.26-5.44-.38-4.16-.26-8.09-.51-11.9-1.15-5.17-.85-10.74-2.05-17.05-3.65-3.68-.92-7.25-2.24-11.03-3.65-1.81-.67-3.62-1.34-5.44-1.97-5.62-1.93-11.04-4.26-16.1-6.48-4.77-2.1-9.27-4.54-14.03-7.14l-1.41-.76c-2.13-1.16-4.33-2.2-6.53-3.23-3.21-1.51-6.24-2.94-8.96-4.73-2.85-1.86-5.5-4.12-8.3-6.51-1.74-1.48-3.49-2.97-5.29-4.37-4.91-3.82-9.39-7.86-13.13-11.31-1.9-1.75-3.94-3.36-5.98-4.95-2.68-2.11-5.21-4.09-7.3-6.35-3.7-4.02-7.38-8.38-11.24-13.34-1.99-2.55-3.65-5.45-5.41-8.52-1.22-2.13-2.44-4.25-3.77-6.3l-2.15-3.26c-2.58-3.87-5.01-7.53-7.12-11.42-.85-1.58-1.74-3.14-2.63-4.71-2.06-3.63-4-7.06-5.58-10.65-1.61-3.66-2.86-7.49-4.18-11.55-.53-1.63-1.06-3.25-1.62-4.88l-.6-1.75c-1.67-4.84-3.4-9.85-4.66-14.82-.96-3.8-1.54-7.73-2.15-11.89-.26-1.75-.52-3.5-.81-5.25-.72-4.29-1.04-8.64-1.38-13.24l-.31-4.02c-.49-6.11-.74-11.77-.74-17.33,0-1.18-.46-2.22-1.11-3.11.04-2.76.12-4.51.21-6.23.13-2.34.25-4.68.25-9.37s-.15-7.07-.29-9.42c-.13-2.2-.27-4.39-.27-8.78s.03-6.75.08-8.99c.03-2.29.08-4.59.08-9.17s.02-6.78.04-9.03c.03-2.29.05-4.57.05-9.14s.08-6.65.17-8.87c.09-2.32.18-4.64.18-9.28l.05-18.14c0-4.62-.08-6.93-.16-9.24-.08-2.22-.15-4.44-.15-8.88s.04-6.73.08-8.98c.04-2.29.08-4.59.08-9.17s-.12-7.01-.24-9.35c-.11-2.2-.22-4.4-.22-8.8s.08-6.66.15-8.89c.08-2.31.16-4.62.16-9.24s.03-6.75.06-9.01c.03-2.29.06-4.57.06-9.15s-.09-6.96-.18-9.28c-.03-.71-.06-1.45-.08-2.23,2.74,1.22,5.42,2.46,7.98,3.81,3.28,1.73,6.31,3.84,9.52,6.08,1.9,1.33,3.79,2.65,5.71,3.87l2.88,1.82c4.21,2.65,8.17,5.17,11.78,7.96l.07,17.69c0,4.73.04,7.1.08,9.46.04,2.33.08,4.65.08,9.3l.03,18.76c0,4.55-.11,6.83-.22,9.11-.12,2.4-.23,4.8-.23,9.61s.13,7.24.26,9.65c.12,2.27.24,4.54.24,9.09s-.05,6.95-.1,9.26c-.06,2.38-.1,4.75-.1,9.51s-.09,6.88-.18,9.17c-.09,2.4-.19,4.8-.19,9.59l.06,18.78c0,4.77.06,7.16.13,9.54.06,2.31.12,4.63.12,9.26s.08,7.19.17,9.59c.08,2.3.16,4.61.16,9.21,0,.23.1.43.13.66,0,6.01.08,12.37.78,18.66l.35,3.25c.56,5.23,1.13,10.65,2.34,15.96,1.5,6.61,3.72,12.95,5.68,18.55,1.78,5.09,4.11,9.83,6.36,14.41l1.58,3.25c.85,1.76,1.65,3.54,2.44,5.33,1.79,4.02,3.63,8.17,6.09,12.08,2.97,4.72,6.43,9.01,9.78,13.16l1.88,2.34c3.97,4.98,8.42,9.42,13.17,14.17,1.29,1.29,2.54,2.61,3.79,3.92,3.12,3.27,6.34,6.66,10.06,9.62,4.93,3.94,10.25,7.28,15.4,10.52l.63.4c5.74,3.61,11.81,6.62,17.06,9.15,6.3,3.04,12.6,5.36,17.94,7.23,1.79.63,3.57,1.31,5.36,1.99,4.13,1.58,8.41,3.22,13,4.27,4.66,1.06,9.38,1.49,13.95,1.9,1.77.16,3.54.32,5.31.51,1.7.19,3.39.42,5.1.65,4.57.6,9.3,1.23,14.2,1.23,5.8,0,11.42-.64,16.87-1.26l6.25-.68c5.07-.53,10.32-1.07,15.46-2.24,5.28-1.2,10.29-3,15.13-4.73l3.36-1.2c6.14-2.15,11.93-4.94,17.75-7.75,7.01-3.38,12.25-6.23,17-9.22,4.95-3.12,9.94-6.71,15.69-11.31,5.01-4,9.86-8.33,14.41-12.89l1.88-1.87c3.86-3.84,7.84-7.8,11.39-12.24,3.11-3.88,5.65-8.07,8.12-12.11.83-1.36,1.66-2.72,2.52-4.08,3.05-4.84,6.56-10.63,9.54-16.8,2.53-5.25,5.42-11.39,7.66-17.78,2.33-6.68,4.11-12.77,5.44-18.61l.66-2.87c1.21-5.21,2.45-10.59,3.07-16.19.58-5.21.54-10.48.51-15.57l-.02-3.84c0-.43-.15-.82-.25-1.22.02-2.82.07-4.62.11-6.4.07-2.41.13-4.82.13-9.63s.1-6.95.19-9.26c.1-2.43.2-4.86.2-9.72s-.16-7.37-.32-9.82c-.15-2.28-.3-4.57-.3-9.12l-.04-18.94c0-4.63.09-6.94.19-9.26.1-2.42.19-4.84.19-9.68s.06-6.99.12-9.32c.06-2.4.13-4.8.13-9.6s-.13-7.3-.26-9.74c-.13-2.29-.24-4.58-.24-9.16s-.02-7.14-.05-9.51c-.02-2.36-.04-4.71-.04-9.42s.08-6.96.15-9.28c.08-2.41.15-4.82.15-9.64s.03-7.05.05-9.4c.03-2.29.05-4.63.05-9.06,3.82-2.93,8.18-5.97,13.65-9.49,5.16-3.33,10.76-6.37,16.05-9.17l.9-.48c2.24-1.19,4.53-2.39,6.82-3.56ZM492.62,771.58c.02,2.36.04,4.71.04,9.42s.13,7.3.26,9.73c.13,2.29.24,4.58.24,9.17s-.06,6.99-.12,9.32c-.06,2.4-.13,4.8-.13,9.6s-.09,6.94-.19,9.25c-.1,2.42-.19,4.84-.19,9.69l.04,18.94c0,4.91.16,7.37.32,9.82.15,2.28.3,4.57.3,9.12s-.1,6.96-.19,9.28c-.1,2.43-.2,4.85-.2,9.7s-.06,7-.13,9.34c-.07,2.41-.13,4.82-.13,9.63,0,.48.15.91.27,1.35v.85c.04,5,.07,9.72-.43,14.31-.55,4.98-1.73,10.05-2.86,14.95l-.67,2.92c-1.24,5.45-2.9,11.15-5.11,17.44-2.05,5.87-4.68,11.45-7.2,16.66-2.75,5.69-6.07,11.17-8.96,15.75-.88,1.4-1.74,2.8-2.59,4.21-2.4,3.93-4.66,7.64-7.35,11-3.16,3.96-6.77,7.54-10.58,11.33l-1.9,1.9c-4.27,4.27-8.83,8.35-13.53,12.1-5.43,4.34-10.11,7.72-14.71,10.62-4.4,2.77-9.32,5.43-16.18,8.75-5.57,2.69-10.83,5.23-16.41,7.18l-3.43,1.22c-4.75,1.7-9.24,3.31-13.89,4.36-4.52,1.03-9.22,1.51-14.2,2.04l-6.36.69c-9.32,1.06-18.58,1.36-28.46.05-1.78-.24-3.55-.47-5.32-.67-1.84-.21-3.69-.38-5.53-.54-4.41-.4-8.58-.77-12.54-1.67-3.85-.88-7.59-2.31-11.54-3.82-1.89-.72-3.77-1.45-5.66-2.11-5.05-1.77-11-3.96-16.82-6.78-4.98-2.4-10.74-5.25-16.02-8.57l-.63-.4c-5.12-3.22-9.97-6.26-14.43-9.83-3.16-2.52-5.99-5.5-8.99-8.65-1.31-1.38-2.63-2.76-4.41-4.54-4.29-4.29-8.34-8.34-11.94-12.85l-1.92-2.38c-3.29-4.09-6.41-7.96-9.05-12.14-2.06-3.27-3.67-6.89-5.37-10.72-.84-1.89-1.68-3.78-2.58-5.64l-1.62-3.31c-2.21-4.5-4.3-8.75-5.87-13.23-1.87-5.33-3.98-11.38-5.35-17.39-1.07-4.7-1.58-9.57-2.13-14.73l-.36-3.3c-.67-5.98-.72-12.24-.72-18.14,0-.22-.1-.42-.13-.63,0-4.34-.08-6.68-.16-8.96-.08-2.3-.16-4.61-.16-9.21s-.06-7.15-.13-9.53c-.06-2.31-.12-4.63-.12-9.26l-.06-18.78c0-4.59.09-6.88.18-9.17.09-2.4.19-4.8.19-9.59s.05-6.96.1-9.28c.06-2.37.1-4.75.1-9.49s-.13-7.25-.26-9.67c-.12-2.27-.24-4.54-.24-9.08s.11-6.83.22-9.11c.12-2.4.23-4.8.23-9.61l-.03-18.76c0-4.73-.04-7.1-.08-9.47-.04-2.32-.08-4.64-.08-9.28l-.03-8.53c1.06.98,2.13,1.92,3.18,2.94,3.91,3.82,7.78,8.19,11.83,13.38,3.35,4.27,6.5,9.11,9.64,14.79,2.95,5.33,5.73,10.56,7.46,15.86,1.49,4.59,3.28,10.63,3.93,16.76,0,3.72-.03,5.89-.06,7.96-.03,2.36-.06,4.71-.06,9.43s.04,7.1.08,9.47c.04,2.31.08,4.64.08,9.27l-.06,18.74c0,4.77.07,7.15.15,9.53.07,2.31.14,4.61.14,9.21s-.08,6.89-.17,9.19c-.09,2.39-.18,4.79-.18,9.58l.05,17.1c-.08,1.35-.24,2.71-.26,4.04,0,.51.14.98.27,1.45.08,4.84.35,10.44,1.22,15.95.97,6.23,2.88,12.05,4.71,17.68l.47,1.43c1.95,6,4.18,12.38,7.25,18.4,2.65,5.21,6,10.52,10.53,16.74,4.18,5.74,8.36,10.68,12.77,15.09,4.13,4.13,9.12,8.92,14.85,13.09,4.59,3.34,9.57,5.84,14.39,8.26l4.13,2.09c5.29,2.7,10.75,5.49,16.75,7.44,5.18,1.69,12.06,3.77,19.22,4.89,6.75,1.06,13.75,1.15,19.77,1.15,6.65,0,13.09-.93,19.65-1.97,6.37-.99,12.63-2.51,19.16-4.63,6.12-1.99,12.06-4.47,18.71-7.86,5.55-2.83,11.29-5.76,16.56-9.6,6.48-4.71,11.17-8.61,15.21-12.65,4.13-4.12,7.49-8.78,10.74-13.28l1.58-2.19c3.74-5.13,7.09-10.64,10.25-16.82,2.66-5.21,5.67-11.42,7.84-18.11,1.79-5.48,3.13-11.42,4.36-19.25.89-5.67,1.65-11.8,1.77-18.17,0-.08.05-.15.05-.23,0-.24,0-.4,0-.63,0-.21.03-.4.03-.61,0-.06-.03-.11-.03-.16,0-3.82.02-6.06.05-8.19.02-2.43.05-4.85.05-9.69s-.03-7.28-.06-9.71c-.03-2.4-.06-4.79-.06-9.58v-19.26c0-4.77.04-7.15.08-9.53.04-2.43.08-4.86.08-9.71l.07-19.25c0-4.86-.05-7.28-.09-9.71,0-.47-.02-.94-.03-1.43.32-.66.53-1.38.58-2.14.4-5.52,1.48-11.18,3.31-17.29,1.58-5.29,3.38-11.29,6.24-16.7,2.33-4.42,5.52-8.58,8.9-12.98l1.37-1.79c.97-1.27,1.92-2.57,2.88-3.88,2.61-3.57,5.31-7.25,8.44-10.36,1.45-1.44,2.96-2.81,4.46-4.19-.03,2.32-.05,4.7-.05,9.35s-.08,6.97-.15,9.29c-.08,2.41-.15,4.82-.15,9.63s.02,7.14.05,9.51ZM345.78,782.73c-.55-3.29-1.32-7.31-2.7-11.67,2.71,1.3,5.84,2.96,9.06,5.06,4.04,2.62,8.58,6.24,13.48,10.77,4.11,3.79,8,8.09,11.56,12.76,3.16,4.14,6.24,9.06,9.15,14.59,2.47,4.71,4.66,9.92,6.69,15.91,1.84,5.45,3.59,10.83,4.7,16.75,1.08,5.77,1.58,12.04,1.94,17.42.38,5.75.45,11.67.23,17.61-.22,6.28-.67,12.06-1.35,17.66-.59,4.79-1.45,10.09-2.69,16.53-2.59,3.33-5.3,6.68-8.41,9.81-4.16,4.16-8.65,8.07-13.35,11.62-4.29,3.25-9.17,6.41-14.91,9.7-4.71,2.7-9.85,4.99-16.07,7.71-3.64,1.58-8.29,3.52-13.39,5.34-1.67-1.78-3.33-3.59-4.98-5.53-3.4-4-6.62-8.39-10.42-14.24-3.47-5.32-6.32-10.33-8.74-15.33-2.81-5.8-5.27-11.02-7.05-16.23-1.86-5.47-3.77-11.29-5.01-17.06-1.2-5.56-1.81-11.25-2.4-16.75l-.09-.9c-.13-1.24-.16-2.46-.25-3.7,4.39-2.87,8.77-5.84,12.97-8.99,4.19-3.13,7.83-6.53,11.33-9.82l2.41-2.24c5.11-4.73,9.24-8.8,12.82-13.3,3.51-4.41,7.5-9.74,10.41-15.77,2.84-5.9,4.77-12.1,5.73-18.42,1.06-7,.19-13.98-.68-19.28ZM398.58,1002.66c-.61.44-1.31.8-1.93,1.22-5.61-2.18-10.69-4.33-15.4-6.57-5.63-2.67-10.97-5.49-15.86-8.37-4.12-2.43-7.96-5.29-11.68-8.05l-2.94-2.18c-5.06-3.71-9.1-6.97-12.65-10.16,3.46-1.35,6.62-2.68,9.25-3.82,6.53-2.85,11.95-5.26,17.12-8.23,6.14-3.51,11.38-6.93,16.04-10.44,5.09-3.86,9.96-8.09,14.46-12.59,4.79-4.8,8.86-10.1,12.31-14.7,3.39-4.54,7.31-9.98,10.61-15.91,2.72-4.89,5.32-10.37,8.14-17.22,2.12-5.12,4.04-10.44,5.74-15.82,2.08,3.13,4.58,6.94,6.65,11.31,2.36,4.97,4.11,9.55,5.35,14,1.38,4.93,1.85,10.39,2.11,14.59,0,.11.07.21.09.32-.06,5.94-.82,11.82-1.68,17.3-1.14,7.24-2.36,12.68-3.96,17.61-1.95,5.97-4.73,11.71-7.2,16.55-2.9,5.68-5.97,10.72-9.37,15.4l-1.61,2.22c-3.13,4.35-6.1,8.46-9.62,11.98-3.63,3.63-7.93,7.2-13.95,11.57ZM282.58,819.16c-.9,5.46-1.92,11.66-2.47,18.56-.4,5.18-.55,10.98-.47,18.81v1.1c.06,5.7.11,11.58.78,17.76l.1.89c.62,5.78,1.25,11.77,2.57,17.87,1.36,6.33,3.47,12.74,5.34,18.26,1.97,5.78,4.59,11.32,7.55,17.44,2.61,5.4,5.68,10.8,9.4,16.51,4.07,6.23,7.53,10.96,11.24,15.32,2.31,2.72,4.64,5.25,6.99,7.69.44.69,1.02,1.25,1.69,1.67,1.47,1.47,2.92,2.96,4.44,4.36,4.11,3.79,8.79,7.57,14.72,11.93l2.87,2.13c3.95,2.93,8.03,5.98,12.65,8.69,5.16,3.04,10.78,6,16.69,8.81,2.63,1.25,5.35,2.47,8.19,3.68-.67.35-1.26.67-1.95,1.03-5.6,2.86-11.04,5.12-16.62,6.94-5.98,1.94-11.72,3.33-17.53,4.23-6.36,1.01-12.1,1.84-17.99,1.84s-12.13-.08-18.12-1.02c-6.42-1-12.77-2.93-17.57-4.48-5.18-1.69-10.04-4.17-15.18-6.8l-4.2-2.13c-4.64-2.33-9.02-4.52-12.9-7.35-5.14-3.74-9.75-8.17-13.59-12-4.01-4.02-7.83-8.54-11.68-13.83-4.19-5.75-7.26-10.62-9.65-15.32-2.74-5.35-4.8-11.25-6.61-16.83l-.47-1.45c-1.71-5.23-3.47-10.64-4.32-16.03-.99-6.21-1.12-12.56-1.12-17.98,0-.04.03-.08.03-.12v-1.52c.26-4.18.73-8.41,1.61-12.67,1.24-6,3.37-11.75,5.09-16.09,1.87-4.72,4.34-9.69,7.55-15.21,2.63-4.52,5.91-8.8,9.08-12.93l.78-1.01c1.03-1.35,2.04-2.71,3.04-4.07,2.54-3.44,4.95-6.69,7.6-9.49,3.19-3.37,6.67-6.4,10.04-9.33l2.72-2.38c4.34-3.83,8.87-7.51,13.47-10.95,3.11-2.32,5.93-4.38,8.41-6.11-.69,3.13-1.46,7.03-2.21,11.59ZM448.31,710.8c-1.45,5.78-2.93,11.93-3.89,17.92-.76,4.7-1.04,9.24-1.31,13.61l-.31,4.61c-.41,5.3-.38,10.25-.36,15.03v3.19s0,2.84,0,2.84c0,5.49-.01,10.68.35,15.39l.21,2.66c.5,6.53.9,11.68,1.55,15.54.2,1.17.8,2.15,1.57,2.97,0,.06,0,.12,0,.18.05,2.38.09,4.76.09,9.51l-.07,19.25c0,4.77-.04,7.14-.08,9.53-.04,2.43-.08,4.86-.08,9.72v19.26c0,.25,0,.42,0,.65-1.97-3.57-3.99-6.81-5.72-9.4l-.66-.99c-2.15-3.22-5.81-4.91-9.6-4.33-3.7.54-6.69,3.14-7.78,6.77-1.74,5.74-3.77,11.41-6.02,16.86-2.28,5.55-4.39,10.07-6.53,14.1.41-4.29.74-8.67.91-13.35.24-6.29.15-12.58-.25-18.69-.37-5.69-.91-12.36-2.09-18.69-1.24-6.59-3.19-12.61-5.08-18.21-2.21-6.53-4.61-12.24-7.35-17.46-3.23-6.16-6.55-11.42-10.13-16.11-3.93-5.16-8.24-9.91-12.8-14.12-5.34-4.94-10.36-8.94-14.91-11.89-7.07-4.6-13.54-7.28-17.02-8.71-2.97-1.23-6.34-.56-8.57,1.72-2.23,2.28-2.83,5.66-1.52,8.6,2.55,5.77,3.69,11.42,4.4,15.71,1.11,6.71,1.32,11.63.67,15.93-.8,5.27-2.42,10.44-4.8,15.39-2.45,5.08-6,9.81-9.15,13.76-3.16,3.97-6.97,7.71-11.72,12.11l-2.46,2.29c-3.3,3.09-6.71,6.29-10.43,9.07-2.28,1.71-4.68,3.24-7.03,4.87,0-.12,0-.24,0-.36v-1.1c-.09-7.51.05-13.02.43-17.87.51-6.44,1.49-12.4,2.37-17.72,1.4-8.52,2.88-14.59,3.64-17.46.81-3.07-.37-6.32-3-8.26-2.65-1.97-6.17-2.14-8.92-.43-3.63,2.27-8.77,5.87-14.86,10.44-4.83,3.61-9.58,7.48-14.14,11.49l-2.66,2.33c-3.57,3.1-7.25,6.3-10.79,10.05-3.09,3.27-5.81,6.94-8.43,10.49-.97,1.31-1.94,2.62-2.93,3.93l-.78,1.01c-3.37,4.4-6.85,8.95-9.83,14.06-1.79,3.08-3.36,6.01-4.76,8.85-.03-2.05-.07-3.6-.12-5.07-.07-2.31-.14-4.61-.14-9.21l.06-18.74c0-4.73-.04-7.1-.08-9.47-.04-2.31-.08-4.64-.08-9.28s.03-6.97.06-9.29c.01-1.09.03-2.21.04-3.54,1.11-.95,1.88-2.29,2.12-3.85.67-4.39,1.13-10.15,1.66-18.01l.17-2.4c.33-4.67.7-9.97.65-15.64-.04-4.93-.35-10.51-1.01-18.05-.58-6.69-1.31-12.56-2.22-17.96-.85-5.12-2.1-10.75-3.9-17.73-1.45-5.63-3.38-11.15-5.57-17.27-2.22-6.18-4.46-11.67-6.89-16.87-1.08-2.3-2.2-4.64-3.35-6.98,2.64,2.19,5.49,3.99,8.29,5.68,2.36,1.43,4.58,2.79,6.59,4.34l1.48,1.15c4.29,3.35,8.74,6.8,13.52,10.08,2.05,1.4,3.95,3.06,5.88,4.73,2.75,2.38,5.59,4.85,8.99,6.89,3.24,1.94,6.68,3.34,10.01,4.7,2.4.98,4.83,1.95,7.14,3.16,2.04,1.06,4.05,2.24,6.08,3.43,3.29,1.93,6.71,3.93,10.42,5.59,3.59,1.61,7.34,2.86,10.95,4.07,2.24.74,4.49,1.49,6.72,2.33,2.24.85,4.43,1.84,6.66,2.84,3.41,1.53,6.94,3.11,10.75,4.31,3.75,1.17,7.61,2.01,11.34,2.81,2.31.49,4.63.99,7.16,1.63.47.1.92.15,1.36.15.93,0,1.82-.21,2.67-.63,2.4-.58,4.84-.98,7.27-1.38,3.53-.58,7.18-1.19,10.77-2.31,3.97-1.25,7.71-2.82,11.31-4.34,2.08-.88,4.16-1.74,6.23-2.54l2-.75c5.13-1.94,10.44-3.93,15.48-6.19,4-1.79,7.76-3.86,11.38-5.85,1.77-.97,3.53-1.94,5.29-2.86,2.24-1.17,4.54-2.19,6.82-3.21,3.36-1.49,6.83-3.04,10.12-5.02,3.38-2.04,6.25-4.49,9.01-6.86,1.94-1.65,3.85-3.31,5.89-4.71,2.15-1.47,4.43-2.74,6.69-4,3.13-1.76,6.37-3.57,9.34-5.89,3.13-2.43,5.75-5.17,8.29-7.81,1.74-1.81,3.45-3.61,5.29-5.22,1.09-.96,2.2-1.85,3.31-2.76l-.1.17c-2.41,4.04-4.91,8.21-6.92,12.59-2.73,5.93-5.16,11.31-7.12,16.92-1.79,5.13-3.37,10.56-5.14,17.62ZM74.17,233.72c.28-2.01.51-4.03.74-6.05.46-4.02.9-7.81,1.66-11.51.51-2.46,1.2-4.92,1.93-7.4,1.04-.68,1.87-1.68,2.24-2.97,1.45-5.11,2.95-10.38,5.82-15.02,3.08-4.97,6.41-9.21,10.17-12.95l2.52-2.57c3.06-3.15,6.23-6.4,9.87-8.94,2.45-1.72,5.51-3.07,8.76-4.51,2.2-.97,4.43-1.97,6.62-3.11,1.45-.76,2.89-1.55,4.36-2.36,3.53-1.93,7.18-3.93,11.02-5.49,4.2-1.71,8.71-3.16,13.49-4.68l2.95-.95c4.75-1.54,9.72-2.82,14.86-4.15l1.96-.51c4.08-1.06,8.3-1.91,12.62-2.79l4.48-.92c5.57-1.17,11.28-2.35,17.22-3.35,1.98-.33,3.98-.7,6-1.08,3.7-.68,7.47-1.38,11.33-1.9,3.28-.44,6.64-.71,10.03-.98,2.47-.19,4.96-.4,7.47-.66,4.23-.44,8.53-.76,12.89-1.09l4.68-.35c2.61-.21,5.25-.52,7.9-.83,3.19-.38,6.41-.77,9.68-.95,3.04-.17,6.07-.13,9.17-.08,2.82.03,5.66.08,8.51-.03,2.63-.1,5.28-.28,7.94-.47,3.22-.22,6.47-.45,9.76-.51,2.97-.07,6.05.1,9.11.24,2.86.14,5.73.27,8.62.27h5.51c4.5-.03,8.92-.05,13.31.04,3.41.08,6.62-.21,9.75-.48,3.2-.27,6.2-.54,9.1-.41,3.57.15,7.08.51,10.57.85,2.75.27,5.48.54,8.19.72,3.2.22,6.36.75,9.71,1.32,2.99.51,5.96,1.01,8.92,1.29,6.35.58,12.55,1.15,18.61,1.89,6.35.77,12.52,1.52,18.55,2.46,2.92.45,5.84.74,8.71,1.02,3.47.34,6.75.66,9.87,1.26,2.78.54,5.55.95,8.29,1.34,3.58.53,6.96,1.02,10.15,1.79,3.93.95,7.83,2.2,11.61,3.41,2.11.68,4.2,1.36,6.26,1.97,3.4,1.01,6.75,2.5,9.98,3.95,2.43,1.08,4.82,2.15,7.21,3.04,2.8,1.04,5.65,1.82,8.44,2.59,3.36.91,6.53,1.77,9.21,3.04,4.61,2.18,8.87,4.88,12.98,7.48l2.83,1.79c4.76,2.97,9.44,6.53,14.31,10.87,4.36,3.88,8.83,8.11,11.96,12.8,3.37,5.02,5.05,10.75,6.25,15.7.15.62.44,1.15.77,1.65.22,1.2.45,2.4.67,3.64.38,2.14.76,4.28,1.2,6.42.42,2.06.91,4.11,1.39,6.16.9,3.82,1.75,7.44,2.25,11.12.17,1.25.42,2.5.64,3.75-1.31-1.81-2.73-3.61-4.44-5.32-4.72-4.73-9.8-8.97-15.09-12.63-4.96-3.43-10.51-6.43-16.72-9.72-3.5-1.86-7.29-3.24-10.95-4.57-2.24-.82-4.52-1.65-6.79-2.61-2.2-.95-4.34-2.15-6.53-3.38-3.27-1.83-6.66-3.74-10.54-5.11-3.5-1.22-7.1-1.79-10.58-2.33-2.84-.44-5.51-.87-8.05-1.61-2.38-.69-4.74-1.56-7.12-2.44-3.44-1.26-6.99-2.56-10.81-3.5-2.37-.58-4.74-1.27-7.13-1.97-3.57-1.04-7.26-2.13-11.13-2.91-3.55-.73-7.11-.92-10.56-1.1-2.9-.16-5.64-.31-8.28-.75-6.08-1.04-12.27-1.92-18.58-2.78-2.64-.36-5.26-.99-7.9-1.63-3.39-.81-6.9-1.64-10.61-2.04-3.54-.38-7.08-.4-10.5-.43-2.77-.02-5.55-.04-8.33-.26-2.45-.19-4.91-.44-7.39-.69-3.75-.39-7.53-.77-11.36-.97-3.61-.19-7.25-.16-10.9-.14-2.63.01-5.25.04-7.91-.03-8.9-.22-18-.06-26.99-.49-3.57-.16-7.1-.31-10.63-.24-2.33.06-4.66.08-6.98.11-3.98.04-7.93.09-11.85.29-3.61.19-7.2.65-10.75,1.13-2.66.35-5.32.72-7.96.92-3.69.29-7.32.83-10.93,1.37-2.59.39-5.16.78-7.73,1.05-2.78.3-5.57.33-8.34.38-3.41.05-6.94.11-10.49.59l-3.22.44c-5.21.7-10.36,1.4-15.4,2.26-3.77.63-7.44,1.54-11.07,2.44-2.45.6-4.89,1.21-7.32,1.71-3.84.79-7.56,1.83-11.22,2.87-2.35.66-4.68,1.32-7.01,1.89-2.68.66-5.39,1.08-8.06,1.49-3.45.54-7.03,1.1-10.51,2.12-3.91,1.15-7.51,2.65-10.99,4.11-2.25.94-4.48,1.87-6.71,2.65-2.54.89-5.12,1.54-7.67,2.18-3.52.89-7.15,1.81-10.6,3.28-4.1,1.75-7.71,3.9-11.21,5.98-1.88,1.12-3.73,2.22-5.59,3.2-4.86,2.57-8.99,5.49-12.98,8.32l-6.25,4.33c-4.53,3.06-8.8,5.96-12.44,9.59-1.58,1.58-3.23,3.27-4.85,5.01.09-1.28.18-2.56.35-3.81ZM540.42,510.02c.22,2.11.44,4.23.44,8.44,0,6.48-1.12,13.06-2.2,19.42-.96,5.64-2.54,11.42-5.14,18.76-2.61,7.37-5.02,12.86-7.81,17.79-1.13,2-2.19,4.14-3.28,6.36-1.58,3.2-3.22,6.52-5.25,9.67-1.52,2.36-3.54,4.7-5.67,7.19-1.92,2.23-3.89,4.52-5.7,7.02-1.53,2.11-2.93,4.38-4.36,6.69-1.77,2.87-3.59,5.84-5.72,8.45-2.47,3.04-5.21,5.98-8.02,8.97-1.38,1.48-2.79,2.98-4.17,4.5-4.5,4.95-8.35,9.08-12.5,13.17-2.46,2.41-5.21,4.66-8.12,7.03-1.9,1.55-3.82,3.11-5.69,4.75-2.07,1.81-4.01,3.83-5.96,5.87-2.38,2.47-4.62,4.82-7.13,6.78-2.35,1.82-5.1,3.36-8.02,5-2.53,1.42-5.08,2.86-7.49,4.51-2.36,1.62-4.57,3.5-6.8,5.41-2.54,2.18-4.95,4.25-7.57,5.82-2.73,1.63-5.76,2.99-8.96,4.41-2.49,1.11-4.98,2.22-7.41,3.5-1.83.96-3.66,1.96-5.49,2.97-3.45,1.89-7,3.85-10.61,5.46-4.75,2.13-9.67,3.98-14.87,5.94l-2.02.76c-2.2.83-4.39,1.75-6.59,2.68-3.38,1.42-6.89,2.89-10.37,3.99-2.88.9-6.01,1.42-9.33,1.97-2.84.47-5.71.95-8.33,1.61-.07.01-.13.03-.2.05-1.99-.48-3.98-.91-5.96-1.33-3.65-.79-7.1-1.52-10.38-2.56-3.22-1.01-6.31-2.39-9.58-3.86-2.42-1.08-4.82-2.15-7.25-3.07-2.36-.9-4.75-1.7-7.12-2.48-3.52-1.17-6.85-2.29-9.97-3.68-3.19-1.43-6.21-3.19-9.4-5.06-2.18-1.27-4.34-2.53-6.53-3.68-2.61-1.36-5.34-2.48-8.05-3.59-3.09-1.26-6-2.45-8.53-3.96-2.59-1.56-4.98-3.62-7.49-5.8-2.15-1.87-4.38-3.79-6.84-5.48-4.5-3.09-8.82-6.46-13-9.7l-1.49-1.16c-2.49-1.93-5.08-3.5-7.59-5.03-2.78-1.69-5.4-3.28-7.53-5.15-2.74-2.39-5.32-5.14-7.8-7.78-1.66-1.76-3.3-3.5-4.99-5.16-1.7-1.66-3.42-3.27-5.13-4.86-2.86-2.65-5.55-5.16-7.94-7.78-2.29-2.53-4.35-5.41-6.34-8.2-1.54-2.15-3.07-4.29-4.69-6.28-1.69-2.08-3.43-4.07-5.16-6.01-2.4-2.72-4.66-5.28-6.57-7.92l-.85-1.17c-3.47-4.8-6.76-9.33-9.58-13.71-1.87-2.89-3.28-6.07-4.65-9.14-1.12-2.51-2.2-4.92-3.44-7.11-2.97-5.24-5.55-11.03-7.91-17.68-2.22-6.3-3.82-12.43-4.94-19.01-1.12-6.57-2.17-12.77-2.17-19.09,0-5.09-.38-7.69-.74-10.19-.33-2.22-.63-4.33-.63-8.65s.31-6.42.65-8.64c.38-2.52.76-5.11.76-10.22,0-4.82-.1-7.23-.2-9.65-.1-2.3-.19-4.6-.19-9.19s.08-6.93.17-9.24c.09-2.4.18-4.81.18-9.62s-.32-7.61-.63-10.09c-.28-2.25-.55-4.39-.55-8.76s.31-6.45.63-8.68c.35-2.5.73-5.09.73-10.19,0-4.64.06-6.96.13-9.28,0-.24.01-.5.02-.75,1.98,1.65,3.96,3.27,6.07,4.74l1.43.99c4.53,3.16,9.21,6.42,14.23,8.92,6.07,3.02,11.66,5.36,17.09,7.16,5.64,1.88,11.65,3.45,17.88,4.67,4.81.94,9.49,1.22,14.01,1.49l4.29.28c4.73.36,10.1.74,15.41.74.96,0,1.92,0,2.86-.03l5.06-.1c4.61-.06,8.96-.12,13.2-.65,5.1-.63,9.7-1.72,13.76-2.7,1.44-.34,2.81-.67,4.13-.96,2.95-.64,4.93-1.03,6.43-1.33,4.26-.84,5.26-1.07,11.42-3.33,2.77-1.01,4.19-4.08,3.18-6.85-1.01-2.77-4.09-4.18-6.85-3.18-5.57,2.04-6.14,2.15-9.81,2.88-1.55.31-3.59.71-6.64,1.38-1.38.3-2.84.64-4.34,1-3.97.95-8.08,1.93-12.59,2.49-3.66.45-7.73.51-12.04.56-1.71.03-3.45.05-5.21.1-5.65.21-11.84-.26-17.16-.67l-4.46-.29c-4.18-.25-8.49-.51-12.61-1.32-5.78-1.13-11.36-2.58-16.55-4.32-4.95-1.65-10.09-3.81-15.71-6.59-4.32-2.15-8.48-5.05-12.88-8.12l-1.45-1.01c-4.15-2.88-8.1-6.43-12.08-10.12-.02-1.65-.06-2.96-.09-4.24-.06-2.32-.12-4.64-.12-9.29s-.06-7.19-.13-9.58c-.06-2.32-.13-4.64-.13-9.29s-.04-7.14-.09-9.51c-.02-.99-.03-2.02-.05-3.19.64-.14,1.2-.22,1.86-.37,3.57-.78,7.25-1.58,11.2-1.92,5.7-.46,12.04-.66,18.04-.83,6.07-.17,12.16-.17,18.08-.01l3.09.08c4.91.12,9.94.24,14.98.67,5.83.5,11.93,1.45,17.88,2.37l4.75.7c4.34.62,8.84,1.26,13,2.28,3.64.88,7.21,2.29,10.99,3.78,1.95.77,3.9,1.54,5.85,2.24,1.77.63,3.54,1.2,5.32,1.78,4.08,1.32,7.93,2.57,11.33,4.32,3.77,1.95,7.02,5.09,10.46,8.44,1.35,1.31,2.7,2.61,4.07,3.84,5.75,5.15,9.65,9.43,12.63,13.89,3.68,5.48,6.57,11.14,8.63,16.8,2.16,6,3.6,12.2,4.26,18.43.32,2.93.35,5.92.4,8.93.04,2.78.09,5.57.31,8.35.21,2.68.54,5.36.88,8.03.38,3.09.77,6.15.92,9.2.13,2.7.38,5.36.61,8,.28,3.16.57,6.25.63,9.27.06,3.36-.23,6.72-.51,9.97-.22,2.49-.42,4.91-.48,7.23l-.09,4.11c-.1,4.94-.19,9.21-.64,12.67-1.06,8.27,1.03,15.5,5.9,20.36,4.13,4.11,10.34,6.78,18.47,7.92,3.16.45,7.34.88,11.73.88,2.15,0,4.36-.1,6.53-.36,7.4-.88,15.02-2.99,18.53-5.15,2.52-1.54,3.29-4.83,1.75-7.34-1.54-2.52-4.84-3.3-7.34-1.75-1.38.85-6.96,2.79-14.2,3.63-4.32.52-9.67.35-15.52-.48-5.71-.81-10.01-2.51-12.43-4.92-2.51-2.49-3.5-6.46-2.85-11.43.52-4.02.61-8.56.72-13.82l.09-4.05c.06-2.13.24-4.33.44-6.6.31-3.52.62-7.16.55-11.08-.06-3.27-.36-6.62-.67-10.03-.23-2.49-.46-5.02-.58-7.57-.17-3.31-.58-6.64-.99-9.99-.31-2.5-.63-5.01-.82-7.53-.2-2.56-.24-5.13-.28-7.69-.05-3.34-.1-6.66-.45-9.9-.76-7.08-2.38-14.12-4.84-20.93-2.35-6.48-5.64-12.91-9.8-19.11-3.51-5.23-7.94-10.14-14.38-15.89-1.27-1.15-2.51-2.35-3.76-3.57-3.85-3.73-7.83-7.59-13-10.26-4.18-2.15-8.62-3.59-12.93-4.98-1.69-.55-3.38-1.1-5.05-1.69-1.83-.65-3.66-1.38-5.5-2.1-3.95-1.56-8.03-3.18-12.4-4.23-4.65-1.13-9.4-1.81-14-2.47l-4.69-.69c-6.07-.95-12.35-1.92-18.54-2.45-5.31-.46-10.56-.58-15.63-.71l-3.06-.08c-6.12-.15-12.4-.15-18.66.01-6.15.17-12.65.38-18.62.87-4.48.37-8.52,1.24-12.14,2.03.06-1.68.15-3.01.24-4.29.17-2.45.35-4.91.35-9.81,0-2.12-.01-3.73-.03-5.12,3,.29,4.36.31,9.43.33l3.98.02h.31c3.15,0,6.5-.31,10.05-.64,2.6-.24,5.35-.5,8.26-.65,2.21-.11,4.54-.01,6.97.08,3.54.15,7.57.31,11.74-.13l2.71-.28c5.05-.53,10.38-1.08,15.86-1.95,3.63-.58,6.97-1.9,10.21-3.18,2.65-1.05,5.17-2.04,7.7-2.58,2.22-.47,4.75-.58,7.42-.68,3.64-.15,7.4-.3,11.28-1.36,3.57-.97,6.94-2.43,10.18-3.85,2.38-1.05,4.8-2.11,7.3-2.94,5.14-1.7,11.25-3.79,17.57-6.31,2.21-.88,4.49-1.63,6.79-2.38,3.54-1.16,7.21-2.36,10.82-4.06,3.43-1.61,6.5-3.68,9.47-5.69,2.13-1.44,4.26-2.89,6.53-4.13,2.15-1.18,4.47-2.13,6.79-3.1,3.37-1.4,6.85-2.84,10.19-4.95,3.27-2.06,6.21-4.5,9.06-6.87,1.9-1.57,3.81-3.16,5.81-4.61,3.68-2.67,7.15-5.63,10.51-8.49l3.98-3.36c1.46-1.21,3.2-2.3,5.03-3.41,2.07,2.08,3.3,3.01,5.14,4.32,1.37.97,3.2,2.27,6.53,5.02,3.96,3.26,8.86,6.95,14.56,10.97,1.38.97,2.78,2.01,4.23,3.08,3.15,2.33,6.71,4.98,10.67,7.39,3.23,1.96,6.62,3.61,10.22,5.36,1.95.95,3.95,1.92,5.96,2.97,1.74.91,3.49,1.9,5.27,2.9,3.39,1.91,6.9,3.89,10.78,5.62,4.66,2.07,9.85,4.16,16.86,6.8,1.88.71,3.77,1.48,5.68,2.27,3.61,1.47,7.34,3,11.34,4.23,3.47,1.07,7.05,1.71,10.51,2.33,2.41.43,4.85.86,7.28,1.46,5.81,1.42,11.89,2.56,17.77,3.66,5.2.97,10.9,1.84,17.92,2.76,2.31.3,4.62.76,6.96,1.22,3.52.69,7.15,1.4,10.99,1.69,1.41.1,2.81.15,4.2.15,2.18,0,4.34-.1,6.46-.19,1.04-.05,2.1-.03,3.14-.07l.06,16.33c0,1.67.06,3,.15,4.22-1.48-.09-2.97-.18-4.53-.26-2.47-.13-5.06-.25-7.76-.47-1.8-.15-3.64-.34-5.53-.53-4.25-.43-8.63-.88-13.34-1-6.77-.17-12.96-.17-18.94,0-2.04.06-4.09.08-6.17.09-4.16.02-8.46.05-12.84.44-1.76.16-3.53.29-5.31.43-4.48.34-9.1.69-13.71,1.44-5.1.83-10.1,2.13-14.93,3.38l-3.77.97c-6.02,1.52-12.22,3.46-18.42,5.77-6.21,2.31-11.85,5.28-17.56,8.38-5.68,3.09-10.49,7-15.14,10.78l-.78.63c-4.46,3.62-9.62,8.1-14.09,13.82l-1.76,2.23c-3.44,4.33-7,8.8-9.44,14.38-1.19,2.7.04,5.85,2.74,7.03.7.31,1.43.45,2.15.45,2.05,0,4.01-1.19,4.89-3.19,1.89-4.31,4.87-8.06,8.03-12.03l1.83-2.31c3.79-4.87,8.39-8.84,12.39-12.08l.79-.64c4.47-3.63,8.69-7.07,13.49-9.68,5.36-2.9,10.63-5.69,16.19-7.76,5.84-2.18,11.66-4,17.3-5.42l3.84-.99c4.6-1.2,9.35-2.43,13.96-3.18,4.16-.67,8.55-1.01,12.81-1.33,1.83-.14,3.66-.28,5.46-.44,3.93-.35,8.01-.38,11.94-.4,2.16-.01,4.31-.03,6.42-.09,5.77-.17,11.77-.17,18.35,0,4.31.1,8.49.54,12.54.95,1.96.19,3.87.39,5.74.55,2.82.22,5.52.36,8.1.49,2.27.11,4.4.25,6.43.41.05.84.08,1.78.08,2.91,0,4.26-.17,6.39-.35,8.53-.19,2.35-.39,4.7-.39,9.4,0,4.17-.24,6.2-.49,8.35-.28,2.36-.56,4.8-.56,9.6,0,2.43.14,4.3.33,5.86l-2.18,2.04c-3.48,3.29-6.77,6.39-10.28,8.83-4.38,3.03-9.21,5.43-13.88,7.74l-.96.47c-1.41.7-2.81,1.42-4.19,2.15-3.86,2-7.51,3.9-11.2,5.13-4.38,1.46-9.06,2.34-13.59,3.19l-3.08.58c-6.29,1.24-11.83,2.02-16.94,2.41l-3.97.33c-4.67.4-9.01.77-13.22.66-6.29-.18-12.23-.83-17.21-1.45-6.87-.85-13-2.11-17.03-2.98-8.25-1.79-8.41-1.86-12.5-3.41l-3.78-1.41c-2.79-1.02-5.84.4-6.85,3.17-1.01,2.77.4,5.84,3.17,6.85l3.69,1.38c4.64,1.75,5.2,1.93,14.01,3.84,4.23.92,10.68,2.25,17.99,3.15,5.23.65,11.48,1.33,18.22,1.53.6.01,1.2.02,1.79.02,4.18,0,8.47-.36,12.63-.72l3.88-.32c5.53-.42,11.47-1.26,18.18-2.58l3-.57c4.89-.92,9.93-1.87,15-3.56,4.48-1.49,8.68-3.68,12.74-5.78,1.33-.69,2.68-1.38,4.03-2.06l.95-.47c5.02-2.49,10.2-5.05,15.22-8.53,2.82-1.96,5.41-4.22,7.93-6.52-.06,3.23-.37,5-.73,6.93-.44,2.33-.95,4.97-.95,9.95s.29,7.24.58,9.6c.26,2.14.5,4.16.5,8.33,0,4.57.08,6.86.15,9.15.07,2.2.15,4.41.15,8.8s-.04,6.66-.08,8.88c-.04,2.27-.08,4.54-.08,9.08,0,4.16-.25,6.18-.51,8.33-.29,2.37-.59,4.82-.59,9.63,0,4.42-.06,6.63-.13,8.85-.06,2.29-.13,4.57-.13,9.15s.25,7.2.49,9.54ZM75.24,253.2c2.34-4.5,6.73-8.88,10.97-13.13,2.91-2.91,6.78-5.53,10.88-8.3l6.44-4.45c2.2-1.56,4.48-3.11,6.83-4.61.09,1.44.19,2.63.3,3.81.21,2.24.42,4.48.42,8.96s-.31,6.46-.63,8.69c-.36,2.52-.74,5.11-.74,10.23s.22,7.43.43,9.91c.2,2.24.4,4.49.4,8.98,0,4.78.06,7.17.11,9.56.06,2.33.11,4.66.11,9.32s.05,7.16.1,9.55c.05,2.33.1,4.66.1,9.33s-.16,6.79-.33,9.05c-.17,2.45-.35,4.91-.35,9.81,0,.77,0,1.39,0,2.05,0,.18-.05.35-.03.54,0,.03.02.05.03.08.01,3.05.05,4.98.08,6.86.04,2.33.08,4.66.08,9.32s.06,7.19.13,9.58c.06,2.32.13,4.64.13,9.29s.06,7.18.13,9.57c.06,2.32.12,4.64.12,9.29s-.06,6.96-.13,9.28c-.07,2.4-.13,4.79-.13,9.58,0,4.33-.31,6.44-.63,8.67-.35,2.5-.73,5.09-.73,10.19s.32,7.6.63,10.08c.28,2.25.55,4.39.55,8.77,0,4.61-.08,6.93-.17,9.24-.09,2.4-.18,4.81-.18,9.62s.1,7.23.2,9.64c.1,2.3.19,4.6.19,9.2,0,4.32-.31,6.41-.65,8.63-.38,2.52-.76,5.11-.76,10.22s.38,7.69.74,10.19c.33,2.22.63,4.32.63,8.65,0,.16.02.32.02.48-.21.57-.37,1.17-.37,1.81v17.8c-.01,4.42-.04,6.63-.06,8.84-.03,2.24-.06,4.48-.06,8.97l.04,23.99c-3.16-1.4-6.39-2.93-9.96-4.8l-2.35-1.22c-4.5-2.33-8.74-4.52-12.54-7.09-4.19-2.82-8.51-6.15-13.19-10.13.05-1.32.12-2.39.19-3.45.15-2.38.31-4.75.31-9.51l-.06-18.33c0-4.85-.26-7.32-.51-9.71-.24-2.21-.45-4.3-.45-8.6s.15-6.62.28-8.82c.16-2.38.31-4.76.31-9.51,0-4.46.1-6.69.19-8.93.1-2.35.2-4.7.2-9.4l.03-18.34c0-4.61-.03-6.92-.06-9.23-.02-2.27-.05-4.55-.05-9.1,0-4.82-.22-7.23-.44-9.65-.2-2.18-.4-4.35-.4-8.69s.06-6.78.1-9.05c.06-2.32.11-4.65.11-9.3s.02-6.83.04-9.1c.02-2.3.04-4.6.04-9.2s-.12-7.07-.24-9.43c-.11-2.23-.22-4.45-.22-8.9s.06-6.78.12-9.03c.06-2.33.13-4.66.13-9.32,0-4.39.17-6.57.34-8.76.19-2.4.38-4.8.38-9.59s-.15-7.13-.29-9.51c-.14-2.21-.28-4.42-.28-8.85s-.03-6.94-.05-9.25c-.03-2.29-.05-4.57-.05-9.14s.1-6.71.2-8.95c.09-1.9.17-3.86.2-6.99.39-.74.67-1.55.67-2.45v-2.16c0-2.35,0-4.64.03-6.91.55-2.47,1.32-4.71,2.37-6.73ZM540.28,216.57v14.83c0,4.64.14,6.95.28,9.27.13,2.15.26,4.32.26,8.64s-.11,6.53-.22,8.7c-.12,2.31-.23,4.61-.23,9.24s.28,7.21.54,9.56c.24,2.15.47,4.17.47,8.35s-.31,6.06-.63,8.17c-.03.21-.07.45-.1.67-1.43.04-2.86.03-4.28.09-3.28.15-6.39.3-9.35.07-3.22-.24-6.39-.86-9.75-1.52-2.56-.5-5.11-.99-7.64-1.33-6.83-.88-12.34-1.73-17.34-2.66-5.74-1.07-11.67-2.18-17.19-3.53-2.64-.65-5.31-1.13-7.94-1.6-3.29-.59-6.39-1.15-9.24-2.03-3.54-1.09-7.05-2.53-10.44-3.91-2.02-.83-4-1.63-5.98-2.38-6.8-2.55-11.81-4.57-16.26-6.55-3.42-1.53-6.71-3.38-9.89-5.17-1.88-1.06-3.72-2.1-5.57-3.06-2.09-1.09-4.18-2.11-6.22-3.11-3.36-1.64-6.54-3.18-9.35-4.89-3.54-2.15-6.75-4.54-9.86-6.84-1.51-1.13-2.98-2.22-4.43-3.24-5.49-3.86-10.17-7.39-13.91-10.47-3.63-3-5.64-4.43-7.14-5.5-.91-.64-1.56-1.12-2.3-1.76.49-.41,1.02-.74,1.5-1.19,3.25-3.08,6.32-6.46,9.27-9.73l3.63-3.98c3.1-3.34,6-6.96,8.8-10.47l3.22-3.99c1.47-1.81,3.06-3.55,4.66-5.31,2.45-2.7,4.97-5.5,7.26-8.62.15,0,.3.01.45.01,3.31.03,6.44.06,9.47.38,3.03.32,6.06,1.04,9.26,1.81,2.98.71,5.94,1.4,8.92,1.81,6.21.85,12.28,1.72,18.25,2.72,3.25.55,6.41.72,9.49.88,3.19.17,6.21.33,8.98.9,3.51.72,6.91,1.72,10.28,2.7,2.54.74,5.06,1.48,7.57,2.1,3.26.8,6.39,1.94,9.69,3.16,2.61.95,5.19,1.89,7.79,2.65,3.2.94,6.34,1.43,9.4,1.91,3.15.49,6.12.97,8.69,1.86,3.02,1.06,5.86,2.66,8.87,4.35,2.53,1.42,5.02,2.8,7.57,3.89,2.44,1.04,4.9,1.94,7.31,2.81,1.16.43,2.27.85,3.38,1.28ZM379.76,182.77c-1.72,1.9-3.44,3.79-5.03,5.73l-3.28,4.07c-2.81,3.51-5.46,6.82-8.3,9.88l-3.72,4.08c-2.95,3.26-5.75,6.34-8.7,9.14-2.06,1.95-4.68,3.53-7.45,5.2-2.54,1.52-5.16,3.1-7.57,5.1l-4.07,3.44c-3.36,2.85-6.53,5.55-9.88,7.98-2.19,1.59-4.27,3.31-6.34,5.02-2.72,2.24-5.27,4.36-7.97,6.07-2.56,1.63-5.48,2.84-8.58,4.12-2.68,1.11-5.34,2.22-7.82,3.59-2.56,1.4-4.98,3.02-7.39,4.65-2.75,1.86-5.35,3.61-8.03,4.87-3.04,1.42-6.23,2.47-9.62,3.59-2.51.83-5,1.65-7.4,2.61-6.07,2.41-11.99,4.43-16.98,6.09-2.82.94-5.53,2.11-8.21,3.29-3.03,1.32-5.89,2.57-8.7,3.34-2.72.74-5.73.85-8.91.99-3.01.12-6.12.24-9.23.91-3.4.72-6.44,1.92-9.39,3.09-2.82,1.11-5.49,2.16-7.96,2.56-5.28.84-10.42,1.37-15.29,1.88l-2.72.28c-3.4.37-6.84.23-10.2.09-2.75-.11-5.4-.19-7.94-.08-3.06.16-5.96.43-8.69.68-3.39.31-6.79.56-9.3.6l-4.01-.02c-5.28-.02-6.11-.02-9.63-.4,0-.89,0-1.88,0-3.02,0-4.79-.06-7.18-.11-9.57-.06-2.33-.11-4.66-.11-9.31,0-4.95-.22-7.43-.43-9.91-.2-2.24-.4-4.49-.4-8.98s.31-6.46.63-8.7c.36-2.52.74-5.11.74-10.22s-.23-7.46-.47-9.95c-.21-2.24-.42-4.48-.42-8.96,0,0,0,0,0,0,.17-.1.34-.19.52-.3,3.19-1.9,6.5-3.86,9.94-5.32,2.69-1.15,5.77-1.93,9.05-2.76,2.84-.72,5.73-1.46,8.58-2.46,2.43-.85,4.84-1.86,7.28-2.88,3.22-1.34,6.54-2.73,9.88-3.71,2.82-.83,5.9-1.31,9.16-1.81,2.97-.47,5.99-.95,8.96-1.67,2.45-.6,4.89-1.29,7.36-1.99,3.43-.97,6.89-1.95,10.47-2.69,2.57-.52,5.14-1.16,7.73-1.8,3.38-.83,6.8-1.69,10.3-2.28,4.92-.83,9.95-1.51,15.05-2.2l3.23-.44c2.9-.4,5.97-.44,9.21-.5,3.09-.05,6.2-.1,9.31-.43,2.72-.29,5.44-.7,8.18-1.11,3.36-.5,6.75-1.01,10.18-1.28,2.84-.22,5.68-.6,8.53-.98,3.27-.44,6.57-.88,9.9-1.05,3.77-.19,7.59-.24,11.42-.28,2.37-.03,4.75-.06,7.14-.11,3.27-.08,6.55.08,9.86.24,9.09.41,18.25.28,27.22.5,2.77.06,5.51.05,8.25.03,3.45-.02,6.89-.05,10.29.13,3.63.19,7.23.56,10.81.93,1.02.1,2.02.19,3.04.29-.64.71-1.26,1.42-1.92,2.15ZM580.91,565.84c-4.75,3.32-10.03,6.54-15.69,9.56-4.42,2.35-9.01,4.31-13.33,6.06.03-1.83.06-3.85.06-7.47,0-4.05.02-6.08.03-8.11.02-2.05.04-4.1.04-8.21s-.03-6.16-.06-8.21c-.03-2.02-.06-4.04-.06-8.08s-.03-6.16-.06-8.22c-.03-2.02-.06-4.04-.06-8.07,0-.75-.16-1.45-.43-2.1.09-1.5.17-3.01.17-4.54,0-4.77-.25-7.2-.49-9.54-.22-2.11-.44-4.23-.44-8.44,0-4.43.06-6.64.13-8.85.06-2.29.13-4.57.13-9.14,0-4.16.25-6.18.51-8.33.29-2.37.59-4.82.59-9.63,0-4.44.04-6.66.08-8.88.04-2.27.08-4.54.08-9.08s-.08-6.87-.15-9.16c-.07-2.2-.15-4.39-.15-8.79,0-4.81-.29-7.25-.58-9.61-.26-2.14-.5-4.16-.5-8.33s.35-5.82.76-7.95c.44-2.33.95-4.98.95-9.96s-.57-7.72-1.07-10.08c-.44-2.12-.83-3.94-.83-7.87,0-4.17.24-6.2.49-8.35.28-2.36.56-4.8.56-9.6,0-4.26.17-6.39.35-8.53.19-2.35.39-4.7.39-9.4,0-4.95-.47-7.59-.88-9.91-.38-2.15-.72-4.02-.72-8.03l-.06-17.92c0-4.07.31-6.06.63-8.15.35-2.29.75-4.89.75-9.78s-.28-7.21-.54-9.55c-.24-2.15-.47-4.18-.47-8.36s.11-6.53.22-8.71c.12-2.31.23-4.61.23-9.23s-.14-6.96-.28-9.28c-.13-2.15-.26-4.32-.26-8.63v-9.71c4.07,2.21,7.91,4.37,11.2,6.65,4.77,3.29,9.35,7.13,13.62,11.4,4.08,4.09,6.64,9.03,9.3,14.16,2.49,4.78,3.65,9.58,3.65,15.11,0,1.09.4,2.04.96,2.88,0,2.86-.03,4.69-.05,6.48-.03,2.38-.06,4.75-.06,9.49l-.04,18.85c0,4.74.03,7.11.06,9.48.03,2.33.06,4.67.06,9.34s-.03,7-.07,9.33c-.04,2.38-.08,4.75-.08,9.49,0,.28.12.52.16.79-.05,1.79-.11,3.18-.19,4.5-.13,2.38-.26,4.77-.26,9.55s.17,7.23.33,9.63c.16,2.22.31,4.45.31,8.9s-.1,6.75-.21,9.01c-.1,2.37-.22,4.75-.22,9.49s.05,7.02.1,9.36c.05,2.29.1,4.57.1,9.13s.07,7.06.15,9.42c.07,2.27.14,4.54.14,9.08s-.12,6.72-.23,8.96c-.13,2.38-.25,4.75-.25,9.51s.05,7,.1,9.34c.05,2.27.1,4.55.1,9.1s-.1,6.74-.22,8.99c-.11,2.37-.22,4.75-.22,9.49l-.03,18.47c0,4.7.08,7.06.15,9.41.07,2.27.15,4.53.15,9.06s.08,7.07.16,9.43c.08,2.26.16,4.52.16,9.05s-.03,6.86-.07,9.15c-.03,1.67-.06,3.38-.07,5.92-3.07,2.57-5.95,4.81-8.76,6.77ZM120.78,566.45c1.9,4.64,3.9,9.04,6.15,13.04,1.08,1.91,2.02,4.02,2.99,6.2,1.46,3.28,3.11,7,5.42,10.57,1.04,1.62,2.18,3.26,3.31,4.9-3.11-2.23-6.31-4.44-9.67-6.59-2.63-1.69-5.42-3.14-8.18-4.53v-15.84s-.02-7.74-.02-7.74ZM526.16,596.24c2.36-3.66,4.2-7.41,5.84-10.72,1.01-2.04,1.97-4,3.01-5.83,2.27-4.01,4.28-8.31,6.3-13.43-.02,1.91-.04,3.94-.04,7.73,0,4.03-.03,6.05-.08,8.06-.03,2.06-.08,4.13-.08,8.26,0,.01,0,.02,0,.03-2.94,1.76-5.73,3.5-8.21,5.09l-3.92,2.47c-2.8,1.75-5.63,3.59-8.39,5.52,1.95-2.28,3.91-4.63,5.55-7.17ZM95.15,161.89c1.81-4.25,3.51-8.25,5.52-12.12,1.49-2.87,3.38-5.59,5.39-8.47,1.46-2.1,2.92-4.2,4.25-6.37,1.29-2.13,2.47-4.32,3.66-6.5,1.7-3.14,3.29-6.1,5.2-8.8,2.37-3.35,5-6.5,7.78-9.83l3.28-3.96c1.26-1.55,2.49-3.13,3.73-4.7,2.49-3.19,4.85-6.21,7.46-8.99,4.5-4.82,8.28-8.81,12.4-12.65,2.43-2.28,5.17-4.29,8.08-6.42,1.99-1.46,3.97-2.92,5.87-4.46,1.66-1.36,3.29-2.75,4.91-4.15,2.96-2.54,5.75-4.95,8.75-7.07l2.82-2.01c3.84-2.72,7.79-5.55,11.79-7.98l.86-.53c4.71-2.86,9.58-5.83,14.47-8.37,2.86-1.48,5.98-2.63,9.29-3.84,2.4-.88,4.8-1.76,7.14-2.78,3.46-1.5,7.05-2.7,10.86-3.95,1.92-.64,3.84-1.27,5.76-1.95,2.13-.76,4.23-1.6,6.34-2.43,3.5-1.39,6.81-2.7,10.22-3.65,4.8-1.34,9.65-2.33,14.78-3.39l2.43-.5c2.63-.54,5.23-1.3,7.83-2.06,3.25-.95,6.32-1.86,9.37-2.27,2.84-.39,5.92-.28,9.19-.15,2.86.1,5.74.2,8.57,0l2.45-.17c4.98-.33,10.13-.69,15.17-.69h2.67c5.21,0,10.1-.02,14.99.31l3.46.23c4.91.31,9.55.61,14.16,1.24,4.51.62,9.1,1.59,13.55,2.54l3.81.8c2.41.5,4.85.88,7.28,1.26,3.57.56,6.94,1.08,10.13,1.98,3.12.87,6.17,2.17,9.4,3.55,2.36,1.01,4.72,2.01,7.12,2.86,5.71,2.03,11.43,4.49,16.35,6.63,2.34,1.02,4.75,1.9,7.16,2.79,3.29,1.2,6.41,2.33,9.26,3.82,3.86,2,7.7,4.39,11.42,6.69l3.79,2.34c2.89,1.76,5.61,3.87,8.48,6.1,1.9,1.48,3.82,2.96,5.77,4.35,1.56,1.1,3.13,2.18,4.69,3.25,3.42,2.33,6.64,4.54,9.68,7,3.64,2.97,7.02,6.16,10.6,9.53l2.48,2.33c3.98,3.72,7.63,7.62,11.5,11.77l.81.86c4.63,4.96,8.33,9.17,11.65,13.23,1.79,2.2,3.84,4.23,5.89,6.24,2.32,2.28,4.52,4.43,6.18,6.79,1.81,2.56,3.29,5.45,4.87,8.51,1.22,2.36,2.45,4.71,3.82,6.96,1.33,2.2,2.82,4.33,4.3,6.46,2.01,2.86,3.9,5.57,5.37,8.41,2.68,5.16,5.09,10.72,7.44,16.09.48,1.11.86,2.08,1.31,3.14-.16-.14-.31-.29-.47-.43-5.32-4.75-10.47-8.65-15.75-11.95l-2.77-1.75c-4.39-2.78-8.92-5.66-14.14-8.12-3.54-1.66-7.31-2.69-10.96-3.68-2.49-.68-5.05-1.37-7.54-2.29-2.19-.81-4.36-1.79-6.57-2.77-3.54-1.58-7.21-3.22-11.29-4.43-1.99-.59-4-1.24-6.03-1.9-3.96-1.27-8.06-2.59-12.39-3.63-3.66-.88-7.44-1.43-11.1-1.97-2.58-.38-5.19-.75-7.8-1.26-3.61-.7-7.3-1.06-10.85-1.41-2.69-.26-5.41-.53-8.12-.95-6.14-.95-12.43-1.72-18.9-2.5-6.17-.75-12.47-1.33-18.92-1.93-2.69-.25-5.39-.71-8.11-1.17-3.46-.59-7.05-1.2-10.79-1.45-2.6-.17-5.21-.44-7.83-.69-3.69-.37-7.41-.74-11.19-.9-3.57-.15-7.07.15-10.45.44-3,.25-5.84.52-8.64.44-4.48-.09-8.99-.07-13.56-.06h-5.47c-2.72.01-5.43-.12-8.12-.24-3.29-.15-6.54-.31-9.78-.25-3.48.06-6.92.3-10.33.54-2.54.18-5.07.36-7.57.44-2.68.1-5.34.06-8,.03-3.33-.04-6.63-.08-9.89.1-3.5.2-6.94.6-10.35,1.01-2.51.3-5,.6-7.48.79l-4.64.35c-4.47.33-8.87.67-13.2,1.12-2.43.26-4.83.44-7.21.64-3.59.28-7.14.58-10.6,1.04-4.03.54-7.97,1.26-11.85,1.98-1.97.36-3.91.72-5.84,1.05-6.08,1.01-11.93,2.22-17.63,3.43l-4.43.91c-4.51.92-8.91,1.81-13.17,2.93l-1.96.51c-5.34,1.38-10.53,2.73-15.47,4.32l-2.93.95c-4.98,1.6-9.68,3.11-14.25,4.96-4.41,1.79-8.33,3.94-12.13,6.02-1.4.77-2.79,1.53-4.18,2.25-1.98,1.04-4.01,1.93-6,2.81-3.57,1.58-7.25,3.21-10.55,5.52-3.73,2.61-6.83,5.64-9.67,8.53.03-.06.06-.12.09-.19l1.72-4.01ZM36.2,411.34l-.6-1.1c-2.86-5.23-5.56-10.17-7.69-15.2-2.47-5.8-4.48-11.71-6.26-17.23-2.11-6.51-3.68-12.89-4.82-17.73-1.56-6.65-2.93-12.59-3.76-18-.83-5.41-1.28-10.38-1.6-14.62,4.41,4.75,8.95,8.93,13.78,12.73,4.82,3.79,10.11,7.03,15.72,10.46l2.62,1.61c5.23,3.2,10.91,6.63,17.22,10.2.03,3.62.12,5.77.23,7.83.11,2.23.22,4.45.22,8.9s-.02,6.82-.04,9.1c-.02,2.3-.04,4.6-.04,9.2s-.06,6.78-.1,9.05c-.06,2.32-.11,4.65-.11,9.3s.22,7.24.44,9.66c.2,2.17.4,4.34.4,8.68,0,4.61.03,6.92.06,9.23,0,.99.02,2.01.03,3.2-1.67-1.73-3.34-3.47-5-5.36-4.47-5.07-8.28-10.37-11.09-14.41-3.46-4.98-6.68-10.19-9.58-15.49ZM39.3,517.54c-2.93-4.93-5.63-10.01-8.03-15.09-2.35-4.98-4.51-10.15-6.84-16.43-2.02-5.47-3.93-10.63-5.35-15.68-1.9-6.75-3.22-12.07-4.16-16.75-1.27-6.27-2.04-12.24-2.65-17.04-.4-3.13-.73-6.14-.99-8.92,2.08,2.18,4.37,4.41,6.93,6.75,4.88,4.48,10.08,8.26,14.07,11.06,4.65,3.27,9.5,6.41,14.84,9.59,4.54,2.72,9.44,5.52,14.76,8.51v7.31c-.01,4.47-.11,6.7-.21,8.94-.1,2.35-.2,4.7-.2,9.39,0,4.41-.15,6.62-.28,8.82-.16,2.38-.31,4.76-.31,9.51s.26,7.33.51,9.72c.24,2.21.45,4.3.45,8.6l.06,18.33c0,1.42-.02,2.56-.04,3.59-.87-.88-1.71-1.74-2.51-2.61-3.61-3.87-6.83-8.21-9.94-12.4l-.69-.93c-3.1-4.16-6.09-8.69-9.4-14.26ZM48.98,637.03c-3.83-5.14-6.95-9.75-9.54-14.12l-1.65-2.76c-2.51-4.16-4.88-8.09-6.79-12.13-2.34-4.94-4.57-10.26-6.64-15.82-1.79-4.84-3.45-10.04-5.24-16.38-1.17-4.18-1.97-8.37-2.73-12.43l-.85-4.42c-1.27-6.24-2.08-12.08-2.7-16.98l-.29-2.27c-.28-2.19-.55-4.27-.79-6.21,1.53,1.45,3.07,2.83,4.59,4.19l2.25,2.02c3.77,3.43,8.38,7.47,13.93,11.36,3.84,2.68,7.95,5.11,12.29,7.69l2.78,1.65c1.92,1.15,3.84,2.43,5.82,3.75,2.81,1.88,5.75,3.84,8.99,5.65,2.39,1.34,4.95,2.58,7.59,3.86,2.59,1.25,5.26,2.54,7.95,4.04,2.24,1.25,4.45,2.72,6.73,4.23,2.54,1.67,5.16,3.41,7.98,5,1.91,1.08,3.89,2.16,5.91,3.27,2.97,1.63,6.06,3.32,9.37,5.24,1.91,1.02,3.83,1.98,5.73,2.93,3.41,1.7,6.63,3.31,9.53,5.17,5.01,3.2,9.77,6.53,14.15,9.87,3.06,2.34,5.91,5.09,8.67,7.75,1.36,1.3,2.69,2.59,4.04,3.83,1.47,1.36,2.97,2.65,4.46,3.95,2.97,2.59,5.79,5.02,8.17,7.67,3.92,4.34,7.58,8.8,10.88,13.27,2.99,4.05,5.98,8.62,9.4,14.36,2.93,4.93,5.38,10.15,7.78,15.27,2.26,4.81,4.37,10,6.48,15.86,2.09,5.87,3.94,11.15,5.28,16.35,1.72,6.66,2.9,12.01,3.71,16.82.87,5.12,1.56,10.72,2.11,17.11.63,7.27.92,12.58.97,17.23.03,3.45-.11,6.84-.31,10.02-1.81-4.28-4.02-8.39-6.32-12.55-3.42-6.19-6.88-11.49-10.58-16.21-4.34-5.55-8.52-10.28-12.78-14.43-4.69-4.58-9.54-8.83-14.41-12.63-4.13-3.22-8.65-6.07-13.02-8.83l-2.84-1.8c-1.8-1.14-3.56-2.38-5.34-3.61-3.34-2.33-6.78-4.73-10.65-6.77-4.56-2.41-9.41-4.51-14.1-6.55l-3.36-1.45c-4.78-1.89-9.34-4.27-13.75-6.58l-1.61-.84c-4.51-2.36-9.78-5.21-14.7-8.52-4.39-2.96-8.8-6.34-13.47-10.33-4.07-3.48-8.07-7.34-12.21-11.79-4.08-4.37-7.64-8.63-10.91-13.02ZM589.74,932.58c-.27,3.93-.87,7.82-1.5,11.93-.29,1.88-.58,3.76-.83,5.64l-.61,4.76c-.56,4.44-1.09,8.65-1.94,12.76-.72,3.47-1.8,6.88-2.95,10.48-.69,2.18-1.38,4.34-1.99,6.53-.93,3.34-2.24,6.59-3.61,10.03-.87,2.17-1.74,4.34-2.52,6.53-.76,2.13-1.45,4.29-2.13,6.44-1.15,3.6-2.23,7-3.63,10.23-.99,2.26-1.86,4.57-2.74,6.89-1.28,3.37-2.48,6.55-4.02,9.49-2.91,5.62-5.57,10.66-8.55,15.53-2.24,3.68-4.87,7.33-7.41,10.87l-2.66,3.72c-3.7,5.23-7.71,10.24-10.79,14.02l-2.13,2.61c-2.98,3.69-6.07,7.51-9.28,10.95-2.12,2.27-4.64,4.27-7.3,6.4-2.1,1.67-4.18,3.35-6.14,5.17-4.77,4.47-9.1,8.27-13.24,11.63-5.48,4.47-9.8,7.78-13.99,10.74-1.89,1.33-3.72,2.74-5.57,4.14-2.97,2.27-5.77,4.42-8.76,6.23-3.88,2.37-7.92,4.43-12.18,6.62l-3.4,1.74c-4.9,2.55-10.13,5.02-15.96,7.57-5.33,2.31-10.83,4.7-16.37,6.67l-4.48,1.63c-4.02,1.47-8.17,2.99-12.26,4.13-6.4,1.79-12.02,3.18-17.19,4.25-3.04.63-6.28.83-9.69,1.05-2.65.17-5.31.35-7.94.7-2.68.37-5.34.96-8.02,1.56-3.28.74-6.38,1.44-9.42,1.65-3.78.25-7.62.18-11.71.09-5.32-.09-10.52-.22-16.2-.92-2.48-.31-4.96-.6-7.44-.77-6.31-.43-11.98-.85-17.55-1.61-2.18-.3-4.35-.54-6.52-.76-3.84-.42-7.47-.81-11.01-1.54-2.37-.49-4.76-.88-7.16-1.26-3.61-.58-7.03-1.13-10.26-2.03-2.81-.79-5.59-2.13-8.53-3.56-2.58-1.25-5.15-2.48-7.81-3.43-2.43-.86-4.92-1.58-7.41-2.29-3.35-.96-6.51-1.86-9.44-3.13-4.86-2.11-9.71-4.64-14.41-7.07l-1.92-.99c-5.03-2.62-10.24-5.32-15.05-8.26-2.86-1.74-5.53-3.84-8.37-6.07-1.94-1.51-3.87-3.03-5.87-4.45-3.79-2.68-7.32-5.58-11.06-8.65l-5.87-4.77c-3.67-2.95-7.14-5.75-10.42-8.81-3.4-3.18-6.52-6.54-9.83-10.1l-2.41-2.6c-1.47-1.56-2.97-3.09-4.48-4.62-2.73-2.77-5.32-5.38-7.62-8.21-3.63-4.46-6.91-9.1-10.51-14.2-3.22-4.55-6.16-9.21-9.57-14.81-1.26-2.08-2.64-4.11-4.01-6.14-2.02-3-3.93-5.82-5.48-8.78-1.66-3.2-3.02-6.59-4.45-10.19-.81-2.04-1.63-4.07-2.51-6.08-1.01-2.33-2.16-4.6-3.31-6.88-1.6-3.14-3.11-6.11-4.19-9.17-1.84-5.16-3.38-10.68-4.88-16.02l-.26-.93c-.9-3.19-1.42-6.55-1.97-10.1-.38-2.44-.76-4.89-1.26-7.3-.52-2.52-1.2-5.02-1.9-7.53-.92-3.36-1.79-6.53-2.23-9.72-.51-3.79-.71-7.67-.91-11.78-.1-1.96-.19-3.93-.33-5.89-.28-4.21-.24-8.44-.2-12.93l.03-4.75c0-.88-.27-1.68-.65-2.42.01-4.16.18-6.39.34-8.56.19-2.47.38-4.95.38-9.9s-.1-7.28-.2-9.71c-.09-2.32-.19-4.64-.19-9.28s-.07-7.23-.14-9.64c-.07-2.33-.14-4.66-.14-9.32s.15-6.84.31-9.12c.16-2.46.33-4.91.33-9.83s-.07-7.23-.15-9.63c-.07-2.33-.14-4.66-.14-9.31s-.05-7.18-.1-9.58c-.05-2.33-.1-4.68-.1-9.35s-.03-7.14-.07-9.53c-.03-2.34-.07-4.69-.07-9.37s.17-6.81.33-9.08c.18-2.47.36-4.93.36-9.86s-.16-7.35-.31-9.81c-.15-2.28-.29-4.56-.29-9.12s.15-6.85.28-9.13c.15-2.45.31-4.9.31-9.79s-.09-7.25-.17-9.67c-.08-2.31-.17-4.64-.17-9.27s.1-6.91.22-9.21c.11-2.43.22-4.86.22-9.72s-.11-7.27-.22-9.69c0-.1,0-.21-.01-.31,2.49,1.92,4.96,3.71,7.41,5.37,5.34,3.6,10.95,6.64,15.73,9.13l1.59.83c3.99,2.08,8.13,4.17,12.45,6.02.02,3.37.09,5.42.17,7.38.09,2.22.17,4.43.17,8.86s-.03,6.75-.06,9.01c-.03,2.29-.06,4.57-.06,9.15s-.08,6.66-.15,8.87c-.08,2.31-.16,4.63-.16,9.26s.12,7.01.24,9.35c.11,2.2.22,4.4.22,8.8s-.04,6.73-.08,8.98c-.04,2.29-.08,4.59-.08,9.17s.08,6.94.16,9.25c.08,2.22.15,4.43.15,8.87l-.05,18.14c0,4.44-.08,6.66-.17,8.88-.09,2.32-.18,4.64-.18,9.28s-.02,6.78-.04,9.03c-.03,2.29-.05,4.57-.05,9.14s-.03,6.75-.08,8.99c-.03,2.29-.08,4.59-.08,9.17s.15,7.07.29,9.43c.13,2.2.27,4.39.27,8.77s-.12,6.61-.23,8.82c-.13,2.34-.25,4.68-.25,9.37,0,1.23.49,2.32,1.19,3.22.07,4.99.27,10.07.72,15.49l.3,3.95c.34,4.64.7,9.44,1.49,14.2.28,1.69.53,3.38.78,5.07.63,4.23,1.27,8.62,2.36,12.94,1.38,5.41,3.18,10.64,4.93,15.7l.6,1.73c.54,1.57,1.05,3.15,1.56,4.73,1.35,4.13,2.74,8.39,4.56,12.54,1.8,4.08,3.97,7.9,6.06,11.61.85,1.51,1.71,3.02,2.54,4.54,2.33,4.32,5.02,8.35,7.61,12.24l2.11,3.2c1.22,1.87,2.33,3.82,3.45,5.76,1.87,3.26,3.8,6.63,6.25,9.78,4.05,5.18,7.91,9.76,11.81,14,2.67,2.9,5.66,5.25,8.56,7.52,1.82,1.43,3.65,2.86,5.34,4.41,3.91,3.59,8.6,7.82,13.81,11.88,1.67,1.31,3.3,2.69,4.92,4.07,2.93,2.5,5.97,5.09,9.38,7.32,3.34,2.18,6.86,3.84,10.26,5.44,2.02.95,4.03,1.9,5.99,2.96l1.4.76c4.75,2.59,9.66,5.25,14.84,7.54,5.27,2.31,10.92,4.73,16.92,6.79,1.74.6,3.47,1.24,5.2,1.88,3.88,1.44,7.89,2.93,12.12,3.99,6.6,1.67,12.46,2.93,17.92,3.84,4.36.72,8.74.99,12.98,1.26,1.74.11,3.5.22,5.25.36l2.27.19c5.18.44,10.53.88,15.98.88,4.14,0,8.12-.49,11.97-.97,2.08-.26,4.15-.51,6.22-.69,1.79-.14,3.57-.25,5.34-.36,4.19-.26,8.52-.53,12.85-1.24,6.67-1.11,12.23-2.07,17.93-3.51,4.21-1.07,8.19-2.54,12.04-3.98,1.76-.65,3.51-1.3,5.27-1.91,5.47-1.88,11.29-3.93,17.05-6.46,6.65-2.92,11.72-5.36,16.44-7.92,4.91-2.66,9.54-5.7,14.02-8.64l1.48-.97c5.37-3.52,10.54-7.54,14.7-10.78,1.86-1.45,3.87-2.72,5.88-4,3.06-1.94,6.23-3.95,9.1-6.59,2.9-2.68,5.29-5.67,7.6-8.56,1.43-1.8,2.86-3.6,4.41-5.28,1.47-1.61,3.04-3.13,4.6-4.67,2.72-2.66,5.52-5.42,8.01-8.6,2.45-3.15,4.38-6.51,6.25-9.77,1.11-1.94,2.22-3.88,3.45-5.75,1.26-1.94,2.7-3.78,4.13-5.62,2.26-2.9,4.59-5.89,6.46-9.35,3-5.54,5.57-11.4,7.85-16.57,1.59-3.62,2.6-7.34,3.58-10.93.6-2.2,1.19-4.39,1.92-6.54.54-1.58,1.11-3.15,1.68-4.72,1.47-4.04,2.98-8.21,4.09-12.61,1.77-7.05,2.96-12.56,3.84-17.87.78-4.72,1.13-9.49,1.48-14.09l.31-4.09c.17-2.08.43-4.17.69-6.26.48-3.86.97-7.84.97-11.97,0-.9-.28-1.71-.68-2.46,0-3.21.04-5.18.07-7.07.03-2.3.08-4.59.08-9.19s-.08-6.95-.15-9.27c-.08-2.23-.15-4.46-.15-8.93s.06-6.71.11-8.95c.06-2.31.11-4.61.11-9.21l.03-18.17c0-4.59-.05-6.89-.1-9.19-.05-2.24-.1-4.49-.1-8.97s.08-6.66.16-8.87c.08-2.32.17-4.64.17-9.26l.03-18.12c0-4.51.02-6.76.05-9.02.02-2.28.05-4.57.05-9.13s.04-6.73.08-8.97c.05-2.29.09-4.59.09-9.18s-.13-7.01-.25-9.35c-.11-2.2-.23-4.39-.23-8.78s.08-6.66.16-8.88c.08-2.32.17-4.64.17-9.27s-.13-7.03-.26-9.37c-.1-1.82-.2-3.72-.24-6.81l.26-.1c5.34-2.1,10.88-4.27,15.98-6.99,7.16-3.82,12.39-6.96,16.95-10.17,1.66-1.16,3.16-2.42,4.68-3.66,0,.06,0,.12,0,.18.06,2.33.11,4.67.11,9.33s.08,7.23.15,9.63c.07,2.33.15,4.65.15,9.29s-.15,6.85-.28,9.13c-.16,2.45-.31,4.9-.31,9.81s-.03,7.03-.07,9.37c-.04,2.38-.08,4.77-.08,9.55l.03,18.93c0,4.9.15,7.35.3,9.8.14,2.29.28,4.57.28,9.15s-.03,7.03-.06,9.37c-.03,2.38-.07,4.77-.07,9.53s.08,7.24.17,9.66c.08,2.31.17,4.64.17,9.27s-.02,7.07-.04,9.42c-.03,2.38-.05,4.76-.05,9.52s-.1,6.94-.2,9.24c-.11,2.43-.22,4.86-.22,9.71l-.08,37.94c0,4.86.1,7.3.22,9.73.1,2.31.2,4.63.2,9.26,0,.66.16,1.29.38,1.87,0,0,0,.01,0,.02,0,5.66-.06,11.73-.45,17.72ZM628.6,552.25c4.73-3.27,8.76-6.87,12.65-10.35l1.09-.98c2.3-2.05,5.07-4.59,7.92-7.55-.16,1.01-.33,2.07-.52,3.18-.42,2.56-.88,5.34-1.3,8.28-.76,5.39-1.69,11.7-3.17,18.37-1.26,5.69-2.7,11.81-4.63,18.05-2.02,6.54-3.84,12.03-6.12,17.56-1.99,4.83-4.47,9.99-8.04,16.73l-1.56,2.97c-2.33,4.43-4.73,9.01-7.57,13.18-2.71,4-6,7.77-9.47,11.76l-2.22,2.56c-3.79,4.39-8.02,8.68-12.93,13.12l-2.29,2.08c-3.72,3.41-7.56,6.93-11.76,9.87-4.2,2.95-9.08,5.88-15.84,9.49-4.55,2.43-9.56,4.39-14.86,6.47l-2.32.92c-5.76,2.52-11.17,5.39-16.41,8.18l-.9.47c-5.49,2.9-11.33,6.09-16.84,9.62-6.46,4.16-11.52,7.72-15.94,11.21-5.05,3.98-9.97,8.35-14.64,13-3.72,3.7-6.66,7.73-9.52,11.62-.92,1.25-1.83,2.49-2.76,3.71l-1.35,1.77c-3.5,4.57-7.12,9.28-9.86,14.5-1.77,3.34-3.17,6.82-4.34,10.15v-6.99s0-3.25,0-3.25c-.02-4.57-.05-9.28.33-14.16l.32-4.77c.26-4.13.52-8.39,1.2-12.59.9-5.57,2.32-11.46,3.71-17.02,1.68-6.73,3.18-11.88,4.86-16.68,1.81-5.17,4.12-10.3,6.74-15.99,1.77-3.84,4.01-7.6,6.39-11.56l2.08-3.51c.84-1.44,1.67-2.9,2.49-4.39,1.97-3.53,4.02-7.18,6.41-10.45,3.41-4.67,7.07-9.2,10.9-13.47,4.47-5,8.31-8.96,12.09-12.44,3.68-3.4,7.8-6.55,12.16-9.89l1.36-1.04c3.2-2.45,6.75-4.67,10.51-7.01l4.02-2.54c4.32-2.77,9.47-6,15.11-9.03l3.51-2.04c3.93-2.29,7.69-4.48,11.31-6.52,2.36-1.34,4.65-2.66,6.87-3.95,2.75-1.59,5.41-3.13,8-4.57,2.92-1.62,5.7-3.2,8.38-4.73l6.62-3.75c3.33-1.86,6.41-3.79,9.36-5.64,1.85-1.17,3.65-2.3,5.43-3.35,2.11-1.26,4.23-2.36,6.29-3.43,3.03-1.57,6.17-3.2,9.03-5.18ZM630.62,446.54c5.01-3.45,9.34-7.19,13.34-10.72,3.19-2.81,5.96-5.46,8.45-8.07-.23,3.8-.56,8.21-1.26,13-.71,4.85-1.72,11.31-3.29,18.25-1.2,5.3-2.81,11.15-4.93,17.87-1.66,5.29-3.76,10.96-6.4,17.32-2.27,5.44-4.73,11.21-7.71,16.77-2.36,4.39-5.27,8.62-8.35,13.1l-3.75,5.5c-2.68,3.99-5.45,8.1-8.62,11.75-2.24,2.58-4.84,5.24-7.64,7.97.01-1.41.02-3.07.02-5.28,0-4.71-.08-7.07-.16-9.42-.08-2.27-.16-4.53-.16-9.06s-.08-7.05-.15-9.4c-.07-2.27-.15-4.53-.15-9.06l.03-18.47c0-4.5.1-6.74.22-8.99.11-2.37.22-4.75.22-9.49,0-2.38-.01-4.15-.03-5.63.54-.11,1.09-.23,1.6-.52,3.44-1.92,6.63-3.88,9.68-5.75l7.73-4.64c4-2.35,7.76-4.57,11.32-7.02Z"/></g></svg>